<svg version="1.1" viewBox="0 0 512 512" xmlns="http://www.w3.org/2000/svg">
  <g stroke-width="5" fill="none" stroke="#000">
    <path d="m256 46v67.588"/>
    <path d="m256 340.64v48.687"/>
    <path d="m119.53 466 39.744-54.68"/>
    <path d="m392.47 466-39.744-54.68"/>
    <path d="m476.81 206.43-64.307 20.905"/>
    <path d="m196.56 297.47-46.253 15.045"/>
    <path d="m219.26 227.63-28.586-39.389"/>
    <path d="m292.74 227.63 28.586-39.389"/>
    <path d="m315.44 297.47 46.253 15.045"/>
    <path d="m35.193 206.43 64.307 20.905"/>
    <path d="m256 340.64-59.441-43.163 22.705-69.838h73.473l22.704 69.838z"/>
    <path d="m256 46 220.81 160.43-84.341 259.57-272.93-1e-5 -84.341-259.57z"/>
    <path d="m256 113.59 65.323 74.658 91.177 39.065-50.806 85.207-8.972 98.801-96.722-21.997-96.722 21.997-8.972-98.801-50.806-85.207 91.178-39.065z"/>
  </g>
  <g fill="#f21">
    <circle cx="292.74" cy="227.63" r="10"/>
    <circle cx="190.68" cy="188.25" r="10"/>
    <circle cx="219.26" cy="227.63" r="10"/>
    <circle cx="256" cy="113.59" r="10"/>
    <circle cx="392.47" cy="466" r="10"/>
    <circle cx="412.5" cy="227.33" r="10"/>
    <circle cx="352.72" cy="411.32" r="10"/>
    <circle cx="119.53" cy="466" r="10"/>
    <circle cx="99.5" cy="227.33" r="10"/>
    <circle cx="35.193" cy="206.43" r="10"/>
    <circle cx="315.44" cy="297.47" r="10"/>
    <circle cx="476.81" cy="206.43" r="10"/>
    <circle cx="256" cy="46" r="10"/>
    <circle cx="159.28" cy="411.32" r="10"/>
    <circle cx="321.32" cy="188.25" r="10"/>
    <circle cx="150.31" cy="312.52" r="10"/>
    <circle cx="256" cy="389.32" r="10"/>
    <circle cx="196.56" cy="297.47" r="10"/>
    <circle cx="256" cy="340.64" r="10"/>
    <circle cx="361.69" cy="312.52" r="10"/>
    </g>
    <!-- sort above circles by cy firstly and then cx -->
    <g fill="#fff">
    <circle cx="256" cy="46" r="10"/>
    <circle cx="256" cy="113.59" r="10"/>
    <circle cx="256" cy="340.64" r="10"/>
    <circle cx="256" cy="389.32" r="10"/>
    <circle cx="35.193" cy="206.43" r="10"/>
    <circle cx="99.5" cy="227.33" r="10"/>
    <circle cx="119.53" cy="466" r="10"/>
    <circle cx="150.31" cy="312.52" r="10"/>
    <circle cx="159.28" cy="411.32" r="10"/>
    <circle cx="190.68" cy="188.25" r="10"/>
    <circle cx="196.56" cy="297.47" r="10"/>
    <circle cx="219.26" cy="227.63" r="10"/>
    <circle cx="256" cy="227.33" r="10"/>
    <circle cx="256" cy="297.47" r="10"/>
    <circle cx="292.74" cy="227.63" r="10"/>
    <circle cx="321.32" cy="188.25" r="10"/>
    <circle cx="352.72" cy="411.32" r="10"/>
    <circle cx="361.69" cy="312.52" r="10"/>
    <circle cx="392.47" cy="466" r="10"/>
    <circle cx="412.5" cy="227.33" r="10"/>
    <circle cx="476.81" cy="206.43" r="10"/>
    </g>
</svg>