<svg xmlns="http://www.w3.org/2000/svg" xmlns:xlink="http://www.w3.org/1999/xlink" version="1.1" x="0px" y="0px" viewBox="0 0 56.365 41.68875" enable-background="new 0 0 56.365 33.351" xml:space="preserve">
    <g>
        <rect x="286.368" y="1185.599" fill-rule="evenodd" clip-rule="evenodd" fill="#000000" width="473.418" height="533.22"/>
        <rect x="286.368" y="579.36" fill-rule="evenodd" clip-rule="evenodd" fill="#000000" width="470.222" height="574.209"/>
        <circle fill-rule="evenodd" clip-rule="evenodd" fill="#000000" cx="-1618.411" cy="257.088" r="54"/>
        <path fill-rule="evenodd" clip-rule="evenodd" fill="#000000" d="M-1592.424,268.099c0,3.547-2.914,6.423-6.51,6.423h-41.521   c-3.596,0-6.51-2.876-6.51-6.423v-18.604c0-3.547,2.914-6.423,6.51-6.423h41.521c3.596,0,6.51,2.876,6.51,6.423V268.099z"/>
        <rect x="-1808.411" y="-502.431" fill-rule="evenodd" clip-rule="evenodd" fill="#000000" width="841.89" height="58.249"/>
        <rect x="-1419.297" y="-115.65" fill="#000000" stroke="#FFFFFF" stroke-miterlimit="10" width="96.025" height="34.445"/>
        <g>
            <path fill="#000000" d="M-1775.154-473.321v-0.034c0.696-0.194,1.268-0.539,1.716-1.036c0.448-0.497,0.672-1.076,0.672-1.738    c0-0.913-0.368-1.621-1.104-2.123c-0.736-0.502-1.789-0.753-3.159-0.753h-4.468v12.275h4.717c1.392,0,2.491-0.33,3.295-0.989    s1.207-1.551,1.207-2.675c0-0.771-0.261-1.424-0.783-1.96C-1773.584-472.89-1774.281-473.213-1775.154-473.321z     M-1778.732-476.968h1.036c1.347,0,2.02,0.451,2.02,1.353c0,0.485-0.164,0.866-0.492,1.143s-0.777,0.415-1.348,0.415h-1.215    V-476.968z M-1775.732-469.212c-0.362,0.297-0.863,0.445-1.502,0.445h-1.498v-3.236h1.515c0.639,0,1.137,0.14,1.494,0.419    c0.356,0.28,0.535,0.665,0.535,1.156C-1775.189-469.915-1775.37-469.509-1775.732-469.212z"/><path fill="#000000" d="M-1766.227-475.709c-1.478,0-2.651,0.41-3.518,1.229c-0.868,0.819-1.301,1.953-1.301,3.402    c0,1.404,0.418,2.516,1.254,3.334c0.836,0.819,1.984,1.228,3.445,1.228c1.483,0,2.652-0.422,3.505-1.267    c0.853-0.845,1.28-1.995,1.28-3.45c0-1.347-0.414-2.43-1.241-3.249C-1763.63-475.3-1764.771-475.709-1766.227-475.709z     M-1766.261-468.587c-1.358,0-2.037-0.842-2.037-2.525c0-0.805,0.177-1.427,0.531-1.866c0.354-0.439,0.85-0.659,1.489-0.659    c1.307,0,1.96,0.819,1.96,2.457C-1764.317-469.452-1764.965-468.587-1766.261-468.587z"/>
            <rect x="-1759.806" y="-479.707" fill="#000000" width="2.705" height="12.977"/>
            <path fill="#000000" d="M-1748.952-474.494h-0.034c-0.445-0.81-1.233-1.215-2.363-1.215c-1.193,0-2.157,0.437-2.893,1.31    c-0.736,0.873-1.104,2.035-1.104,3.484c0,1.387,0.334,2.467,1.001,3.24c0.668,0.773,1.549,1.16,2.645,1.16    c1.193,0,2.098-0.474,2.714-1.421h0.034v1.207h2.705v-12.977h-2.705V-474.494z M-1748.901-470.993    c0,0.725-0.173,1.307-0.518,1.746s-0.792,0.659-1.339,0.659c-0.577,0-1.027-0.208-1.353-0.625s-0.488-1.01-0.488-1.78    c0-0.822,0.168-1.468,0.505-1.939c0.336-0.471,0.805-0.707,1.404-0.707c0.531,0,0.961,0.188,1.292,0.565    c0.331,0.376,0.497,0.85,0.497,1.421V-470.993z"/>
            <path fill="#000000" d="M-1738.672-473.253v-0.034c0.662-0.217,1.182-0.582,1.558-1.096s0.565-1.118,0.565-1.814    c0-0.833-0.311-1.509-0.933-2.029c-0.622-0.519-1.464-0.779-2.525-0.779h-3.492v12.275h3.578c1.147,0,2.097-0.325,2.851-0.976    c0.753-0.65,1.13-1.5,1.13-2.551c0-0.844-0.249-1.531-0.745-2.059C-1737.182-472.843-1737.844-473.156-1738.672-473.253z     M-1742.062-477.704h1.652c1.569,0,2.354,0.597,2.354,1.789c0,0.691-0.226,1.226-0.676,1.605c-0.451,0.38-1.07,0.569-1.858,0.569    h-1.472V-477.704z M-1738.146-468.63c-0.465,0.399-1.12,0.599-1.964,0.599h-1.952v-4.417h1.652c1.974,0,2.961,0.725,2.961,2.174    C-1737.448-469.578-1737.68-469.03-1738.146-468.63z"/>
            <path fill="#000000" d="M-1730.197-475.701c-1.147,0-2.107,0.429-2.881,1.288c-0.773,0.859-1.16,1.97-1.16,3.334    c0,1.444,0.354,2.564,1.062,3.36c0.708,0.796,1.681,1.194,2.919,1.194c1.267,0,2.286-0.28,3.056-0.839v-1.318    c-0.827,0.65-1.735,0.976-2.722,0.976c-0.879,0-1.57-0.265-2.072-0.796s-0.765-1.284-0.788-2.26h6.189v-0.736    c0-1.318-0.314-2.348-0.941-3.09C-1728.163-475.33-1729.05-475.701-1730.197-475.701z M-1732.765-471.952    c0.108-0.765,0.394-1.384,0.856-1.857c0.462-0.474,1.024-0.71,1.687-0.71c0.685,0,1.22,0.226,1.605,0.676s0.581,1.082,0.586,1.892    H-1732.765z"/>
            <path fill="#000000" d="M-1721.286-475.701c-1.125,0-2.118,0.274-2.979,0.821v1.438c0.85-0.719,1.803-1.079,2.859-1.079    c1.204,0,1.806,0.745,1.806,2.234l-2.628,0.368c-1.929,0.269-2.893,1.221-2.893,2.859c0,0.765,0.247,1.378,0.74,1.84    c0.494,0.462,1.177,0.693,2.05,0.693c1.187,0,2.085-0.525,2.696-1.575h0.034v1.37h1.404v-5.701    C-1718.196-474.611-1719.226-475.701-1721.286-475.701z M-1719.6-470.291c0,0.748-0.227,1.365-0.68,1.854    c-0.454,0.488-1.029,0.731-1.725,0.731c-0.508,0-0.915-0.135-1.22-0.406s-0.458-0.621-0.458-1.049    c0-0.587,0.166-0.997,0.497-1.229c0.331-0.231,0.822-0.392,1.472-0.483l2.114-0.291V-470.291z"/>
            <path fill="#000000" d="M-1711.818-475.649c-0.508,0-0.967,0.172-1.378,0.518c-0.411,0.346-0.716,0.826-0.916,1.442h-0.034v-1.806    h-1.404v8.766h1.404v-4.468c0-0.976,0.201-1.747,0.604-2.312s0.903-0.847,1.502-0.847c0.462,0,0.816,0.094,1.062,0.282v-1.455    C-1711.174-475.609-1711.454-475.649-1711.818-475.649z"/>
        </g>
        <path fill-rule="evenodd" clip-rule="evenodd" fill="#000000" d="M55.842,12.102c-0.22-0.193-0.598-0.744-0.668-0.959   c-0.09-0.167-0.377-0.53-0.676-0.947c-0.359-0.382-1.465-1.819-1.4-2.798c-0.079-0.285-0.818-2.402-3.627-4.382l0.004-0.004   c-0.42-0.259-0.402-0.686-0.381-0.85c0.004-0.018,0.008-0.037,0.011-0.056c0-0.005,0.003-0.014,0.003-0.014L49.104,2.09   c0.009-0.066,0.018-0.133,0.018-0.202c0-0.677-0.448-1.226-0.999-1.226c-0.09,0-0.172,0.019-0.255,0.045   C47.709,0.291,47.365,0,46.963,0c-0.393,0-0.727,0.28-0.891,0.683c-0.516,0.864-0.889,1.109-1.033,1.17   C45.027,1.857,45.012,1.86,45,1.864c-0.039,0.044-3.865-0.063-6.457-0.826c-0.201-0.078-0.402-0.141-0.604-0.197   c-0.016-0.005-0.033-0.01-0.049-0.017v0.005c-1.173-0.313-2.359-0.239-3.59,0.307c-1.297,0.575-2.646,0.568-4.031,0.287   c-1.9-0.386-3.809-0.792-5.732-1.006c-4.488-0.499-8.701,0.322-12.141,3.414c-2.125,1.909-4.795,2.557-6.691,4.701   c-1.604,1.817-1.841,5.495-2.344,7.883c-0.297,1.4-0.604,2.802-1,4.176c-0.591,2.05-0.701,4.291-2.274,5.968   c-0.259,0.955,0.143,2.51,0.171,2.625c0.822,3.471,1.575,4.019,5.115,3.7c0.348-0.031,0.742-0.025,1.023-0.189   c0.251-0.146,0.538-0.508,0.531-0.768c-0.023-0.873-0.756-0.99-1.424-1.123c-0.842-0.166-0.99-0.417-0.52-1.128   c0.329-0.499,0.75-0.962,1.209-1.345c1.91-1.598,3.458-3.465,4.58-5.702c0.273-0.544,0.678-0.948,1.146-1.228   c1.143-1.359,2.146-2.898,2.602-4.478c-0.178,0.748-0.623,2.271-1.848,4.149c-0.252,0.772,0.598,1.832,0.803,2.252   c1.592,2.146,3.111,4.249,4.139,6.48c0.15,0.322,0.514,0.607,0.846,0.774c1.691,0.848,3.493,1.014,5.337,0.68   c0.273-0.05,0.652-0.346,0.702-0.587c0.055-0.264-0.135-0.71-0.361-0.872c-0.41-0.292-0.914-0.471-1.404-0.624   c-1.491-0.47-1.451-0.062-1.363-1.947c0.004-0.075,0.027-0.147,0.027-0.221c0.005-1.154,0.669-3.038,0.498-4.413   c1.211,0.633,3.16,1.317,5.762,1.165c0.148-1.808,0.553-3.129,0.885-3.971c0.021-0.005,0.043-0.01,0.064-0.015   c-0.223,0.688-0.369,1.418-0.449,2.175c-0.023,0.16-0.041,0.328-0.057,0.505c-0.002,0.047-0.008,0.093-0.012,0.139   c-0.017,0.239-0.023,0.494-0.023,0.765c-0.003,0.124-0.014,0.247-0.014,0.371c0.006,0,0.012-0.001,0.016-0.002   c0.052,1.592,0.434,3.679,1.528,6.307c0.726,1.743,2.138,2.858,3.933,3.19c1.344,0.248,2.775,0.062,4.164,0.019   c0.492-0.016,0.926-0.198,0.926-0.859c0-0.645-0.347-0.937-0.902-1.035c-0.596-0.105-1.197-0.205-1.801-0.225   c-0.98-0.032-1.554-0.557-1.502-1.477c0.14-2.442,0.055-4.966,0.678-7.293c0.059-0.223,0.135-0.439,0.205-0.658   c0.352,1.076,0.94,1.695,0.94,1.695v-0.001c1.468,1.794,3.026,3.513,5.219,4.451c0.761,0.325,1.044,0.753,0.883,1.532   c-0.081,0.404-0.248,0.827-0.195,1.217c0.073,0.554,0.165,1.272,0.533,1.564c0.244,0.197,1.162-0.057,1.471-0.393   c2.138-2.343,2.921-4.649,1.411-7.369c-0.826-1.485-1.955-2.813-3.044-4.134c-0.663-0.805-1.013-1.595-0.706-2.62   c0.196-0.659,0.387-1.331,0.582-2.004l0.002-0.003c0.289-1.004,0.852-1.743,0.852-1.743s0.246-0.341,1.035-1.229   c0.002,0,0.002,0,0.002,0c0.192,0.447,0.635,1.299,1.193,1.224c-0.059-0.057-0.287-0.724-0.287-1.222   c0.137,0.003,0.282,0.007,0.431,0.012c0.198,0.456,0.818,1.686,1.677,1.559c-0.081-0.065-0.377-0.88-0.344-1.479   c1.439,0.124,3.08,0.397,4.332,0.981c0.17,0.068,1.016,0.833,1.596,0.81c0.615,0.084,1.011,0.306,1.279-0.034   c0.012-0.036,0.307,0.207,0.52,0.021c0.24-0.196,0.68-0.562,0.888-1c0.071,0.012,0.809-0.285,0.8-0.57   C56.272,12.713,56.43,12.71,55.842,12.102z"/>
        <line fill="#000000" stroke="#E65245" stroke-miterlimit="10" x1="-1222.088" y1="-467.841" x2="-1180.582" y2="-467.841"/>
        <line fill="#000000" stroke="#E65245" stroke-miterlimit="10" x1="-1286.765" y1="-467.841" x2="-1259.809" y2="-467.841"/>
        <path fill="#000000" d="M-924.243-466.523v-12.275h4.469c1.369,0,2.422,0.251,3.158,0.753c0.736,0.502,1.104,1.21,1.104,2.123   c0,0.662-0.224,1.241-0.672,1.738s-1.021,0.842-1.716,1.036v0.034c0.873,0.108,1.57,0.431,2.092,0.967   c0.522,0.537,0.783,1.19,0.783,1.96c0,1.124-0.402,2.016-1.207,2.675s-1.902,0.989-3.295,0.989H-924.243z M-921.478-476.761v2.91   h1.215c0.57,0,1.02-0.138,1.348-0.415s0.492-0.658,0.492-1.143c0-0.902-0.673-1.353-2.02-1.353H-921.478z M-921.478-471.796v3.236   h1.498c0.639,0,1.139-0.148,1.502-0.445c0.361-0.297,0.543-0.702,0.543-1.215c0-0.491-0.178-0.876-0.535-1.156   c-0.356-0.28-0.854-0.419-1.493-0.419H-921.478z"/><path fill="#000000" d="M-909.092-466.309c-1.461,0-2.609-0.409-3.445-1.228c-0.837-0.819-1.255-1.931-1.255-3.334   c0-1.449,0.434-2.583,1.302-3.402c0.867-0.819,2.04-1.229,3.519-1.229c1.455,0,2.596,0.41,3.424,1.229   c0.827,0.819,1.241,1.902,1.241,3.249c0,1.455-0.427,2.605-1.28,3.45S-907.608-466.309-909.092-466.309z M-909.023-473.431   c-0.64,0-1.136,0.22-1.489,0.659c-0.354,0.439-0.531,1.062-0.531,1.866c0,1.684,0.68,2.525,2.037,2.525   c1.296,0,1.943-0.865,1.943-2.594C-907.063-472.612-907.717-473.431-909.023-473.431z"/>
        <path fill="#000000" d="M-899.847-466.523h-2.705V-479.5h2.705V-466.523z"/>
        <path fill="#000000" d="M-888.993-466.523h-2.705v-1.207h-0.033c-0.617,0.947-1.521,1.421-2.715,1.421   c-1.096,0-1.977-0.386-2.645-1.16s-1.002-1.854-1.002-3.24c0-1.449,0.369-2.611,1.105-3.484c0.735-0.873,1.699-1.31,2.893-1.31   c1.13,0,1.918,0.405,2.363,1.215h0.033v-5.213h2.705V-466.523z M-891.646-470.786v-0.659c0-0.571-0.165-1.044-0.497-1.421   c-0.33-0.377-0.762-0.565-1.292-0.565c-0.599,0-1.067,0.236-1.403,0.707c-0.338,0.471-0.506,1.117-0.506,1.939   c0,0.77,0.163,1.364,0.488,1.78s0.775,0.625,1.353,0.625c0.548,0,0.994-0.22,1.339-0.659   C-891.819-469.479-891.646-470.061-891.646-470.786z"/>
        <path fill="#000000" d="M-886.245-466.523v-12.275h3.492c1.062,0,1.903,0.26,2.525,0.779c0.622,0.52,0.934,1.195,0.934,2.029   c0,0.696-0.189,1.301-0.565,1.814s-0.896,0.879-1.558,1.096v0.034c0.827,0.097,1.489,0.41,1.986,0.938   c0.496,0.528,0.744,1.214,0.744,2.059c0,1.05-0.377,1.9-1.13,2.551c-0.753,0.651-1.704,0.976-2.851,0.976H-886.245z    M-884.808-477.497v3.963h1.473c0.787,0,1.406-0.189,1.857-0.569c0.451-0.379,0.677-0.914,0.677-1.605   c0-1.192-0.785-1.789-2.354-1.789H-884.808z M-884.808-472.241v4.417h1.952c0.845,0,1.499-0.2,1.964-0.599   c0.466-0.399,0.698-0.947,0.698-1.644c0-1.449-0.987-2.174-2.962-2.174H-884.808z"/>
        <path fill="#000000" d="M-869.339-470.555h-6.189c0.023,0.976,0.286,1.729,0.788,2.26s1.192,0.796,2.071,0.796   c0.987,0,1.895-0.325,2.723-0.976v1.318c-0.771,0.559-1.789,0.839-3.057,0.839c-1.238,0-2.211-0.398-2.918-1.194   c-0.709-0.796-1.063-1.916-1.063-3.36c0-1.364,0.387-2.475,1.16-3.334s1.733-1.288,2.881-1.288c1.146,0,2.034,0.371,2.662,1.113   c0.627,0.742,0.941,1.771,0.941,3.09V-470.555z M-870.776-471.745c-0.006-0.81-0.201-1.441-0.587-1.892s-0.921-0.676-1.604-0.676   c-0.662,0-1.225,0.237-1.688,0.71c-0.461,0.474-0.747,1.093-0.855,1.857H-870.776z"/>
        <path fill="#000000" d="M-860.942-466.523h-1.403v-1.37h-0.034c-0.611,1.05-1.51,1.575-2.696,1.575   c-0.873,0-1.557-0.231-2.05-0.693c-0.494-0.462-0.74-1.076-0.74-1.84c0-1.638,0.964-2.591,2.893-2.859l2.628-0.368   c0-1.489-0.603-2.234-1.806-2.234c-1.057,0-2.01,0.359-2.859,1.079v-1.438c0.861-0.547,1.854-0.821,2.979-0.821   c2.061,0,3.09,1.09,3.09,3.27V-466.523z M-862.346-470.957l-2.114,0.291c-0.65,0.091-1.142,0.252-1.473,0.483   c-0.33,0.231-0.496,0.641-0.496,1.229c0,0.428,0.152,0.778,0.458,1.049s0.712,0.406,1.22,0.406c0.696,0,1.271-0.244,1.725-0.731   c0.454-0.488,0.681-1.106,0.681-1.854V-470.957z"/>
        <path fill="#000000" d="M-853.726-473.868c-0.245-0.188-0.599-0.282-1.061-0.282c-0.6,0-1.101,0.282-1.503,0.847   s-0.604,1.335-0.604,2.312v4.468h-1.403v-8.766h1.403v1.806h0.034c0.199-0.616,0.506-1.097,0.916-1.442   c0.411-0.345,0.87-0.518,1.379-0.518c0.364,0,0.645,0.04,0.838,0.12V-473.868z"/>
        <g>
            <path fill="#000000" d="M-433.001-632.415v-0.103c2.096-0.584,3.82-1.625,5.172-3.122c1.351-1.497,2.024-3.242,2.024-5.238    c0-2.752-1.109-4.884-3.328-6.399c-2.22-1.513-5.393-2.269-9.52-2.269h-13.469v36.997h14.217c4.197,0,7.505-0.993,9.931-2.98    c2.425-1.987,3.638-4.674,3.638-8.062c0-2.322-0.785-4.292-2.36-5.909C-428.268-631.115-430.369-632.088-433.001-632.415z     M-443.785-643.405h3.119c4.06,0,6.088,1.358,6.088,4.077c0,1.461-0.495,2.609-1.484,3.444c-0.988,0.834-2.343,1.251-4.062,1.251    h-3.661V-643.405z M-434.743-620.03c-1.095,0.895-2.603,1.342-4.527,1.342h-4.515v-9.753h4.564c1.926,0,3.427,0.421,4.501,1.264    c1.077,0.843,1.612,2.004,1.612,3.483C-433.107-622.146-433.654-620.925-434.743-620.03z"/>
            <path fill="#000000" d="M-406.093-639.613c-4.456,0-7.991,1.235-10.604,3.703c-2.617,2.468-3.924,5.887-3.924,10.254    c0,4.231,1.26,7.583,3.782,10.05c2.52,2.468,5.981,3.701,10.384,3.701c4.472,0,7.992-1.271,10.564-3.817s3.858-6.012,3.858-10.397    c0-4.059-1.248-7.323-3.741-9.791C-398.27-638.378-401.707-639.613-406.093-639.613z M-406.198-618.146    c-4.092,0-6.141-2.537-6.141-7.612c0-2.425,0.536-4.3,1.602-5.625c1.065-1.323,2.561-1.987,4.488-1.987    c3.938,0,5.907,2.469,5.907,7.405C-400.342-620.753-402.293-618.146-406.198-618.146z"/>
            <rect x="-386.743" y="-651.661" fill="#000000" width="8.153" height="39.113"/>
            <path fill="#000000" d="M-354.03-635.95h-0.1c-1.343-2.441-3.718-3.663-7.123-3.663c-3.597,0-6.502,1.316-8.719,3.947    c-2.219,2.631-3.332,6.132-3.332,10.5c0,4.18,1.007,7.435,3.021,9.766c2.013,2.331,4.668,3.495,7.971,3.495    c3.597,0,6.322-1.427,8.183-4.282h0.1v3.638h8.153v-39.113h-8.153V-635.95z M-353.874-625.396c0,2.184-0.521,3.938-1.563,5.263    c-1.039,1.325-2.384,1.987-4.035,1.987c-1.739,0-3.097-0.628-4.076-1.884c-0.98-1.255-1.472-3.045-1.472-5.366    c0-2.477,0.506-4.425,1.524-5.844c1.013-1.418,2.426-2.129,4.229-2.129c1.599,0,2.899,0.568,3.895,1.704    c1,1.135,1.498,2.563,1.498,4.283V-625.396z"/>
            <path fill="#000000" d="M-323.042-632.208v-0.103c1.995-0.653,3.562-1.754,4.694-3.302c1.133-1.548,1.704-3.371,1.704-5.469    c0-2.512-0.938-4.549-2.813-6.115c-1.875-1.564-4.412-2.347-7.612-2.347h-10.525v36.997h10.785c3.455,0,6.322-0.98,8.592-2.942    c2.269-1.96,3.405-4.522,3.405-7.688c0-2.544-0.748-4.614-2.243-6.205C-318.554-630.974-320.549-631.916-323.042-632.208z     M-333.262-645.625h4.98c4.729,0,7.096,1.798,7.096,5.393c0,2.082-0.68,3.694-2.039,4.837c-1.36,1.145-3.227,1.716-5.599,1.716    h-4.438V-645.625z M-321.459-618.276c-1.4,1.204-3.373,1.806-5.919,1.806h-5.884v-13.313h4.98c5.951,0,8.927,2.186,8.927,6.553    C-319.354-621.131-320.055-619.48-321.459-618.276z"/>
            <path fill="#000000" d="M-297.5-639.586c-3.458,0-6.352,1.293-8.683,3.882c-2.331,2.588-3.497,5.938-3.497,10.048    c0,4.352,1.065,7.728,3.203,10.127c2.131,2.4,5.063,3.6,8.794,3.6c3.821,0,6.891-0.843,9.213-2.528v-3.974    c-2.496,1.96-5.23,2.94-8.206,2.94c-2.648,0-4.729-0.799-6.243-2.399c-1.513-1.6-2.304-3.87-2.375-6.811h18.655v-2.22    c0-3.974-0.948-7.077-2.838-9.313C-291.369-638.469-294.044-639.586-297.5-639.586z M-305.241-628.287    c0.327-2.305,1.189-4.17,2.579-5.598c1.395-1.428,3.09-2.141,5.086-2.141c2.061,0,3.673,0.68,4.836,2.038    c1.162,1.358,1.751,3.26,1.769,5.701H-305.241z"/>
            <path fill="#000000" d="M-270.645-639.586c-3.388,0-6.381,0.826-8.978,2.475v4.336c2.562-2.168,5.434-3.251,8.618-3.251    c3.627,0,5.442,2.244,5.442,6.733l-7.92,1.109c-5.813,0.81-8.719,3.681-8.719,8.618c0,2.305,0.742,4.153,2.231,5.547    c1.486,1.392,3.547,2.09,6.178,2.09c3.576,0,6.284-1.582,8.127-4.748h0.103v4.128h4.229v-17.183    C-261.332-636.301-264.434-639.586-270.645-639.586z M-265.562-623.281c0,2.253-0.683,4.115-2.052,5.586    c-1.365,1.47-3.099,2.205-5.197,2.205c-1.531,0-2.755-0.408-3.677-1.224c-0.921-0.817-1.38-1.871-1.38-3.162    c0-1.77,0.5-3.005,1.495-3.703c0.997-0.696,2.479-1.182,4.438-1.457l6.372-0.877V-623.281z"/>
            <path fill="#000000" d="M-242.105-639.432c-1.533,0-2.917,0.52-4.156,1.56c-1.236,1.042-2.16,2.49-2.761,4.347h-0.103v-5.443    h-4.23v26.419h4.23v-13.467c0-2.942,0.605-5.264,1.818-6.967c1.213-1.703,2.723-2.554,4.53-2.554c1.392,0,2.458,0.284,3.196,0.851    v-4.385C-240.163-639.311-241.008-639.432-242.105-639.432z"/>
        </g>
        <line fill="#000000" stroke="#E65245" stroke-miterlimit="10" x1="-360.198" y1="-467.841" x2="-318.692" y2="-467.841"/>
        <rect x="-503.884" y="-911.206" fill-rule="evenodd" clip-rule="evenodd" fill="#000000" width="65.996" height="104.995"/>
        <rect x="-946.521" y="-155.099" opacity="0.95" fill-rule="evenodd" clip-rule="evenodd" fill="#000000" width="841.89" height="126.151"/>
        <rect x="-1718.312" y="378.272" fill-rule="evenodd" clip-rule="evenodd" fill="none" width="181.491" height="75.992"/>
        <circle fill-rule="evenodd" clip-rule="evenodd" fill="#000000" cx="-1400.411" cy="257.088" r="54"/><circle fill-rule="evenodd" clip-rule="evenodd" fill="#000000" cx="-1185.411" cy="257.088" r="54"/>
        <circle fill-rule="evenodd" clip-rule="evenodd" fill="#000000" cx="-1612.172" cy="258.645" r="12.511"/>
        <circle fill-rule="evenodd" clip-rule="evenodd" fill="#000000" cx="-1612.172" cy="258.645" r="11.656"/>
        <rect x="-1639.172" y="240.49" fill-rule="evenodd" clip-rule="evenodd" fill="#000000" width="5.268" height="7.662"/>
        <circle fill-rule="evenodd" clip-rule="evenodd" fill="#000000" cx="-1612.172" cy="258.645" r="11.014"/>
        <circle fill-rule="evenodd" clip-rule="evenodd" fill="#000000" cx="-1612.172" cy="258.645" r="5.268"/>
        <path fill-rule="evenodd" clip-rule="evenodd" fill="#000000" d="M-1373.402,268.099c0,3.547-2.914,6.423-6.51,6.423h-41.521   c-3.596,0-6.51-2.876-6.51-6.423v-18.604c0-3.547,2.914-6.423,6.51-6.423h41.521c3.596,0,6.51,2.876,6.51,6.423V268.099z"/>
        <circle fill-rule="evenodd" clip-rule="evenodd" fill="#000000" cx="-1393.15" cy="258.645" r="12.511"/>
        <circle fill-rule="evenodd" clip-rule="evenodd" fill="#000000" cx="-1393.15" cy="258.645" r="11.656"/>
        <rect x="-1420.15" y="240.49" fill-rule="evenodd" clip-rule="evenodd" fill="#000000" width="5.268" height="7.662"/>
        <circle fill-rule="evenodd" clip-rule="evenodd" fill="#000000" cx="-1393.15" cy="258.645" r="11.014"/>
        <circle fill-rule="evenodd" clip-rule="evenodd" fill="#000000" cx="-1393.15" cy="258.645" r="5.268"/>
        <path fill-rule="evenodd" clip-rule="evenodd" fill="#000000" d="M-1156.39,268.099c0,3.547-2.914,6.423-6.51,6.423h-41.52   c-3.596,0-6.51-2.876-6.51-6.423v-18.604c0-3.547,2.914-6.423,6.51-6.423h41.52c3.596,0,6.51,2.876,6.51,6.423V268.099z"/><circle fill-rule="evenodd" clip-rule="evenodd" fill="#000000" cx="-1176.137" cy="258.645" r="12.511"/>
        <circle fill-rule="evenodd" clip-rule="evenodd" fill="#000000" cx="-1176.137" cy="258.645" r="11.655"/>
        <rect x="-1203.137" y="240.49" fill-rule="evenodd" clip-rule="evenodd" fill="#000000" width="5.268" height="7.662"/>
        <circle fill-rule="evenodd" clip-rule="evenodd" fill="#000000" cx="-1176.137" cy="258.645" r="11.015"/>
        <circle fill-rule="evenodd" clip-rule="evenodd" fill="#000000" cx="-1176.137" cy="258.645" r="5.268"/>
        <text transform="matrix(1 0 0 1 -1574.4111 121.8008)" fill="#000000" font-family="'TwCenMT-CondensedExtraBold'" font-size="60">WIR BIETEN AN</text>
        <text transform="matrix(1 0 0 1 -1681.6118 354.1797)" fill="#000000" font-family="'TwCenMT-CondensedExtraBold'" font-size="31">KONZEPT</text>
        <rect x="-1500.823" y="378.272" fill-rule="evenodd" clip-rule="evenodd" fill="none" width="181.49" height="75.992"/>
        <rect x="-1283.335" y="378.272" fill-rule="evenodd" clip-rule="evenodd" fill="none" width="181.49" height="75.992"/>
        <rect x="-494.411" y="836.563" fill-rule="evenodd" clip-rule="evenodd" fill="none" width="320" height="198.016"/>
        <text transform="matrix(1 0 0 1 -500.4111 1438.2871)" fill="#000000" font-family="'TwCenMT-CondensedExtraBold'" font-size="45">FELIX BRÖNNIMANN</text>
        <rect x="-494.411" y="1536.563" fill-rule="evenodd" clip-rule="evenodd" fill="none" width="320" height="241.514"/>
        <rect x="-737.46" y="-109.02" fill-rule="evenodd" clip-rule="evenodd" fill="none" width="421.897" height="100.18"/>
        <circle fill-rule="evenodd" clip-rule="evenodd" fill="#000000" cx="-480.658" cy="1054.652" r="13.512"/>
        <g>
            <rect x="-482.604" y="1051.999" fill-rule="evenodd" clip-rule="evenodd" fill="#000000" width="3.972" height="11.253"/>
            <polygon fill-rule="evenodd" clip-rule="evenodd" fill="#000000" points="-480.535,1044.386 -476.618,1048.837 -472.702,1053.289     -480.535,1053.289 -488.368,1053.289 -484.452,1048.837   "/>
        </g>
        <rect x="367.589" y="836.563" fill-rule="evenodd" clip-rule="evenodd" fill="none" width="320" height="198.016"/>
        <circle fill-rule="evenodd" clip-rule="evenodd" fill="#000000" cx="381.342" cy="1054.652" r="13.512"/>
        <g>
            <rect x="379.396" y="1051.999" fill-rule="evenodd" clip-rule="evenodd" fill="#000000" width="3.972" height="11.253"/>
            <polygon fill-rule="evenodd" clip-rule="evenodd" fill="#000000" points="381.465,1044.386 385.382,1048.837 389.298,1053.289     381.465,1053.289 373.632,1053.289 377.548,1048.837   "/></g><circle fill-rule="evenodd" clip-rule="evenodd" fill="#000000" cx="-480.658" cy="1750.456" r="13.512"/>
        <g>
            <rect x="-482.604" y="1747.802" fill-rule="evenodd" clip-rule="evenodd" fill="#000000" width="3.972" height="11.253"/>
            <polygon fill-rule="evenodd" clip-rule="evenodd" fill="#000000" points="-480.535,1740.189 -476.618,1744.641 -472.702,1749.092     -480.535,1749.092 -488.368,1749.092 -484.452,1744.641   "/>
        </g>
        <rect x="327.671" y="1414.563" fill-rule="evenodd" clip-rule="evenodd" fill="none" width="320" height="241.514"/>
        <circle fill-rule="evenodd" clip-rule="evenodd" fill="#000000" cx="341.424" cy="1628.456" r="13.512"/>
        <g>
            <rect x="339.478" y="1625.802" fill-rule="evenodd" clip-rule="evenodd" fill="#000000" width="3.972" height="11.253"/>
            <polygon fill-rule="evenodd" clip-rule="evenodd" fill="#000000" points="341.547,1618.189 345.464,1622.641 349.38,1627.092     341.547,1627.092 333.714,1627.092 337.63,1622.641   "/>
        </g>
    </g>
    <g>
        <rect x="-1419.479" y="-115.65" fill="#000000" stroke="#FFFFFF" stroke-miterlimit="10" width="96.026" height="34.445"/>
        <circle opacity="0.9" fill="#000000" cx="-357.654" cy="184.77" r="118.986"/>
    </g>
</svg>