<svg xmlns="http://www.w3.org/2000/svg" xmlns:xlink="http://www.w3.org/1999/xlink" version="1.1" x="0px" y="0px" viewBox="0 0 100 125" style="enable-background:new 0 0 100 100;" xml:space="preserve"><g><path d="M16.5,28.9c-0.7,0.1-2.5,2-2.6,3.6l3.2-1.4C17.1,31.1,17.2,28.8,16.5,28.9z"/><path d="M71.4,47.2c0.1-0.4,0.1-0.8,0.1-1.2c0.4-8.7-3.9-17.9-12.7-22.6s-17.6-0.8-22.4,4.4c-4.8,5.2-15.2,4.4-17,4.4   c-1.7,0-9.6,3.1-10.4,3.7c-0.6,0.5-4.6,4-6.4,5.5c-0.5,0.4-0.7,1.1-0.6,1.8c0.3,1.5,1.5,4.4,2.9,7.4c2.1,4.4,13.1,3.7,13.1,3.7   c-3.1,1.5-6.6,1.2-6.6,1.2s0.8,1.9,1.4,4.1c0.6,2.1,2.3,6.8,0.8,7.1c-1.5,0.4-2.9,3.5-2.9,3.5l1.7-0.4l-1.4,1.5   c0,0,2.3,0.4,4.6-0.4c2.3-0.8,1.9-3.7,2.3-4.6c0.4-1,0.8-4.1,2.3-4.8c1.5-0.8,5.8,2.9,5.8,2.9c1.2,0,5.7-5.7,5.7-5.7l-2.2,4.2   c0,0-0.8,1.6-1.3,2.4c-1.5,2.3-1.5,4.4-5.8,4.3c-3.3-0.1-3.3,4.9-2.7,3.7c1.1-2.2,2.8-1.9,2.8-1.9s0,0-1.5,1.4   c-1.5,1.4,0,3.5,0,3.5s0,0,0.6-1.2c0.6-1.2,3.9-2.3,3.9-2.3s0,0-1.5,1c-1.5,1-1.2,2.7-1.2,2.7s1.2-1,2.9-1.4   c1.7-0.4,2.9-4.4,7.3-6.8c4.4-2.3,6.6-10.2,6.6-10.2s0,0,0,3.3s-3.9,6.8-3.9,6.8c7,2.8,12.1,1.1,14.5,0.2c0.2-0.5,0.7-2.6,0.1-3.5   c-0.7-1-2.5-6.4-0.9-11.5c1.6-5.1,5.2-9.2,5.2-9.2s-8.1,12.7-2.9,20.8c0,0,0.6,1.5,0,3.2c-0.2,1-4.4,2.6-6.7,3.3   c-2.5,0.8-5.4,3.1-4.2,3.5c1.2,0.4,1.4-0.2,1.9,0.2c0.6,0.4,0.4,2.5,1.7,1.9c1.4-0.6,3.7,0,3.5,1.4c-0.2,1.4,3.3-1.2,3.3-1.2   s5-4.4,7.3-5.4c2.3-1,2.7-1.2,3.3-4.8c0.2-1.1,1.1-2.7,2.3-4.6c6,4.3,20.4,0.4,20.4,0.4s-2.8,0-7.9-1.5   C71.3,59.7,71.2,50.8,71.4,47.2z M11.9,41.2c-0.8,0-1.4-0.5-1.4-1.2c0-0.6,0.6-1.2,1.4-1.2c0.8,0,1.4,0.5,1.4,1.2   C13.3,40.7,12.7,41.2,11.9,41.2z M27.2,38.8c-0.3,2.2-3.3,1.7-3.3,1.7l0.9-1l-1.9-1.2l1.3-0.6l-2.3-1.2c0,0,1.4-2.6,3.2-2.2   C26.8,34.9,27.5,36.6,27.2,38.8z"/><path d="M90.8,53.6c-3.1-0.6-11.6-0.1-17.4,0.3c0,0,0,4.9,4.3,6.2c4.2,1.4,7.9,1.9,12.5,0.8c4.6-1.2,7.1-1,7.7-3.3   C98.5,55.4,93.9,54.2,90.8,53.6z"/></g></svg>