<svg xmlns:dc="http://purl.org/dc/elements/1.1/" xmlns:cc="http://creativecommons.org/ns#" xmlns:rdf="http://www.w3.org/1999/02/22-rdf-syntax-ns#" xmlns:svg="http://www.w3.org/2000/svg" xmlns="http://www.w3.org/2000/svg" xmlns:sodipodi="http://sodipodi.sourceforge.net/DTD/sodipodi-0.dtd" xmlns:inkscape="http://www.inkscape.org/namespaces/inkscape" version="1.1" x="0px" y="0px" viewBox="0 0 100 125"><g transform="translate(0,-952.36218)"><g transform="translate(12.002351,969.35052)"><path d="m 17.043307,1.9842519 c -1.488189,2.0196851 -3.188976,4.3582677 -4.251968,6.8031496 -1.02756,2.4448815 -1.488189,4.9606295 -0.637796,7.6535435 0.141733,0.425197 -0.07087,0.992126 -0.496063,1.204724 -1.488189,1.062992 -1.8070863,2.76378 -1.523622,4.854331 3.897638,0.992126 8.362205,3.259842 11.586614,6.200787 1.133859,-1.240157 2.338583,-2.444882 3.614174,-3.366142 -0.46063,-2.444881 -3.011811,-4.003937 -4.712599,-5.846456 -0.496063,-0.46063 -0.283464,-1.417323 0.354331,-1.665355 2.905512,-0.956692 5.527559,-2.622047 7.122047,-5.102362 1.38189,-2.055118 2.019685,-4.7480311 1.629921,-8.1496059 -2.515748,2.2677165 -5.881889,3.6141732 -8.822834,5.7755909 -0.389764,0.318897 -0.992126,0.212598 -1.311024,-0.141733 C 19.27559,9.8149605 19.27559,9.2125983 19.629921,8.8582676 23.137795,5.2795275 23.42126,3.507874 24.165354,0.88582676 21.224409,-0.63779527 19.417323,-0.10629921 17.043307,1.9842519 z M 51.838583,0.88582676 c 0.744094,2.62204724 1.027559,4.39370074 4.535433,7.97244084 0.35433,0.3543307 0.35433,0.9566929 0.03543,1.3464564 -0.389764,0.141733 -0.850394,0.46063 -1.417323,0.07087 -2.551181,-1.9133854 -6.094488,-3.2952751 -8.716536,-5.7047239 -0.389763,3.4015748 0.248032,6.0944879 1.594489,8.1496059 1.629921,2.480315 4.251968,4.14567 7.15748,5.102362 0.602362,0.248032 0.814961,1.204725 0.318898,1.665355 -1.417323,1.417323 -3.578741,2.65748 -4.535434,4.712598 1.523623,0.885827 2.905512,2.338583 4.110237,3.933071 3.153543,-2.65748 7.299212,-4.712598 10.913385,-5.633858 0.177166,-1.736221 0.318898,-3.755906 -1.523622,-4.854331 -0.425196,-0.212598 -0.602362,-0.779527 -0.46063,-1.204724 0.850394,-2.692914 0.389764,-5.208662 -0.637795,-7.6535435 C 62.220472,6.555118 60.484252,4.2519685 58.925197,1.9488189 56.586614,-0.81496062 54.708661,-0.03543307 51.838583,0.88582676 z M 31.996063,19.948819 c -2.161417,0.03543 -2.976378,1.807086 -2.940945,3.649606 1.984252,-0.03543 3.933071,-0.07087 5.88189,-0.07087 -0.03543,-2.232284 -1.204725,-3.507874 -2.940945,-3.57874 z m 11.976378,0 c -2.161418,0.248031 -2.940945,1.771653 -2.940945,3.57874 1.984252,0 3.933071,0 5.88189,0 0.106299,-1.877953 -0.956693,-3.507874 -2.940945,-3.57874 z m -5.988189,1.984252 c -0.956693,0 -1.771654,0.673228 -1.984252,1.594488 l 3.968504,0 c -0.212599,-0.92126 -1.027559,-1.594488 -1.984252,-1.594488 z M 7.7952756,24.307086 C 5.527559,24.413386 3.507874,25.547244 2.2677165,28.381889 1.2047244,30.685039 0.63779527,33.625984 0.92125984,36.673228 2.019685,35.326771 3.0826772,33.874015 4.0748031,32.988189 c 1.488189,-1.240158 2.9055118,-2.019685 4.3228347,-2.019685 0.1417323,0 0.3188976,0.03543 0.4251968,0.106299 2.8346454,1.38189 5.3149604,3.366142 8.3622044,4.393701 C 17.362205,33.590551 19.169291,31.5 20.409449,30.153543 17.468504,27.637795 12.153543,24.094488 7.7952756,24.307086 z m 60.2007874,0.07087 c -3.755906,0 -8.255906,3.011811 -11.940945,5.385827 1.169291,1.700788 2.30315,3.543307 2.763779,5.704725 2.799213,-1.062993 5.279528,-2.799213 8.326772,-4.393701 0.141732,-0.07087 0.318898,-0.106299 0.46063,-0.106299 1.417323,0 2.834646,0.779527 4.322835,2.019685 0.992126,0.885826 2.055118,2.338582 3.153543,3.685039 0.283464,-3.047244 -0.318898,-5.988189 -1.38189,-8.291339 -1.417323,-2.976377 -3.437008,-4.03937 -5.704724,-4.003937 z m -38.728347,1.133859 c -3.968503,1.169291 -10.062992,7.901574 -10.133858,10.204724 0.141732,3.507874 2.586614,6.874016 4.535433,9.850394 2.622047,4.358267 7.440945,7.688976 14.314961,7.937007 6.519685,-0.106299 11.161417,-4.074803 14.279527,-8.326771 1.84252,-2.586614 4.677166,-6.023622 4.570866,-9.46063 -0.03543,-2.232283 -3.93307,-8.291338 -8.114173,-10.240157 -7.122047,0 -12.826771,-0.07087 -19.452756,0.03543 z M 8.7165354,36.070866 C 3.6141732,36.248031 1.2401575,40.145669 0.10629921,45.106299 -0.10629921,46.523622 0,47.763779 0.28346457,48.507873 c 0.28346456,0.779528 0.53149606,0.992126 1.09842523,0.992126 0.6377952,0 1.0629921,-0.318897 1.6299212,-0.921259 1.1338583,-1.594489 1.9488189,-3.366142 2.7992126,-5.244095 0.4251969,-0.850393 0.8149606,-1.73622 1.8779528,-2.055118 0.2480314,-0.03543 0.531496,0 0.7440944,0.106299 3.7204722,1.877953 7.8307082,1.877953 11.8700792,2.338583 -0.992126,-1.700787 -2.019685,-3.826772 -2.728347,-5.917323 -2.374016,-1.38189 -5.562992,-1.700787 -8.8582676,-1.73622 z m 49.6062986,1.771653 c -0.744094,1.984252 -1.594488,3.897638 -2.728346,5.846457 4.145669,-0.212599 7.972441,-0.779528 11.976378,-2.30315 0.212598,-0.106299 0.496063,-0.141732 0.744094,-0.106299 1.062993,0.318898 1.452756,1.204725 1.877953,2.055118 0.885827,1.736221 1.488189,3.649606 2.76378,5.244095 0.566929,0.602362 1.027559,0.921259 1.665354,0.921259 0.531496,0 0.814961,-0.212598 1.098425,-0.992126 0.283465,-0.744094 0.389764,-1.984251 0.141732,-3.401574 -1.169291,-5.492126 -3.57874,-8.893701 -8.574803,-9.035433 -3.011811,0 -6.519685,0.673228 -8.964567,1.771653 z m 0.496063,7.582677 c -1.629921,0.177166 -3.188976,0.283465 -4.5,0.283465 -1.771653,2.515748 -4.110236,4.925197 -6.944881,6.944882 3.011811,0.744094 6.129921,0.956693 8.787401,-1.700788 0.531496,-0.637795 1.771654,-0.177165 1.771654,0.637796 0.07087,2.303149 2.338582,4.110236 4.429134,5.244094 0.460629,0.248032 0.673228,0.885827 0.425196,1.346457 -0.921259,1.913386 -1.346456,4.110236 -1.240157,5.669291 0.141732,0.850394 0.212598,1.948819 1.346457,2.161417 1.381889,0 3.188976,-1.488189 4.464567,-3.614173 1.240157,-2.125984 1.842519,-4.748031 1.452755,-6.413386 -1.842519,-4.783464 -4.5,-7.61811 -9.992126,-10.559055 z M 17.07874,45.460629 C 11.65748,48.366141 9,51.23622 7.1574803,55.984251 c -0.3897638,1.665355 0.2480315,4.287402 1.488189,6.413386 1.2755905,2.125984 3.0826767,3.614173 4.4645667,3.614173 0.814961,-0.07087 1.311024,-0.92126 1.346457,-2.161417 0.106299,-1.559055 -0.318898,-3.755905 -1.240158,-5.669291 -0.248031,-0.46063 -0.03543,-1.098425 0.425197,-1.346457 2.161418,-1.133858 4.074803,-2.622047 4.393701,-5.244094 0,-0.814961 1.275591,-1.275591 1.807087,-0.637796 1.594488,2.019685 5.598425,2.586614 8.716535,1.700788 -2.409449,-1.559055 -4.996063,-4.216536 -6.980315,-6.874016 -1.311024,0 -2.870079,-0.141732 -4.5,-0.318898 z" style="" fill="#000000" fill-opacity="1" fill-rule="nonzero" stroke="none"/></g></g></svg>