<svg xmlns="http://www.w3.org/2000/svg" xmlns:xlink="http://www.w3.org/1999/xlink" version="1.1" x="0px" y="0px" viewBox="0 0 100 125" enable-background="new 0 0 100 100" xml:space="preserve"><g><path d="M19.041,42.217c1.69,0.334,3.377,0.612,5.013,0.815c0.719,0.089,1.439,0.164,2.163,0.23   c0.146,0.015,0.296,0.036,0.445,0.054c0.184,0.025,0.372,0.05,0.556,0.061c0.157,0.008,0.321-0.005,0.494-0.024   c0.255-0.029,0.52-0.055,0.798,0.003c1.364,0.267,2.801,0.304,4.189,0.344c0.82,0.023,1.654,0.051,2.488,0.12   c-4.349-0.89-11.965-4.719-15.253-4.976c-5.676-0.438-11.704,1.731-14.739,3.52C7.599,41.765,12.621,40.935,19.041,42.217z"/><path d="M35.143,44.295c-0.821-0.068-1.646-0.096-2.457-0.118c-1.408-0.04-2.869-0.077-4.269-0.353   c-0.206-0.042-0.427-0.021-0.654,0.005c-0.185,0.018-0.375,0.037-0.574,0.023c-0.194-0.013-0.391-0.035-0.589-0.063   c-0.142-0.018-0.286-0.037-0.427-0.051c-0.726-0.064-1.454-0.146-2.179-0.232c-1.649-0.208-3.347-0.482-5.044-0.823   C12.313,41.36,7.202,42.32,5,42.905c10.674,0.582,11.087,3.164,17.656,3.822C27.839,47.25,30.249,45.352,35.143,44.295z    M26.725,45.305c0.063-0.055,0.131-0.113,0.184-0.176c0.027-0.034,0.05-0.083,0.079-0.139c0.037-0.083,0.083-0.186,0.167-0.278   c0.089-0.097,0.24-0.102,0.338-0.013c0.097,0.089,0.105,0.241,0.013,0.338c-0.033,0.036-0.058,0.089-0.086,0.152   c-0.035,0.079-0.076,0.167-0.144,0.246c-0.071,0.084-0.152,0.157-0.236,0.228c-0.072,0.065-0.146,0.128-0.209,0.206   c-0.047,0.058-0.115,0.088-0.186,0.088c-0.053,0-0.105-0.017-0.149-0.052c-0.102-0.084-0.118-0.233-0.034-0.335   C26.539,45.469,26.631,45.386,26.725,45.305z M25.447,45.185c0.044-0.04,0.091-0.068,0.136-0.098   c0.042-0.025,0.062-0.038,0.081-0.062c0.021-0.03,0.04-0.071,0.058-0.117c0.026-0.059,0.058-0.131,0.107-0.198   c0.058-0.084,0.121-0.16,0.185-0.236l0.088-0.102c0.081-0.104,0.233-0.117,0.335-0.034c0.102,0.081,0.119,0.233,0.035,0.333   l-0.093,0.113c-0.058,0.067-0.113,0.131-0.163,0.202c-0.018,0.026-0.037,0.065-0.054,0.11c-0.03,0.068-0.064,0.144-0.122,0.22   c-0.071,0.094-0.148,0.142-0.207,0.178c-0.023,0.015-0.047,0.03-0.071,0.048c-0.092,0.08-0.173,0.19-0.262,0.308   c-0.042,0.06-0.086,0.118-0.131,0.173c-0.047,0.058-0.117,0.089-0.183,0.089c-0.055,0-0.109-0.018-0.152-0.052   c-0.104-0.084-0.119-0.236-0.035-0.338c0.041-0.05,0.079-0.102,0.122-0.157C25.219,45.434,25.319,45.297,25.447,45.185z    M24.176,45.031c0.1-0.093,0.17-0.219,0.247-0.355c0.071-0.126,0.141-0.249,0.225-0.354c0.084-0.104,0.237-0.121,0.341-0.038   c0.1,0.085,0.115,0.234,0.034,0.336c-0.07,0.086-0.128,0.189-0.183,0.289c-0.092,0.164-0.184,0.327-0.325,0.458   c-0.231,0.213-0.414,0.385-0.595,0.607c-0.047,0.061-0.116,0.086-0.186,0.086c-0.053,0-0.106-0.016-0.151-0.052   c-0.104-0.084-0.117-0.233-0.033-0.335C23.749,45.426,23.958,45.233,24.176,45.031z M16.989,43.534l-0.183,0.224   c-0.046,0.061-0.115,0.09-0.184,0.09c-0.052,0-0.107-0.018-0.152-0.055c-0.102-0.082-0.118-0.234-0.034-0.338l0.181-0.22   c0.083-0.102,0.233-0.118,0.336-0.04C17.058,43.284,17.073,43.432,16.989,43.534z M18.407,43.801   c-0.041,0.051-0.083,0.11-0.125,0.173c-0.155,0.217-0.349,0.49-0.638,0.592c-0.026,0.012-0.052,0.013-0.079,0.013   c-0.098,0-0.192-0.061-0.225-0.16c-0.043-0.123,0.02-0.261,0.146-0.304c0.146-0.048,0.285-0.247,0.406-0.419   c0.05-0.068,0.097-0.137,0.144-0.195c0.084-0.104,0.236-0.12,0.338-0.036C18.475,43.547,18.491,43.7,18.407,43.801z M19.489,44.226   c-0.064,0.101-0.125,0.205-0.206,0.293c-0.051,0.058-0.11,0.102-0.171,0.149c-0.063,0.047-0.1,0.077-0.118,0.118   c-0.042,0.086-0.129,0.134-0.215,0.134c-0.037,0-0.073-0.01-0.106-0.023c-0.118-0.059-0.167-0.202-0.107-0.318   c0.067-0.146,0.174-0.224,0.258-0.29c0.034-0.026,0.071-0.054,0.103-0.089c0.062-0.07,0.107-0.148,0.154-0.225   c0.055-0.089,0.11-0.177,0.174-0.257c0.086-0.104,0.234-0.118,0.337-0.037c0.103,0.086,0.118,0.238,0.034,0.339   C19.574,44.084,19.531,44.155,19.489,44.226z M19.879,45.361c-0.053,0-0.106-0.016-0.152-0.05   c-0.101-0.088-0.116-0.238-0.033-0.339l0.861-1.056c0.081-0.1,0.233-0.118,0.335-0.034c0.102,0.082,0.118,0.233,0.035,0.337   l-0.862,1.056C20.018,45.331,19.947,45.361,19.879,45.361z M21.599,45.213l-0.284,0.347c-0.047,0.059-0.115,0.09-0.186,0.09   c-0.05,0-0.104-0.02-0.152-0.055c-0.1-0.083-0.115-0.234-0.031-0.338l0.285-0.348c0.083-0.1,0.233-0.118,0.337-0.034   C21.67,44.959,21.686,45.108,21.599,45.213z M21.883,44.726c-0.055,0-0.104-0.013-0.152-0.051   c-0.102-0.083-0.118-0.234-0.034-0.335l0.3-0.371c0.083-0.102,0.233-0.116,0.334-0.034c0.102,0.085,0.119,0.233,0.035,0.335   l-0.3,0.37C22.022,44.7,21.952,44.726,21.883,44.726z M22.518,45.876c-0.047,0.055-0.115,0.088-0.186,0.088   c-0.052,0-0.107-0.017-0.149-0.054c-0.102-0.083-0.115-0.236-0.034-0.338c0.036-0.044,0.076-0.089,0.117-0.134   c0.101-0.112,0.197-0.215,0.226-0.319c0.039-0.147,0.288-0.427,0.423-0.477c0.076-0.031,0.118-0.092,0.191-0.209   c0.044-0.073,0.089-0.148,0.148-0.213c0.085-0.104,0.234-0.114,0.336-0.03c0.1,0.084,0.114,0.238,0.029,0.335   c-0.042,0.052-0.074,0.104-0.107,0.157c-0.087,0.142-0.197,0.321-0.43,0.405c-0.005,0.014-0.116,0.137-0.139,0.182   c-0.052,0.191-0.194,0.351-0.322,0.492C22.584,45.798,22.549,45.834,22.518,45.876z"/><path d="M27.717,67.948c-2.062-0.383-4.7-0.697-7.728-0.207c4.231,0.241,8.525,1.841,10.393,3.213   c1.196,0.878,3.409,1.813,6.034,1.813c0.756,0,1.471-0.068,2.063-0.196c2.866-0.645,4.22-2.864,6.191-6.431   c0.286-0.52,0.577-1.046,0.874-1.567c0.171-0.299,0.41-0.775,0.711-1.378l0.053-0.11c0.829-1.666,1.946-3.88,3.247-5.881   c-0.116-0.084-0.238-0.16-0.332-0.268c-0.121,0.173-0.254,0.326-0.392,0.464c-0.094,0.1-0.192,0.196-0.283,0.307   c-0.346,0.416-0.571,0.819-0.829,1.283c-0.088,0.155-0.177,0.317-0.274,0.482c-0.534,0.917-1.265,2.175-1.946,2.743   c-0.044,0.039-0.097,0.058-0.152,0.058c-0.071,0-0.139-0.031-0.184-0.087c-0.084-0.1-0.071-0.254,0.029-0.335   c0.616-0.519,1.352-1.781,1.842-2.62c0.092-0.162,0.182-0.322,0.266-0.472c0.261-0.469,0.507-0.909,0.881-1.359   c0.1-0.121,0.205-0.229,0.309-0.333c0.17-0.17,0.308-0.335,0.414-0.528c-0.142-0.185-0.281-0.38-0.418-0.588   c-1.706,1.342-3.562,2.175-5.903,3.223l-0.838,0.377c-0.032,0.011-0.065,0.019-0.097,0.019c-0.091,0-0.179-0.053-0.217-0.142   c-0.055-0.117,0-0.262,0.118-0.316l0.838-0.375c2.336-1.041,4.179-1.864,5.85-3.189c-0.062-0.104-0.127-0.208-0.182-0.312   l-0.389,0.175c-0.662,0.288-1.32,0.603-1.982,0.916c-1.489,0.713-3.03,1.448-4.599,1.892c-0.024,0.008-0.044,0.011-0.068,0.011   c-0.102,0-0.199-0.068-0.228-0.174c-0.037-0.131,0.04-0.259,0.165-0.296c1.533-0.435,3.054-1.16,4.523-1.861   c0.667-0.32,1.333-0.635,1.998-0.928l0.385-0.167c-0.027-0.066-0.067-0.139-0.089-0.202c-0.088-0.258-0.164-0.53-0.231-0.808   c-2.597-0.086-5.014-0.891-7.354-1.679l-0.093-0.031c-0.125-0.045-0.193-0.179-0.151-0.305c0.041-0.125,0.176-0.19,0.304-0.149   l0.094,0.032c2.37,0.799,4.625,1.529,7.09,1.632c-0.033-0.185-0.054-0.371-0.072-0.556c-1.474-0.183-3.134-0.527-4.566-0.967   l-0.101-0.034c-0.903-0.274-1.817-0.561-2.724-0.812c-0.123-0.034-0.199-0.167-0.165-0.293c0.037-0.128,0.165-0.202,0.296-0.167   c0.909,0.254,1.826,0.537,2.735,0.819l0.1,0.029c1.358,0.416,2.983,0.759,4.4,0.94c-0.002-0.129-0.011-0.259-0.004-0.385   c0.005-0.088,0.019-0.177,0.032-0.265c-0.343-0.072-0.667-0.131-0.973-0.179c-0.691-0.109-1.407-0.226-2.434-0.594   c-0.377-0.139-0.702-0.278-1.044-0.43c-0.583-0.257-1.19-0.521-2.165-0.81c-0.126-0.037-0.201-0.17-0.163-0.297   c0.041-0.127,0.17-0.201,0.299-0.161c1.004,0.293,1.65,0.582,2.22,0.831c0.334,0.146,0.652,0.283,1.013,0.414   c0.988,0.356,1.648,0.463,2.346,0.576c0.307,0.048,0.635,0.107,0.981,0.18c0.054-0.279,0.101-0.558,0.077-0.833   c-0.001-0.014-0.004-0.024-0.006-0.038c-6.1-1.501-12.842-4.912-18.214-1.917c-2.781,1.551-5.462,3.215-6.049,6.374   c-0.708,3.774-0.681,8.014-5.361,12.208c4.908-3.458,6.071-10.49,6.126-10.835l0.026-0.181c0.079-0.49,0.155-0.97,0.241-1.443   c0.196-1.038,0.748-1.918,1.737-2.77c0.099-0.087,0.249-0.071,0.335,0.028s0.073,0.249-0.023,0.336   c-0.917,0.786-1.402,1.556-1.577,2.497c-0.089,0.466-0.161,0.942-0.238,1.427l-0.029,0.179c-0.079,0.51-0.548,3.19-2.023,6.043   c-0.989,1.91-2.194,3.43-3.589,4.579c3.336-2.212,5.502-6.318,6.225-8.98c0.034-0.125,0.164-0.201,0.293-0.17   c0.127,0.039,0.202,0.17,0.17,0.296c-0.757,2.774-3.039,7.068-6.565,9.338c3.925-1.18,7.604-5.979,9.116-8.602   c2.469-4.277,6.014-5.671,10.816-4.277c0.398,0.115,2.776,0.654,4.688,0.982c0.13,0.023,0.216,0.146,0.195,0.274   c-0.021,0.131-0.142,0.221-0.275,0.197c-1.913-0.328-4.289-0.865-4.739-0.993c-4.566-1.331-7.928-0.006-10.27,4.052   c-0.148,0.253-2.691,4.588-6.233,7.188c0.479-0.177,0.962-0.342,1.449-0.497c0.794-0.249,1.548-0.565,2.345-0.901l0.115-0.05   c0.278-0.109,0.854-0.445,1.462-0.796c0.918-0.532,1.962-1.132,2.5-1.297c0.7-0.215,1.406-0.556,2.087-0.886   c0.35-0.168,0.698-0.335,1.042-0.484c1.113-0.493,2.229-0.98,3.347-1.47l0.51-0.223c0.41-0.179,0.828-0.403,1.266-0.643   c0.314-0.167,0.627-0.34,0.944-0.497c0.115-0.058,0.261-0.011,0.321,0.109c0.058,0.118,0.008,0.263-0.11,0.322   c-0.311,0.152-0.621,0.317-0.928,0.487c-0.427,0.23-0.871,0.47-1.302,0.658l-0.508,0.225c-1.116,0.485-2.232,0.973-3.349,1.465   c-0.338,0.149-0.681,0.312-1.024,0.479c-0.698,0.338-1.422,0.687-2.155,0.914c-0.483,0.149-1.547,0.758-2.401,1.25   c-0.647,0.377-1.208,0.699-1.512,0.828l-0.119,0.047c-0.81,0.338-1.571,0.658-2.388,0.914c-0.998,0.316-1.981,0.689-2.952,1.088   c2.742-0.291,5.133,0.019,6.868,0.341c0.131,0.023,0.215,0.146,0.191,0.274C27.967,67.883,27.847,67.979,27.717,67.948z    M42.73,61.584c0.72-0.746,1.43-1.294,2.054-1.781c0.721-0.556,1.289-0.996,1.579-1.507c0.065-0.115,0.211-0.154,0.326-0.092   c0.114,0.063,0.157,0.21,0.09,0.328c-0.336,0.595-0.971,1.084-1.7,1.65c-0.613,0.472-1.309,1.011-2.005,1.731   c-0.047,0.053-0.107,0.076-0.173,0.076c-0.059,0-0.119-0.023-0.164-0.07C42.641,61.83,42.639,61.679,42.73,61.584z M39.12,50.697   c-1.915-0.495-3.409-0.728-4.702-0.728c-1.413,0-2.605,0.283-3.64,0.859c-2.882,1.608-4.41,2.756-4.745,4.561   c-0.068,0.346-0.125,0.699-0.18,1.061c-0.02,0.115-0.122,0.199-0.236,0.199c-0.012,0-0.025,0-0.038-0.003   c-0.128-0.021-0.22-0.142-0.199-0.272c0.058-0.36,0.118-0.723,0.182-1.073c0.371-1.991,1.97-3.207,4.982-4.889   c1.11-0.621,2.375-0.919,3.874-0.919c1.335,0,2.865,0.236,4.821,0.744c0.128,0.031,0.205,0.163,0.171,0.288   C39.379,50.655,39.25,50.733,39.12,50.697z M43.448,54.462c-1.264-0.134-1.972-0.372-3.047-0.736l-0.495-0.168   c-0.126-0.039-0.194-0.176-0.152-0.302c0.043-0.125,0.178-0.188,0.304-0.151l0.498,0.168c1.043,0.354,1.732,0.587,2.945,0.715   c0.275,0.028,0.605,0.103,0.955,0.181c0.539,0.121,1.161,0.246,1.665,0.252c0.139-0.019,0.24,0.107,0.242,0.238   c0.001,0.144-0.125,0.243-0.272,0.243c-0.564,0-1.188-0.142-1.74-0.267C44.014,54.562,43.696,54.487,43.448,54.462z M40.565,56.07   c0.347,0.117,0.817,0.091,1.274,0.067c0.181-0.008,0.356-0.018,0.519-0.018c0.133,0,0.238,0.107,0.238,0.237   c0,0.131-0.105,0.238-0.238,0.238c-0.155,0-0.322,0.011-0.495,0.019c-0.188,0.011-0.385,0.019-0.582,0.019   c-0.304,0-0.607-0.021-0.869-0.11c-0.127-0.042-0.191-0.178-0.151-0.306C40.304,56.094,40.44,56.028,40.565,56.07z M31.854,68.359   c1.078,0.238,2.201,0.453,3.093,0.377c3.663-0.28,4.061-1.045,5.728-4.271c0.354-0.687,0.728-1.278,1.159-1.842   c0.081-0.104,0.232-0.123,0.335-0.044c0.106,0.078,0.125,0.23,0.046,0.335c-0.414,0.542-0.773,1.108-1.101,1.742   c-1.694,3.275-2.201,4.258-6.13,4.558c-0.134,0.013-0.271,0.016-0.412,0.016c-0.807,0-1.721-0.164-2.822-0.402   c-0.128-0.026-0.209-0.151-0.182-0.285C31.596,68.414,31.725,68.336,31.854,68.359z M29.031,67.72   c0.532,0.118,1.045,0.233,1.538,0.349c0.128,0.031,0.208,0.16,0.181,0.286c-0.026,0.112-0.127,0.186-0.235,0.186   c-0.02,0-0.035,0-0.053-0.005c-0.493-0.113-1.002-0.233-1.533-0.346c-0.13-0.026-0.21-0.155-0.184-0.283   C28.774,67.775,28.9,67.694,29.031,67.72z"/><path d="M13.851,17.848l0.516,0.519c0.268,0.268,0.487,0.493,0.794,0.647c0.372,0.181,1.252,1.197,1.415,1.53   c0.207,0.437,0.526,0.687,0.867,0.947c0.251,0.195,0.509,0.397,0.745,0.683c0.224,0.277,0.408,0.584,0.583,0.888   c0.163,0.271,0.33,0.558,0.529,0.807c1.189,1.491,2.371,3.094,3.607,4.905c4.427,6.471,9.554,10.544,12.819,12.708   c-4.079-5.267-6.026-13.001-8.323-16.843c-3.938-6.6-13.899-9.21-17.694-11.549c0.76,1.111,1.681,2.234,2.824,3.422   C12.968,16.962,13.408,17.405,13.851,17.848z"/><path d="M41.67,43.345c1.583,1.193,3.833,3.097,6.12,4.387c0.069-0.183,0.163-0.354,0.242-0.533   c-0.908-0.389-1.64-1.052-2.345-1.718c-0.646-0.608-1.318-1.242-2.124-1.643c-0.118-0.055-0.167-0.199-0.11-0.317   c0.06-0.121,0.202-0.168,0.322-0.109c0.87,0.428,1.566,1.086,2.24,1.72c0.706,0.667,1.384,1.284,2.215,1.632   c0.158-0.312,0.343-0.609,0.538-0.901c-1.554-0.917-3.151-2.142-4.377-3.101c-0.444-0.348-0.854-0.667-1.224-0.95   c-1.73-1.302-7.338-6.021-6.82-12.046c0.011-0.131,0.114-0.23,0.259-0.217c0.13,0.012,0.228,0.125,0.218,0.259   c-0.498,5.778,4.949,10.359,6.628,11.622c0.375,0.288,0.787,0.608,1.225,0.948c1.226,0.959,2.822,2.183,4.348,3.083   c0.001-0.001,0.001-0.003,0.003-0.004c0.113-0.151,0.236-0.276,0.36-0.396c-0.434-0.913-1.364-1.525-2.359-2.167   c-0.742-0.479-1.509-0.973-2.046-1.612c-0.086-0.101-0.073-0.249,0.029-0.337c0.1-0.083,0.251-0.07,0.337,0.029   c0.491,0.584,1.193,1.041,1.938,1.517c0.97,0.624,1.95,1.285,2.461,2.257c0.255-0.202,0.518-0.398,0.781-0.614   c-0.037-0.026-0.069-0.063-0.086-0.111c-0.365-1.026-3.605-3.401-4.823-4.234c-0.11-0.072-0.139-0.223-0.064-0.332   c0.074-0.107,0.224-0.135,0.331-0.064c0.46,0.312,4.458,3.068,4.991,4.438c0.36-0.357,0.479-0.679,0.696-0.961   c-0.018-0.075-0.037-0.152-0.057-0.228c-0.15-0.628-0.293-1.223-0.639-1.779c-0.208-0.34-0.742-0.931-1.252-1.504   c-0.585-0.648-1.136-1.264-1.366-1.656c-0.067-0.115-0.029-0.262,0.085-0.33c0.11-0.064,0.261-0.027,0.328,0.088   c0.204,0.352,0.768,0.976,1.307,1.579c0.55,0.615,1.073,1.194,1.306,1.572c0.378,0.612,0.538,1.264,0.692,1.892   c0.095-0.06,0.2-0.117,0.331-0.171c0.074-0.03,0.157-0.055,0.233-0.084l-2.306-5.887c-0.047-0.122,0.012-0.262,0.134-0.309   c0.123-0.053,0.262,0.008,0.309,0.133l2.313,5.901c0.125-0.04,0.258-0.074,0.389-0.11c-0.207-0.788-0.392-1.724-0.485-2.517   c-0.034-0.287-0.05-0.709-0.067-1.201c-0.035-0.907-0.078-2.033-0.258-2.521c-0.047-0.122,0.016-0.262,0.143-0.307   c0.121-0.043,0.262,0.019,0.307,0.144c0.205,0.554,0.248,1.677,0.285,2.667c0.016,0.458,0.033,0.895,0.065,1.165   c0.089,0.759,0.272,1.682,0.474,2.446c0.495-0.115,1.016-0.2,1.544-0.262c-0.137-1.616,1.018-6.106,1.073-6.306   c0.031-0.128,0.157-0.207,0.288-0.173c0.128,0.033,0.204,0.166,0.173,0.292c-0.35,1.341-1.174,4.916-1.051,6.136   c0.379-0.032,0.755-0.045,1.127-0.046c0.026-0.462,0.07-0.928,0.118-1.381c0.025-0.223,0.052-0.44,0.073-0.66   c0.018-0.217,0.031-0.426,0.042-0.63c0.018-0.351,0.033-0.711,0.107-1.099c0.023-0.146,0.081-0.351,0.144-0.576   c0.129-0.464,0.322-1.166,0.223-1.417c-0.05-0.127,0.011-0.263,0.131-0.317c0.123-0.043,0.263,0.015,0.312,0.135   c0.148,0.377,0.002,0.977-0.207,1.728c-0.058,0.208-0.107,0.398-0.137,0.533c-0.065,0.355-0.078,0.685-0.097,1.035   c-0.011,0.214-0.021,0.427-0.045,0.653c-0.021,0.219-0.044,0.444-0.068,0.667c-0.05,0.439-0.093,0.887-0.119,1.33   c0.408,0.015,0.793,0.055,1.164,0.109c-0.063-2.415,0.113-4.446,0.294-5.917c0.016-0.131,0.14-0.223,0.265-0.209   c0.132,0.017,0.226,0.137,0.21,0.266c-0.178,1.473-0.356,3.516-0.287,5.942c0.018,0.004,0.038,0.005,0.054,0.009   c0.226,0.051,0.448,0.13,0.67,0.205c-0.004-0.261-0.011-0.535-0.02-0.819c-0.021-0.572-0.04-1.112-0.014-1.479   c0.034-0.482,0.092-0.985,0.146-1.48c0.079-0.723,0.155-1.408,0.168-1.993c0-0.127,0.107-0.232,0.238-0.232h0.003   c0.134,0.003,0.235,0.11,0.235,0.244c-0.013,0.605-0.089,1.295-0.17,2.032c-0.055,0.491-0.11,0.986-0.145,1.463   c-0.023,0.339-0.005,0.894,0.014,1.428c0.012,0.353,0.021,0.698,0.022,1.01c0.267,0.111,0.533,0.229,0.788,0.367   c-0.564-9.445,3.219-14.834-0.057-20.432c-2.012-3.442-5.637-5.148-10.663-5.393c-2.281-0.111-4.276-0.867-6.34-1.999   c0.28,0.204,0.571,0.436,0.871,0.714c1.856,1.706,5.337,2.117,7.417,2.363c0.996,0.119,3.135,0.534,3.854,0.933   c0.118,0.065,0.16,0.209,0.095,0.328c-0.042,0.079-0.126,0.12-0.207,0.12c-0.042,0-0.081-0.008-0.118-0.029   c-0.601-0.334-2.611-0.747-3.68-0.877c-2.139-0.251-5.715-0.673-7.682-2.488c-0.566-0.522-1.115-0.881-1.594-1.198   c-0.229-0.15-0.441-0.297-0.648-0.447c4.189,4.478,5.815,4.8,8.129,4.912c4.422,0.218,7.335,1.635,8.913,4.331   c1.242,2.123,1.229,4.217,0.772,7.345c-0.018,0.118-0.117,0.203-0.235,0.203c-0.014,0-0.023-0.001-0.034-0.004   c-0.131-0.016-0.22-0.139-0.202-0.27c0.44-3.017,0.456-5.033-0.715-7.032c-1.488-2.549-4.277-3.885-8.522-4.095   c-2.571-0.126-4.289-0.66-8.146-4.733c2.431,4.586,5.204,6.34,7.626,7.442c3.628,1.643,4.976,2.662,5.548,4.185   c0.426,1.125,0.809,3.238,0.22,6.92c-0.123,0.768-0.324,1.478-0.52,2.167c-0.395,1.389-0.77,2.704-0.531,4.443   c0.019,0.131-0.073,0.251-0.201,0.27c-0.014,0.005-0.023,0.005-0.037,0.005c-0.116,0-0.22-0.089-0.235-0.208   c-0.252-1.842,0.151-3.263,0.545-4.641c0.193-0.676,0.392-1.371,0.508-2.112c0.57-3.579,0.21-5.607-0.193-6.678   c-0.521-1.383-1.811-2.334-5.303-3.919c-2.303-1.047-4.911-2.668-7.263-6.614c0.116,0.299,0.236,0.593,0.352,0.892   c0.807,2.102,1.646,4.264,2.647,6.266c0.402,0.803,0.536,1.471,0.694,2.244c0.043,0.213,0.089,0.435,0.142,0.671   c0.219,0.982,0.716,1.844,1.238,2.761c0.367,0.642,0.744,1.303,1.014,2.004c0.282,0.728,0.595,1.457,0.896,2.156   c0.203,0.477,0.406,0.951,0.603,1.435c0.051,0.122-0.008,0.261-0.128,0.309c-0.029,0.015-0.063,0.019-0.092,0.019   c-0.094,0-0.184-0.055-0.22-0.149c-0.195-0.476-0.401-0.952-0.603-1.421c-0.303-0.711-0.618-1.443-0.901-2.174   c-0.255-0.668-0.626-1.314-0.985-1.94c-0.516-0.905-1.051-1.843-1.289-2.894c-0.054-0.236-0.098-0.464-0.142-0.679   c-0.15-0.744-0.28-1.383-0.655-2.125c-1.014-2.022-1.853-4.201-2.666-6.31c-0.113-0.294-0.23-0.583-0.344-0.875   c1.1,5.353,0.25,9.677-0.242,12.173c-0.153,0.765-0.274,1.374-0.307,1.813c-0.121,1.661,0.613,4.305,4.79,7.454   c0.396,0.295,0.78,0.595,1.192,0.913l0.076,0.062c0.729,0.571,1.394,1.27,2.963,3.121c0.086,0.101,0.073,0.251-0.027,0.336   c-0.043,0.038-0.101,0.057-0.153,0.057c-0.068,0-0.134-0.028-0.184-0.086c-1.546-1.818-2.195-2.505-2.892-3.05l-0.079-0.06   c-0.405-0.317-0.786-0.616-1.135-0.875c-4.397-3.316-5.156-6.128-5.026-7.904c0.036-0.471,0.156-1.087,0.313-1.873   c0.502-2.544,1.258-6.513,0.327-11.492c0.066,2.126-0.329,4.15-0.947,5.141c-0.044,0.076-0.121,0.114-0.202,0.114   c-0.042,0-0.086-0.012-0.126-0.037c-0.113-0.069-0.146-0.22-0.076-0.33c0.724-1.163,1.131-3.965,0.718-6.529   c-0.15,1.395-0.457,2.829-0.708,3.719c-0.498,1.757-1.452,3.225-2.375,4.645c-0.621,0.957-1.263,1.944-1.772,3.025   c-0.042,0.088-0.128,0.138-0.217,0.138c-0.033,0-0.068-0.009-0.102-0.024c-0.118-0.055-0.169-0.196-0.113-0.317   c0.524-1.108,1.175-2.111,1.804-3.081c0.947-1.454,1.838-2.831,2.317-4.519c0.2-0.708,0.434-1.77,0.593-2.874   c-1.074,3.96-5.358,8.209-6.22,12.087C32.616,35.168,38.499,40.955,41.67,43.345z M59.427,32.309   c0.021-0.13,0.149-0.235,0.277-0.214c0.131,0.019,0.223,0.125,0.199,0.254c-0.11,0.694-0.218,1.384-0.322,2.101   c-0.013,0.118-0.118,0.206-0.235,0.206c-0.014,0-0.024-0.001-0.034-0.001c-0.131-0.021-0.223-0.143-0.205-0.271   C59.212,33.662,59.321,32.97,59.427,32.309z M39.374,23.083c0.072-0.112,0.223-0.152,0.337-0.078   c0.109,0.072,0.144,0.214,0.072,0.326l-0.005,0.008c-1.141,1.771-2.321,3.597-2.722,5.092c-0.029,0.106-0.127,0.177-0.23,0.177   c-0.022,0-0.042-0.003-0.063-0.009c-0.128-0.036-0.203-0.167-0.168-0.293C37.016,26.74,38.216,24.88,39.374,23.083z"/><path d="M62.018,44.105c-1.255-1.238-3.291-1.768-5.29-1.685c-1.869,0.082-3.708,0.694-4.858,1.761   c-0.652,0.603-1.409,1.13-1.881,1.897c-0.577,0.933-0.778,2.249-1.161,3.276c-0.959,2.561-0.433,5.49,1.668,7.318   c0.999,0.87,2.147,1.522,3.299,2.094c1.302,0.642,3.538,1.053,4.908,0.438c0.915-0.412,1.868-0.81,2.699-1.318   c0.796-0.484,1.328-1.26,1.839-2.014c0.605-0.889,1.362-1.764,1.564-2.851c0.201-1.082,0.062-2.271,0.016-3.364   C64.714,47.26,63.691,45.756,62.018,44.105z M61.066,47.491c0.11-0.077,0.26-0.051,0.336,0.059c0.416,0.592,0.646,1.07,0.849,1.776   c0.036,0.126-0.034,0.257-0.163,0.299c-0.023,0-0.044,0.005-0.067,0.005c-0.103,0-0.199-0.068-0.229-0.17   c-0.188-0.66-0.393-1.085-0.78-1.635C60.936,47.715,60.962,47.566,61.066,47.491z M59.586,46.149   c0.074-0.11,0.223-0.137,0.33-0.062c0.218,0.148,0.428,0.314,0.632,0.498c0.097,0.088,0.107,0.237,0.016,0.339   C60.52,46.977,60.453,47,60.388,47c-0.058,0-0.112-0.021-0.159-0.06c-0.187-0.17-0.386-0.324-0.582-0.458   C59.536,46.408,59.508,46.257,59.586,46.149z M58.717,55.811c0.184-0.204,0.372-0.419,0.73-0.475   c0.115-0.018,0.223-0.013,0.312-0.01c0.152,0.013,0.224,0.01,0.305-0.056c0.982-0.788,1.792-2.396,1.92-3.824   c0.011-0.134,0.121-0.238,0.26-0.218c0.131,0.011,0.23,0.128,0.217,0.26c-0.139,1.543-1.021,3.29-2.101,4.16   c-0.226,0.178-0.448,0.167-0.626,0.157c-0.073-0.003-0.145-0.008-0.215,0.005c-0.179,0.026-0.278,0.128-0.448,0.319l-0.05,0.053   c-0.396,0.435-0.831,0.484-1.294,0.528l-0.199,0.023c-0.304,0.037-0.605,0.056-0.909,0.056c-0.179,0-0.356-0.008-0.532-0.019   c-0.809-0.061-1.765-0.21-2.729-0.854l-0.267-0.173c-0.405-0.26-0.827-0.529-1.142-0.948c-0.389-0.517-0.652-1.113-0.857-1.627   c-0.051-0.129,0.007-0.262,0.133-0.31c0.12-0.052,0.26,0.008,0.309,0.132c0.197,0.487,0.443,1.045,0.797,1.517   c0.264,0.351,0.633,0.587,1.016,0.833l0.275,0.178c0.702,0.469,1.428,0.697,2.502,0.775c0.45,0.031,0.901,0.021,1.347-0.034   l0.204-0.023c0.435-0.044,0.721-0.076,0.993-0.374L58.717,55.811z M52.08,52.468c-0.052-0.123,0.008-0.26,0.129-0.312   c0.125-0.048,0.265,0.013,0.314,0.134c0.152,0.385,0.349,0.825,0.627,1.194c0.078,0.103,0.057,0.254-0.048,0.33   c-0.044,0.034-0.095,0.053-0.146,0.053c-0.068,0-0.142-0.034-0.188-0.098C52.455,53.358,52.246,52.879,52.08,52.468z    M57.182,54.854l0.167-0.021c0.33-0.036,0.551-0.058,0.75-0.277c0.091-0.1,0.243-0.107,0.34-0.021   c0.098,0.089,0.105,0.24,0.016,0.338c-0.324,0.358-0.681,0.396-1.053,0.438l-0.162,0.021c-0.241,0.026-0.482,0.045-0.724,0.045   c-0.144,0-0.288-0.011-0.43-0.019c-0.646-0.05-1.414-0.168-2.191-0.687c-0.111-0.076-0.14-0.22-0.067-0.333   c0.075-0.107,0.222-0.141,0.331-0.062c0.553,0.367,1.122,0.542,1.965,0.605C56.472,54.904,56.827,54.896,57.182,54.854z    M51.387,46.46c0.149-0.186,0.49-0.469,0.82-0.75c0.191-0.162,0.367-0.309,0.453-0.396c0.5-0.498,1.467-0.868,1.857-1.003   c0.553-0.191,1.181-0.411,1.729-0.487c0.131-0.013,0.251,0.073,0.272,0.205c0.016,0.129-0.076,0.251-0.202,0.267   c-0.506,0.071-1.107,0.282-1.592,0.451c-0.799,0.28-1.426,0.613-1.726,0.908c-0.091,0.09-0.276,0.25-0.483,0.423   c-0.284,0.241-0.638,0.537-0.76,0.685c-1.015,1.253-1.105,3.48-0.871,4.376c0.033,0.128-0.041,0.257-0.17,0.291   c-0.02,0.008-0.043,0.008-0.062,0.008c-0.106,0-0.202-0.068-0.23-0.179C50.132,50.144,50.306,47.794,51.387,46.46z M61.158,56.538   c-0.191,0.149-0.587,0.359-0.97,0.563c-0.223,0.115-0.419,0.22-0.519,0.283c-0.6,0.388-1.619,0.545-2.03,0.595l-0.086,0.013   c-0.446,0.05-0.934,0.112-1.389,0.112c-0.107,0-0.215-0.002-0.317-0.013c-1.089-0.078-1.928-0.265-2.986-0.975l-0.22-0.146   c-0.526-0.346-1.12-0.735-1.509-1.255c-0.082-0.109-0.17-0.22-0.254-0.33c-0.338-0.43-0.658-0.838-0.876-1.38   c-0.048-0.123,0.01-0.263,0.132-0.312c0.123-0.048,0.261,0.01,0.312,0.133c0.192,0.475,0.491,0.862,0.81,1.266   c0.085,0.112,0.173,0.223,0.26,0.341c0.34,0.447,0.896,0.817,1.388,1.139l0.226,0.149c0.975,0.652,1.72,0.817,2.753,0.896   c0.495,0.034,1.087-0.036,1.611-0.104l0.092-0.008c0.786-0.094,1.47-0.291,1.823-0.519c0.11-0.071,0.322-0.184,0.556-0.31   c0.33-0.173,0.741-0.39,0.894-0.513c1.223-0.979,2.104-2.646,2.247-4.238c0.014-0.134,0.124-0.233,0.26-0.218   c0.134,0.011,0.23,0.131,0.218,0.262C63.427,53.686,62.477,55.478,61.158,56.538z"/><path d="M63.314,44.264c0.058-0.161,0.107-0.309,0.145-0.433c0.688-2.313,1.307-3.898,2.583-5.644   c0.081-0.106,0.23-0.131,0.335-0.054c0.107,0.079,0.131,0.228,0.053,0.335c-1.236,1.69-1.837,3.233-2.516,5.497   c-0.06,0.207-0.158,0.481-0.27,0.775c0.139,0.205,0.284,0.407,0.479,0.592c0.104,0.1,0.22,0.197,0.335,0.295   c0.067-0.209,0.129-0.411,0.184-0.593c2.072-6.923,6.265-10.886,11.496-10.886c2.654,0,5.19,1.29,7.538,2.688   c2.971,1.766,5.599,1.675,7.923,1.597c0.899-0.03,1.773-0.055,2.614,0.029c-0.763-0.136-1.562-0.192-2.418-0.247   c-1.756-0.11-3.744-0.239-5.997-1.171c-0.12-0.05-0.181-0.188-0.129-0.314c0.048-0.118,0.189-0.178,0.312-0.125   c2.18,0.904,4.126,1.027,5.842,1.134c0.959,0.061,1.853,0.119,2.704,0.293c-2.399-1.019-6.204-0.529-9.686-3.081   c-7.952-5.822-18.197-3.827-22.288,8.519c0.194,0.177,0.393,0.348,0.566,0.545C63.191,44.097,63.253,44.181,63.314,44.264z    M80.302,33.57c1.219,0.303,2.424,1.141,3.221,1.695c0.243,0.17,0.453,0.317,0.615,0.413c0.194,0.117,0.393,0.227,0.587,0.332   c0.118,0.062,0.16,0.207,0.097,0.322c-0.044,0.081-0.126,0.129-0.209,0.129c-0.04,0-0.079-0.012-0.115-0.033   c-0.199-0.105-0.404-0.22-0.605-0.343c-0.168-0.1-0.388-0.249-0.645-0.431c-0.768-0.531-1.929-1.338-3.061-1.621   c-0.128-0.032-0.207-0.163-0.175-0.29C80.045,33.616,80.177,33.536,80.302,33.57z"/><path d="M75.969,38.624c0.479,0,1.04-0.089,1.632-0.181c1.09-0.165,2.321-0.356,3.543-0.094c5.634,1.208,9.67,0.814,12.164,0.539   c-0.542-0.01-1.104,0.005-1.692,0.027c-2.385,0.081-5.091,0.173-8.183-1.667c-2.287-1.359-4.755-2.62-7.294-2.62   c-5.006,0-9.03,3.835-11.032,10.529c-0.074,0.247-0.162,0.525-0.257,0.813c0.253,0.233,0.479,0.488,0.601,0.798   c0.069,0.175,0.097,0.375,0.119,0.583c1.366-0.859,3.511-2.013,6.658-3.215c0.12-0.049,0.26,0.013,0.31,0.136   c0.044,0.125-0.017,0.262-0.14,0.309c-3.255,1.246-5.419,2.435-6.753,3.289c0.004,0.017,0.004,0.035,0.007,0.052   c0.065,0.269,0.176,0.549,0.276,0.831c0.507-0.067,1.016-0.087,1.513-0.082h0.317c1.606,0,3.028,0.55,4.239,1.061   c0.12,0.052,0.178,0.194,0.126,0.312c-0.04,0.092-0.126,0.144-0.221,0.144c-0.031,0-0.062-0.002-0.092-0.016   c-1.165-0.498-2.538-1.023-4.053-1.023h-0.319c-0.452-0.005-0.912,0.012-1.364,0.064c0.041,0.152,0.072,0.303,0.083,0.454   c0.004,0.045,0.003,0.101,0.004,0.148c0.106-0.004,0.212-0.025,0.318-0.025c2.429,0,4.417,0.877,6.526,1.805   c1.976,0.867,4.008,1.76,6.738,2.093c0.393,0.047,0.783,0.068,1.16,0.068c4.192,0,6.553-2.879,7.219-4.403   c0.312-0.712,0.439-1.788,0.576-2.92c0.159-1.338,1.493-5.044,3.846-6.751c-3.511,0.699-6.082,2.585-7.66,5.633   c-0.223,0.43-0.815,2.135-0.881,2.35c-0.055,0.43-0.393,1.934-2.273,2.39c-0.456,0.11-1.745,0.246-1.941,0.254   c-0.317,0.013-0.624,0.021-0.925,0.021c-1.161,0-2.254-0.146-3.773-0.817c-1.231-0.54-5.18-1.733-7.632-1.452   c-0.12,0-0.251-0.081-0.267-0.212c-0.014-0.134,0.081-0.249,0.212-0.266c2.555-0.272,6.612,0.939,7.881,1.494   c1.82,0.803,2.95,0.821,4.482,0.753c0.184-0.005,1.428-0.139,1.848-0.238c1.587-0.385,1.87-1.632,1.923-2.008l0.023-0.092   c0.055-0.198,0.652-1.919,0.898-2.396c1.21-2.334,2.995-3.991,5.287-5.009c-2.146,0.38-4.192,0.812-5.612,1.128   c-0.018,0.005-0.036,0.008-0.055,0.008c-0.107,0-0.204-0.079-0.23-0.188c-0.029-0.128,0.053-0.254,0.181-0.283   c1.396-0.313,3.398-0.738,5.507-1.114c-2.269,0.055-5.085-0.091-8.493-0.822c-1.135-0.244-2.321-0.058-3.367,0.1   c-0.613,0.097-1.191,0.185-1.708,0.185c-2.481,0-5.989,0.599-7.839,5.781c-0.034,0.099-0.126,0.16-0.226,0.16   c-0.028,0-0.055-0.005-0.078-0.013c-0.126-0.046-0.191-0.184-0.146-0.307C69.144,40.618,71.855,38.624,75.969,38.624z    M72.267,46.735l-0.07,0.019c-0.43,0.113-0.839,0.215-1.231,0.215h-0.299c-0.469-0.006-0.951-0.006-1.415,0.052   c-0.008,0-0.018,0-0.028,0c-0.118,0-0.221-0.089-0.236-0.209c-0.016-0.131,0.076-0.251,0.207-0.266   c0.493-0.059,0.993-0.054,1.476-0.056l0.296,0.002c0.33,0,0.694-0.093,1.113-0.203l0.071-0.017c0.123-0.036,0.256,0.047,0.29,0.173   C72.471,46.57,72.393,46.704,72.267,46.735z M74.512,43.316c0.886-0.298,1.809-0.589,2.741-0.859   c1.417-0.414,3.296-0.898,5.281-1.362c0.129-0.029,0.257,0.047,0.288,0.176c0.029,0.129-0.05,0.259-0.178,0.288   c-1.98,0.466-3.849,0.947-5.259,1.357c-0.925,0.27-1.844,0.558-2.722,0.852c-0.029,0.012-0.053,0.016-0.076,0.016   c-0.1,0-0.193-0.065-0.226-0.164C74.318,43.492,74.387,43.358,74.512,43.316z M69.521,44.009c0.354-0.599,0.775-1.105,1.255-1.5   c0.1-0.082,0.251-0.065,0.335,0.034c0.084,0.104,0.068,0.254-0.031,0.338c-0.435,0.356-0.822,0.818-1.147,1.374   c-0.045,0.072-0.126,0.117-0.207,0.117c-0.042,0-0.084-0.012-0.123-0.033C69.489,44.27,69.453,44.126,69.521,44.009z    M68.997,40.354c-1.48,1.661-2.114,3.652-2.787,5.761c-0.032,0.101-0.126,0.165-0.229,0.165c-0.021,0-0.05-0.003-0.07-0.011   c-0.129-0.039-0.196-0.175-0.157-0.301c0.688-2.156,1.339-4.198,2.887-5.931c0.089-0.1,0.241-0.105,0.338-0.024   C69.076,40.104,69.086,40.254,68.997,40.354z"/><path d="M73.173,72.691c-0.665,0.548-1.359,1.119-1.797,2.161c-0.64,1.52-0.265,4.029,1.071,7.348   c-0.523-2.845,0.432-4.129,0.85-4.536c1.202-1.158,2.669-1.614,3.851-1.986c0.464-0.141,1.522-1.448,1.742-2.051   c0.802-2.18-1.197-8.204-3.906-10.327c-2.174-1.7-3.979-2.434-5.725-3.139c-1.999-0.81-3.582-1.943-5.2-3.667   c-0.165,0.205-0.317,0.4-0.463,0.593c0.366,0.53,0.731,1.021,1.128,1.521c0.215,0.274,0.501,0.463,0.805,0.66   c0.191,0.125,0.391,0.257,0.576,0.414c0.545,0.463,1.41,0.707,2.104,0.908l0.238,0.071c0.338,0.1,0.646,0.272,0.951,0.445   c0.33,0.188,0.645,0.364,0.967,0.427c0.128,0.029,0.212,0.155,0.186,0.286c-0.023,0.109-0.123,0.188-0.235,0.188   c-0.017,0-0.032-0.003-0.045-0.006c-0.396-0.081-0.76-0.282-1.108-0.479c-0.291-0.165-0.565-0.32-0.849-0.401l-0.238-0.07   c-0.739-0.215-1.658-0.479-2.279-1.007c-0.165-0.139-0.341-0.257-0.532-0.38c-0.319-0.207-0.652-0.427-0.917-0.76   c-0.364-0.463-0.705-0.919-1.044-1.401c-0.099,0.142-0.198,0.275-0.298,0.433c-0.141,0.223-0.293,0.377-0.453,0.512   c0.658,1.199,2.192,2.386,3.137,2.862c0.654,0.33,1.328,0.517,1.976,0.694c0.71,0.194,1.44,0.398,2.153,0.783   c0.115,0.065,0.157,0.207,0.094,0.325c-0.044,0.078-0.125,0.128-0.209,0.128c-0.039,0-0.079-0.013-0.115-0.033   c-0.663-0.359-1.337-0.545-2.049-0.744c-0.674-0.184-1.37-0.375-2.064-0.726c-0.808-0.409-2.528-1.621-3.314-3.011   c-0.242,0.143-0.506,0.27-0.812,0.448c-0.07,0.042-0.146,0.086-0.221,0.13c0.58,1.591,1.245,3.304,2.036,5.235   c0.184,0.451,0.394,0.92,0.661,1.488c0.055,0.118,0.008,0.26-0.113,0.317c-0.034,0.018-0.068,0.023-0.104,0.023   c-0.089,0-0.173-0.053-0.215-0.139c-0.27-0.569-0.482-1.051-0.671-1.507c-0.78-1.904-1.44-3.603-2.015-5.18   c-0.365,0.203-0.755,0.4-1.158,0.568v0.252c0.003,1.496,0.006,3.047-0.341,4.485c-0.162,0.67-0.424,1.302-0.676,1.915   c-0.081,0.201-0.162,0.406-0.243,0.607c-0.071,0.184-0.188,0.386-0.299,0.579c-0.123,0.218-0.277,0.484-0.288,0.605   c-0.014,0.123-0.115,0.215-0.238,0.215c-0.006,0-0.016,0-0.021-0.003c-0.131-0.011-0.23-0.126-0.217-0.257   c0.023-0.223,0.183-0.503,0.351-0.799c0.103-0.178,0.21-0.367,0.268-0.511c0.081-0.21,0.165-0.417,0.249-0.618   c0.254-0.624,0.495-1.213,0.649-1.845c0.335-1.386,0.333-2.905,0.33-4.375v-0.071c-0.337,0.113-0.676,0.194-1.017,0.233   c-0.039,1.342-0.249,2.548-0.482,3.812l-0.016,0.081c-0.036,0.199-0.07,0.403-0.104,0.61c-0.123,0.78-0.254,1.59-0.587,2.266   c-0.062,0.132-0.184,0.328-0.31,0.532c-0.136,0.226-0.374,0.61-0.393,0.713c0.008,0.134-0.092,0.235-0.226,0.241   c-0.002,0-0.008,0-0.013,0c-0.126,0-0.23-0.107-0.241-0.233c-0.008-0.181,0.128-0.425,0.469-0.972   c0.115-0.189,0.226-0.37,0.283-0.485c0.302-0.618,0.43-1.394,0.548-2.141c0.034-0.207,0.067-0.414,0.102-0.618l0.016-0.081   c0.239-1.285,0.436-2.421,0.475-3.704c-0.128-0.003-0.257-0.003-0.383-0.024c-0.144-0.025-0.282-0.055-0.422-0.086   c-0.189,2.465-0.819,4.881-1.8,6.704c-1.69,3.143-2.429,6.926-1.975,10.12c0.02,0.131-0.071,0.251-0.202,0.27   c-0.009,0.005-0.021,0.005-0.032,0.005c-0.116,0-0.22-0.086-0.235-0.207c-0.471-3.293,0.287-7.187,2.023-10.413   c0.957-1.784,1.575-4.161,1.752-6.589c-0.259-0.062-0.534-0.104-0.817-0.136c0.105,0.917-0.235,1.894-0.548,2.774   c-0.152,0.43-0.298,0.83-0.376,1.197c-0.095,0.408-0.287,0.822-0.475,1.218c-0.118,0.257-0.238,0.514-0.335,0.775   c-0.049,0.132-0.1,0.278-0.152,0.433c-0.16,0.469-0.34,0.998-0.543,1.328c-0.047,0.076-0.127,0.118-0.205,0.118   c-0.043,0-0.086-0.013-0.124-0.037c-0.114-0.067-0.149-0.215-0.081-0.327c0.176-0.288,0.348-0.791,0.5-1.236   c0.057-0.157,0.107-0.31,0.157-0.443c0.103-0.274,0.226-0.545,0.351-0.812c0.186-0.394,0.359-0.76,0.437-1.122   c0.091-0.396,0.24-0.812,0.395-1.252c0.325-0.906,0.628-1.834,0.488-2.667c-0.378-0.011-0.702-0.039-1.005-0.092   c-0.154,2.049-0.668,4.094-1.514,5.664c-2.768,5.142-3.16,11.265-1.208,15.328c2.112,4.381,5.991,6.925,11.739,5.447   c1.381-0.359,3.05-2.402,5.18-2.822c1.481-0.293,2.7,0.229,3.712,0.94c-1.1-0.95-2.231-1.486-3.29-1.493c-0.008,0-0.019,0-0.029,0   c-1.721,0-3.016,0.938-4.061,1.695l-0.173,0.126c-0.414,0.299-1.722,0.894-1.921,0.961c-2.884,0.742-6.156-0.109-7.977-2.069   c-0.089-0.097-0.084-0.246,0.011-0.341c0.1-0.089,0.249-0.081,0.338,0.019c1.705,1.831,4.788,2.625,7.492,1.934   c0.16-0.058,1.412-0.626,1.779-0.891l0.173-0.123c1.042-0.758,2.462-1.79,4.338-1.79c0.014,0,0.021,0,0.032,0   c1.199,0.01,2.476,0.626,3.697,1.713c-1.425-1.645-2.97-2.594-4.384-2.604c-0.008,0-0.016,0-0.021,0   c-1.436,0-2.437,0.812-3.322,1.522c-0.23,0.186-0.453,0.366-0.673,0.529c-0.411,0.291-1.302,0.631-1.501,0.699   c-4.236,1.09-7.092-0.243-8.999-4.199c-0.208-0.44-0.391-0.915-0.532-1.41c-0.035-0.131,0.037-0.262,0.166-0.299   c0.131-0.034,0.256,0.037,0.293,0.165c0.137,0.472,0.305,0.92,0.506,1.339c1.786,3.71,4.469,4.965,8.43,3.946   c0.223-0.076,1.027-0.391,1.36-0.632c0.212-0.157,0.427-0.327,0.652-0.508c0.945-0.766,2.015-1.63,3.615-1.63   c0.011,0,0.021,0,0.028,0c1.312,0.011,2.715,0.737,4.038,2.019c-1.533-1.914-3.747-4.12-5.858-4.78   c-0.959-0.299-1.887-0.319-2.617-0.058c-0.367,0.134-0.7,0.341-1.054,0.566c-0.396,0.249-0.799,0.508-1.271,0.652   c-0.979,0.309-1.803,0.265-2.447-0.123c-0.699-0.417-1.163-1.224-1.386-2.393c-0.021-0.128,0.062-0.254,0.191-0.275   c0.136-0.028,0.257,0.061,0.28,0.189c0.193,1.029,0.584,1.724,1.158,2.069c0.523,0.312,1.216,0.338,2.062,0.073   c0.411-0.123,0.773-0.354,1.158-0.6c0.358-0.226,0.729-0.459,1.147-0.61c1.059-0.378,2.172-0.181,2.919,0.05   c1.973,0.618,3.927,2.41,5.426,4.145c-0.459-0.779-0.92-1.562-1.373-2.329c-0.917-1.535-1.857-3.118-2.756-4.7   c-0.521-0.914-0.909-1.91-1.284-2.869c-0.26-0.676-0.532-1.373-0.849-2.041c-0.314-0.668-0.647-1.321-0.982-1.974l-0.425-0.844   c-0.061-0.115-0.013-0.262,0.104-0.319c0.116-0.061,0.26-0.016,0.322,0.104l0.425,0.841c0.335,0.658,0.671,1.316,0.988,1.987   c0.324,0.682,0.597,1.389,0.861,2.072c0.383,0.985,0.747,1.918,1.255,2.809c0.894,1.574,1.834,3.157,2.748,4.689   c0.265,0.445,0.532,0.904,0.8,1.354c-0.942-2.761-1.142-4.904-0.553-6.303c0.487-1.156,1.257-1.787,1.936-2.346   c0.479-0.393,0.928-0.762,1.208-1.257c0.979-1.706-1.239-3.91-1.695-4.332c-1.918-1.496-4.024-2.461-5.106-2.898   c-0.17-0.07-0.388-0.141-0.642-0.22c-1.14-0.369-2.86-0.928-3.95-2.379c-0.079-0.11-0.059-0.257,0.047-0.335   c0.107-0.079,0.254-0.061,0.335,0.047c0.998,1.331,2.633,1.862,3.718,2.211c0.265,0.087,0.492,0.163,0.671,0.233   c1.108,0.445,3.259,1.431,5.24,2.977c0.718,0.671,2.929,2.97,1.8,4.937C74.166,71.877,73.685,72.274,73.173,72.691z M60.333,67.445   c-0.314,0.903-0.721,1.601-1.116,2.275c-0.461,0.786-0.894,1.529-1.171,2.56c-0.226,0.846-0.448,2.24-0.394,3.61   c0.006,0.131-0.097,0.241-0.23,0.249c0,0-0.005,0-0.008,0c-0.125,0-0.232-0.103-0.238-0.23c-0.06-1.421,0.173-2.869,0.409-3.755   c0.293-1.09,0.762-1.896,1.218-2.675c0.383-0.656,0.778-1.335,1.08-2.191c0.385-1.108,0.967-3.218,0.545-4.905   c-0.029-0.128,0.047-0.259,0.175-0.293c0.126-0.029,0.257,0.045,0.291,0.176C61.345,64.073,60.736,66.287,60.333,67.445z    M62.154,67.117c0.002,0.131-0.098,0.255-0.239,0.238c-0.128,0-0.235-0.104-0.238-0.235c0-0.131,0.003-0.257,0.006-0.391   c0.008-0.414,0.018-0.804-0.103-1.168c-0.042-0.123,0.029-0.26,0.152-0.299c0.125-0.047,0.262,0.026,0.301,0.149   c0.146,0.44,0.137,0.891,0.129,1.328C62.156,66.866,62.154,66.989,62.154,67.117z M64.021,63.913   c0.087-0.097,0.239-0.109,0.336-0.021c0.393,0.346,0.836,0.752,1.137,1.255c0.068,0.11,0.031,0.257-0.084,0.327   c-0.036,0.021-0.078,0.031-0.12,0.031c-0.081,0-0.16-0.042-0.204-0.115c-0.268-0.439-0.66-0.804-1.043-1.14   C63.946,64.165,63.936,64.013,64.021,63.913z"/><path d="M50.813,58.236c-0.202,0.57-0.604,1.236-0.986,1.85c-0.24,0.388-0.466,0.752-0.582,1.006   c-0.134,0.296-0.313,0.589-0.507,0.903c-0.376,0.611-0.767,1.239-0.764,1.858c0.002,0.133-0.104,0.24-0.236,0.24h-0.001   c-0.131,0-0.238-0.104-0.24-0.238c-0.006-0.752,0.44-1.475,0.836-2.114c0.183-0.299,0.356-0.579,0.477-0.846   c0.127-0.28,0.354-0.643,0.613-1.064c0.387-0.626,0.871-1.425,0.996-1.963c-0.044-0.044-0.083-0.077-0.129-0.122   c-0.102-0.096-0.232-0.173-0.355-0.253c-1.277,1.972-2.382,4.156-3.203,5.805l-0.054,0.109c-0.302,0.611-0.542,1.093-0.722,1.404   c-0.296,0.521-0.587,1.043-0.87,1.56c-2.036,3.685-3.441,5.979-6.505,6.663c-0.627,0.14-1.378,0.213-2.168,0.213   c-2.739,0-5.061-0.985-6.315-1.907c-1.675-1.233-5.313-2.588-8.994-3.012c3.422,0.748,6.694,2.427,8.452,3.722   c0.891,0.649,3.08,1.504,4.685,1.823c0.13,0.023,0.213,0.149,0.188,0.28c-0.023,0.115-0.123,0.191-0.233,0.191   c-0.017,0-0.033,0-0.048,0c-1.689-0.338-3.921-1.213-4.872-1.913c-1.362-0.999-3.653-2.234-6.201-3.07   c2.722,1.188,4.685,2.729,5.313,3.33c2.524,2.397,7.499,2.911,10.457,2.253c4.773-1.061,6.46-5.214,8.776-9.247   c0.626-1.092,2.03-4.256,3.734-6.953C51.174,58.588,50.991,58.406,50.813,58.236z"/><path d="M76.783,60.746c-4.959-3.881-8.339-3.377-11.216-6.458c-0.128,0.253-0.291,0.488-0.445,0.729   c0.18,0.195,0.359,0.388,0.563,0.579c0.246,0.233,0.506,0.477,0.739,0.749c0.484,0.568,0.927,0.799,1.562,1.032   c0.277,0.1,0.568,0.29,0.877,0.5c0.272,0.181,0.553,0.364,0.808,0.475c0.335,0.142,0.657,0.217,1.003,0.301   c0.391,0.092,0.791,0.187,1.219,0.38c0.117,0.056,0.173,0.196,0.117,0.314c-0.042,0.089-0.128,0.142-0.217,0.142   c-0.034,0-0.065-0.005-0.103-0.021c-0.38-0.176-0.744-0.26-1.127-0.352c-0.348-0.081-0.707-0.168-1.079-0.322   c-0.296-0.126-0.598-0.327-0.886-0.521c-0.285-0.188-0.553-0.366-0.772-0.45c-0.697-0.249-1.211-0.521-1.766-1.169   c-0.218-0.254-0.464-0.483-0.705-0.709c-0.168-0.159-0.327-0.34-0.492-0.512c-0.168,0.239-0.341,0.456-0.512,0.675   c1.588,1.705,3.137,2.82,5.086,3.611c1.778,0.718,3.615,1.465,5.84,3.207c2.688,2.099,5.001,8.291,4.066,10.863   c-0.229,0.618-1.342,2.128-2.052,2.348c-1.192,0.372-2.544,0.794-3.663,1.873c-0.749,0.726-1.126,2.264-0.583,4.612   c-0.271-2.383,0.562-3.499,0.945-3.871c1.092-1.053,2.172-1.587,3.609-1.778c0.812-0.11,2.385-1.764,2.592-2.337   c0.319-0.87,0.277-2.387-0.103-3.873c-0.034-0.125,0.042-0.256,0.173-0.285c0.129-0.039,0.257,0.045,0.288,0.173   c0.403,1.564,0.44,3.193,0.092,4.147c-0.228,0.626-1.915,2.507-2.979,2.648c-1.347,0.179-2.313,0.658-3.341,1.648   c-0.841,0.813-1.235,2.642-0.346,5.524c-0.293-1.669-0.329-3.472,1.017-4.772c1.574-1.52,4.674-1.347,5.871-2.981   C83.333,73.49,80.219,63.437,76.783,60.746z"/><path d="M21.639,36.455c3.272,2.207,10.069,3.303,13.987,5.527c-3.297-2.164-8.573-6.305-13.11-12.939   c-1.23-1.798-2.407-3.396-3.589-4.878c-0.22-0.272-0.396-0.575-0.569-0.863c-0.171-0.299-0.336-0.578-0.54-0.826   c-0.2-0.245-0.426-0.42-0.668-0.606c-0.367-0.284-0.747-0.579-1.003-1.117c-0.142-0.295-0.967-1.199-1.193-1.312   c-0.38-0.188-0.64-0.451-0.916-0.727l-0.524-0.528c-0.443-0.443-0.885-0.891-1.322-1.341c-1.022-1.061-1.876-2.073-2.595-3.073   c0.661,2.585,1.476,3.654,3.015,8.79C13.706,26.203,15.575,32.363,21.639,36.455z M13.875,21.938l-0.459-0.089   c-0.128-0.026-0.215-0.15-0.191-0.277c0.023-0.13,0.149-0.218,0.28-0.191l0.464,0.089c0.131,0.022,0.213,0.149,0.188,0.282   c-0.021,0.111-0.121,0.19-0.234,0.19C13.908,21.94,13.893,21.94,13.875,21.938z M14.82,25.763c0.026-0.126,0.152-0.212,0.28-0.188   l2.203,0.423c0.131,0.024,0.218,0.149,0.191,0.279c-0.021,0.117-0.123,0.195-0.234,0.195c-0.017,0-0.03-0.003-0.046-0.005   l-2.204-0.422C14.879,26.02,14.796,25.896,14.82,25.763z M15.289,27.375c-0.131-0.021-0.215-0.146-0.188-0.276   c0.023-0.128,0.146-0.217,0.278-0.191c0.097,0.019,0.191,0.04,0.285,0.065c0.176,0.037,0.353,0.076,0.524,0.093l0.191,0.016   c0.447,0.04,0.743,0.062,1.216,0.241c0.263,0.098,0.572,0.146,0.873,0.192c0.141,0.021,0.286,0.044,0.419,0.065   c0.131,0.026,0.215,0.152,0.19,0.282c-0.022,0.115-0.122,0.195-0.234,0.195c-0.016,0-0.034-0.003-0.046-0.005   c-0.131-0.023-0.265-0.047-0.402-0.068c-0.322-0.05-0.656-0.097-0.966-0.215c-0.412-0.156-0.65-0.176-1.086-0.21l-0.195-0.017   c-0.194-0.02-0.391-0.062-0.585-0.106C15.467,27.415,15.378,27.395,15.289,27.375z M23.325,35.315   c-0.016,0-0.032-0.001-0.046-0.007l-1.256-0.24c-0.131-0.026-0.215-0.149-0.191-0.28c0.026-0.128,0.149-0.215,0.282-0.187   l1.256,0.238c0.129,0.022,0.213,0.15,0.188,0.282C23.537,35.237,23.437,35.315,23.325,35.315z M26.576,36.452   c0.094-0.097,0.244-0.091,0.338,0.003c0.093,0.096,0.089,0.244-0.005,0.338c-0.123,0.122-0.309,0.167-0.542,0.167   c-0.32,0-0.722-0.086-1.163-0.192c-0.093-0.022-0.17-0.043-0.23-0.052c-0.127-0.028-0.211-0.153-0.186-0.282   c0.027-0.131,0.152-0.218,0.28-0.189c0.065,0.015,0.149,0.033,0.249,0.058C26.044,36.48,26.471,36.53,26.576,36.452z M25.614,35.33   c0.142,0,0.296-0.004,0.469,0.033c0.127,0.032,0.207,0.157,0.179,0.286c-0.025,0.113-0.123,0.188-0.234,0.188   c-0.016,0-0.034-0.002-0.051-0.008c-0.115-0.026-0.232-0.025-0.355-0.021c-0.146,0.003-0.312,0.005-0.49-0.038   c-0.155-0.037-0.308-0.091-0.462-0.143c-0.193-0.06-0.374-0.123-0.566-0.16c-0.13-0.026-0.216-0.152-0.19-0.279   c0.025-0.128,0.142-0.211,0.28-0.19c0.223,0.042,0.43,0.113,0.624,0.178c0.146,0.047,0.286,0.094,0.43,0.126   C25.364,35.333,25.486,35.333,25.614,35.33z M24.792,33.84c0.131,0.026,0.215,0.149,0.189,0.28   c-0.021,0.113-0.121,0.192-0.233,0.192c-0.016,0-0.031,0-0.044-0.004c-0.28-0.054-0.498-0.104-0.715-0.154   c-0.212-0.05-0.422-0.097-0.684-0.149c-0.191-0.037-0.455-0.05-0.71-0.062c-0.198-0.011-0.391-0.021-0.548-0.041   c-0.216-0.028-0.413-0.099-0.603-0.169c-0.149-0.056-0.293-0.108-0.435-0.132l-1.773-0.345c-0.128-0.025-0.215-0.152-0.19-0.279   c0.025-0.131,0.148-0.215,0.282-0.189l1.771,0.339c0.181,0.035,0.347,0.096,0.508,0.159c0.175,0.059,0.338,0.123,0.5,0.141   c0.146,0.019,0.327,0.028,0.511,0.037c0.272,0.016,0.553,0.027,0.778,0.07c0.268,0.053,0.482,0.103,0.698,0.155   C24.307,33.738,24.519,33.785,24.792,33.84z M23.627,32.562c-0.021,0.117-0.122,0.197-0.232,0.197c-0.016,0-0.034,0-0.05-0.005   l-1.758-0.34c-0.238-0.05-0.448-0.087-0.681-0.076c-0.417,0.026-0.618-0.055-0.846-0.155c-0.092-0.039-0.196-0.083-0.333-0.128   c-0.265-0.086-0.57-0.132-0.863-0.173c-0.151-0.027-0.303-0.047-0.452-0.076c-0.127-0.025-0.212-0.153-0.188-0.28   c0.026-0.128,0.152-0.214,0.28-0.191c0.142,0.029,0.288,0.051,0.435,0.073c0.312,0.047,0.634,0.097,0.934,0.194   c0.159,0.05,0.274,0.1,0.377,0.143c0.206,0.09,0.324,0.143,0.622,0.119c0.307-0.021,0.548,0.029,0.81,0.083l1.755,0.339   C23.569,32.309,23.653,32.436,23.627,32.562z M22.786,30.869c0.13,0.026,0.215,0.149,0.19,0.28   c-0.023,0.115-0.123,0.193-0.236,0.193c-0.013,0-0.029,0-0.044-0.001c-0.495-0.097-0.988-0.2-1.48-0.301   c-0.961-0.199-1.952-0.403-2.937-0.55c-0.317-0.044-0.631-0.109-0.944-0.178c-0.15-0.029-0.3-0.062-0.451-0.092   c-0.129-0.021-0.215-0.148-0.19-0.279c0.023-0.127,0.151-0.213,0.28-0.188c0.152,0.03,0.305,0.061,0.458,0.092   c0.305,0.061,0.608,0.128,0.912,0.17c1.004,0.148,2.003,0.354,2.969,0.556C21.804,30.673,22.292,30.777,22.786,30.869z    M21.952,29.455c0.128,0.026,0.215,0.149,0.188,0.28c-0.021,0.113-0.121,0.191-0.233,0.191c-0.016,0-0.03,0-0.047-0.001   l-0.504-0.098c-0.667-0.134-1.353-0.272-2.026-0.342c-0.626-0.066-1.258-0.217-1.865-0.365c-0.381-0.093-0.765-0.188-1.156-0.262   c-0.128-0.026-0.215-0.15-0.188-0.279c0.026-0.13,0.149-0.213,0.28-0.19c0.396,0.076,0.789,0.171,1.176,0.265   c0.621,0.152,1.208,0.299,1.8,0.359c0.697,0.071,1.396,0.209,2.072,0.343L21.952,29.455z M21.192,28.269   c-0.021,0.114-0.123,0.195-0.233,0.195c-0.016,0-0.03-0.003-0.047-0.008L19.567,28.2c-0.133-0.024-0.217-0.149-0.191-0.279   c0.026-0.129,0.149-0.213,0.28-0.19L21,27.99C21.132,28.014,21.215,28.138,21.192,28.269z M19.798,26.478   c0.13,0.024,0.215,0.149,0.191,0.278c-0.022,0.113-0.122,0.197-0.236,0.197c-0.014,0-0.031-0.003-0.044-0.005l-1.761-0.339   c-0.128-0.025-0.215-0.148-0.188-0.282c0.026-0.125,0.146-0.212,0.28-0.186L19.798,26.478z M17.952,24.867   c0.13,0.026,0.215,0.149,0.19,0.28c-0.023,0.114-0.122,0.194-0.236,0.194c-0.013,0-0.029-0.001-0.044-0.003   c-0.167-0.034-0.335-0.077-0.505-0.118c-0.261-0.067-0.508-0.128-0.752-0.155c-0.529-0.056-0.996-0.152-1.488-0.257   c-0.184-0.034-0.367-0.072-0.563-0.11c-0.131-0.023-0.216-0.149-0.191-0.278c0.023-0.131,0.153-0.215,0.28-0.191   c0.199,0.037,0.385,0.076,0.571,0.115c0.482,0.097,0.937,0.191,1.443,0.248c0.275,0.027,0.55,0.098,0.817,0.164   C17.634,24.796,17.794,24.835,17.952,24.867z M16.969,23.423c0.129,0.029,0.215,0.155,0.188,0.286   c-0.021,0.11-0.121,0.19-0.234,0.19c-0.015,0-0.029-0.002-0.047-0.004c-0.203-0.04-0.396-0.106-0.582-0.17   c-0.219-0.076-0.424-0.146-0.63-0.167l-0.405-0.042c-0.367-0.036-0.744-0.073-1.141-0.152c-0.131-0.026-0.215-0.149-0.19-0.28   c0.025-0.131,0.143-0.212,0.279-0.188c0.376,0.072,0.729,0.106,1.098,0.146l0.412,0.039c0.257,0.032,0.499,0.113,0.731,0.194   C16.628,23.333,16.795,23.392,16.969,23.423z M14.803,21.626l1.542,0.301c0.128,0.024,0.212,0.149,0.186,0.278   c-0.021,0.115-0.12,0.194-0.233,0.194c-0.016,0-0.029,0-0.047-0.002l-1.541-0.299c-0.127-0.026-0.212-0.149-0.187-0.28   C14.548,21.689,14.666,21.606,14.803,21.626z M14.25,20.007c0.129,0.026,0.216,0.152,0.19,0.283   c-0.022,0.113-0.123,0.188-0.235,0.188c-0.017,0-0.03,0-0.045-0.002l-1.148-0.223c-0.131-0.024-0.215-0.149-0.191-0.278   c0.025-0.131,0.146-0.212,0.282-0.19L14.25,20.007z M12.24,18.714c0.023-0.131,0.146-0.213,0.28-0.19l0.533,0.103   c0.128,0.023,0.215,0.149,0.19,0.28c-0.022,0.112-0.124,0.194-0.236,0.194c-0.013,0-0.032-0.003-0.043-0.005l-0.536-0.105   C12.298,18.968,12.213,18.844,12.24,18.714z"/><path d="M93.711,40.081c-2.284,1.454-3.262,5.66-3.424,7.019c-0.145,1.184-0.278,2.287-0.616,3.063   c-0.316,0.72-0.888,1.527-1.566,2.206c-0.047,0.045-0.11,0.068-0.171,0.068c-0.062,0-0.123-0.023-0.17-0.068   c-0.092-0.092-0.092-0.246,0-0.343c0.64-0.635,1.177-1.381,1.47-2.054c0.31-0.71,0.44-1.779,0.574-2.908   c0.185-1.531,1.189-5.781,3.618-7.361c-0.123,0.063-0.248,0.109-0.37,0.186c-2.384,1.517-3.726,5.282-3.88,6.597   c-0.142,1.176-0.275,2.282-0.615,3.063c-0.708,1.621-3.218,4.689-7.656,4.689c-0.396,0-0.807-0.023-1.213-0.073   c-2.803-0.338-4.87-1.25-6.869-2.13c-2.069-0.907-4.017-1.761-6.343-1.761c-0.103,0-0.207,0.022-0.311,0.026   c-0.007,0.233-0.019,0.478-0.033,0.729c0.191-0.001,0.38-0.001,0.545-0.001h0.294c1.923,0,3.112,0.571,4.373,1.174   c0.117,0.056,0.167,0.199,0.109,0.32c-0.039,0.083-0.126,0.136-0.215,0.136c-0.034,0-0.07-0.011-0.104-0.026   c-1.258-0.604-2.348-1.124-4.163-1.124h-0.294c-0.173,0-0.371,0.001-0.574,0.002c-0.015,0.257-0.028,0.512-0.033,0.757   c3.909-0.11,6.963,3.099,13.123,3.842c5.966,0.726,9.93-2.96,11.222-5.918c1.42-3.263-0.073-8.519,4.582-10.574   C94.55,39.67,94.117,39.822,93.711,40.081z"/></g><text x="0" y="115" fill="#000000" font-size="5px" font-weight="bold" font-family="'Helvetica Neue', Helvetica, Arial-Unicode, Arial, Sans-serif">Created by Ben Didier</text><text x="0" y="120" fill="#000000" font-size="5px" font-weight="bold" font-family="'Helvetica Neue', Helvetica, Arial-Unicode, Arial, Sans-serif">from the Noun Project</text></svg>