<svg xmlns="http://www.w3.org/2000/svg" xmlns:xlink="http://www.w3.org/1999/xlink" version="1.1" x="0px" y="0px" viewBox="0 0 100 125" enable-background="new 0 0 100 100" xml:space="preserve"><path d="M79.776,15.284c-0.376-0.963-1.444-1.555-1.964-1.604c-1.001-0.094-1.221-3.101-1.221-3.101  c-1.065-4.16-1.521-0.073-1.521-0.073c-0.721,4.455-3.833,4.745-4.775,4.745c-0.94,0-1.232-6.771-2.101-8.943  c-0.869-2.172-1.015,10.352-1.015,10.352c-1.158,4.271-5.284,6.722-5.284,6.722c0.146-1.964-0.651-7.084-1.664-9.111  c-1.015-2.027-0.869-0.217-0.869-0.217c0.478,3.63,0.628,6.142,0.646,7.816l-0.562,0.218c-1.874,0.168-2.172-0.325-2.172-0.325  s0.435-1.557,0.145-3.946c-0.29-2.389-0.796,0.58-0.796,0.58c-1.448,7.167-6.845,6.732-6.845,6.732  c-0.884-1.342-1.483-2.721-1.888-4.042c-0.02-0.13-0.033-0.235-0.038-0.302c-0.029-0.348-0.104-0.474-0.185-0.501  c-0.945-3.74-0.383-6.81-0.383-6.81c-2.535,2.726-1.32,7.662-0.205,10.699c0.215,0.999,0.641,1.901,1.122,2.653v0.206  c0,0-0.003,0.004-1.136,1.78c-2.369-2.206-4.824-6.383-5.077-6.94c-0.362-0.797-0.435,0-0.435,0  c-0.341,2.724,1.061,5.119,2.712,6.906c-1.595-0.991-3.334-3.015-3.904-5.024c-0.986-3.475-1.112-1.445-1.112-1.445  c-1.304,5.647,5.391,8.526,5.391,8.526c-9.529-0.724-8.405-6.719-8.405-6.719c0.146-3.515-0.677-1.52-0.677-1.52  c-2.461,8.976,6.007,10.133,9.075,10.318c0.895,0.054,0.983,0.834,0.917,1.436c-0.477,0.357-0.737,0.626-0.737,0.626  s-2.896,3.475-4.777,3.909c-1.882,0.434-3.981,3.835-1.448,4.849c2.534,1.014,2.462-0.072,3.91,0.724  c1.447,0.796,2.967,0.869,3.185,2.1c0.101,0.574-4.199,2.171-9.411,0.723c-5.212-1.447-10.641-0.145-12.885,2.968  c-0.34,0.472-0.669,0.962-0.974,1.484c-0.954-0.282-2.142,0.051-2.356,1.483c-0.227,1.508,0.238,2.225,0.957,2.274  c-0.443,2.516-0.135,5.779,1.649,10.395c0.298,0.771,0.559,1.469,0.786,2.107c-0.267,2.673-0.795,6.669-1.62,7.52  c-1.079,1.111-0.763,3.008,0.072,3.858c-0.133,1.21,0.547,2.114,0.979,4.032c0.652,2.896,0.652,9.772,0.652,9.772  s1.954,1.52,2.895,0.29c0,0-0.021-0.086-0.057-0.242c1.466,0.608,2.26,0.589,3.098,0.241c0.702-0.291,0.65-0.868,0.65-0.868  c-3.53-1.81-2.099-11.003-2.315-12.74c-0.218-1.737,0.072-3.185,1.592-4.271c1.226-0.875,4.85-5.277,6.208-6.952  c2.126,0.774,5.168,1.069,9.211-0.432c0,0-0.796,8.977,0.217,11.872c1.014,2.895,0.362,11.003-1.303,11.727  c0,0,1.448,2.678,4.126,0.797c0,0-1.158-8.615-0.289-10.424c0.869-1.811,1.448-7.746,1.448-8.397c0-0.652,0.217-4.343,0.578-4.343  c0.362,0,6.66-2.751,7.818-0.724c1.158,2.026,4.416,17.3,4.271,18.459c-0.145,1.158-0.145,2.605-0.289,2.895  c-0.146,0.29,2.823,1.882,3.619,0.58c0.797-1.303-0.072-1.303-0.65-2.606c-0.58-1.303-1.304-2.824-1.376-5.574  c-0.072-2.751,0.289-4.706,0.289-4.706s-1.013-2.896-0.868-4.85c0.145-1.955,0.361-7.167,1.447-8.904  c1.086-1.738,5.057-7.095,1.479-13.03c-3.577-5.936-5.025-9.7-6.473-10.279c-1.448-0.58-4.127-4.488-4.055-4.923  c0,0,4.778-0.941,4.127-6.081c0,0,0.145-1.23-1.014-0.216c-0.969,0.847-3.424,3.487-5.066,3.176  c-0.282-0.053-0.555-0.089-0.824-0.117c0.523-0.925,1.614-2.248,3.066-2.625c5.284-1.376,13.971-9.7,14.405-10.641  c0.435-0.941,5.429-3.186,5.429-3.186c2.501-0.752,3.258,0.362,3.692,1.158C79.053,18.035,80.563,17.296,79.776,15.284z   M24.695,72.502c0.169,1.391-0.112,2.146-0.626,2.929C24.293,74.475,24.506,73.462,24.695,72.502z M24.69,80.724l0.281-0.793  c0.033,0.352,0.104,0.654,0.226,0.879c0.644,1.188,0.73,7.308,0.732,10.41C25.335,88.366,24.444,83.478,24.69,80.724z   M47.592,31.536c0.272,0.17,0.511,0.305,0.696,0.398c0.347,0.174,0.25,0.609,0.091,0.97c-0.354,0.112-0.687,0.237-0.993,0.373  C47.355,32.719,47.453,32.099,47.592,31.536z M48.408,38.689c-0.286,0.054-1.091,0.103-0.963-0.161c0,0,0.044-0.106,0.127-0.264  c0.341-0.647,1.449-1.853,2.57-0.934c0,0,0.107,0.112,0.141,0.2C50.508,38.131,49.353,38.511,48.408,38.689z M49.881,30.125  c-0.496,0.134-1.066-0.038-1.669-0.411l0.882-1.709c0.503,0.564,0.966,0.941,1.221,1.068C51.256,29.541,49.881,30.125,49.881,30.125  z M59.846,24.78c-2.1,3.185-6.795,3.823-6.795,3.823c-1.288-0.095-2.281-0.883-3.04-1.926c0.117,0.009,0.302,0.005,0.604-0.027  c4.418-0.483,5.937-3.403,5.937-3.403c0.306,0.43,2.249,0.556,3.445-0.081C59.955,24.326,59.846,24.78,59.846,24.78z"/><text x="0" y="115" fill="#000000" font-size="5px" font-weight="bold" font-family="'Helvetica Neue', Helvetica, Arial-Unicode, Arial, Sans-serif">Created by Ho Ching</text><text x="0" y="120" fill="#000000" font-size="5px" font-weight="bold" font-family="'Helvetica Neue', Helvetica, Arial-Unicode, Arial, Sans-serif">from the Noun Project</text></svg>