<svg xmlns="http://www.w3.org/2000/svg" xmlns:xlink="http://www.w3.org/1999/xlink" xml:space="preserve" version="1.1" style="shape-rendering:geometricPrecision;text-rendering:geometricPrecision;image-rendering:optimizeQuality;" viewBox="0 0 74 291.25" x="0px" y="0px" fill-rule="evenodd" clip-rule="evenodd"><defs><style type="text/css">
   
    .fil0 {fill:black}
   
  </style></defs><g><path class="fil0" d="M61 208c1,0 1,0 1,-1 0,0 0,-1 0,-1 0,0 0,0 0,-1 0,0 0,-1 1,-1l0 0c0,1 1,2 1,2 1,0 0,-2 2,-1 0,0 0,0 0,0 1,0 1,-1 1,-1 1,-1 1,0 2,0 0,0 1,1 1,0 0,0 0,-1 -1,-1 0,-1 -1,-2 -1,-3 0,0 0,-1 1,0 0,0 1,0 1,0 0,-1 -3,-4 -2,-4 0,-1 2,1 2,1 1,0 1,-1 1,-2 0,0 1,0 1,0 0,0 -1,-1 0,-2 0,0 0,0 0,-1 0,0 -1,0 -1,0 0,0 0,-1 0,-1 -1,-1 -2,-1 -3,-1 0,0 0,0 0,-1 1,0 1,0 1,0 1,-1 2,2 2,-1 0,0 -1,-1 0,-1 0,0 1,1 1,1l1 0c0,0 0,0 0,0 0,0 0,0 0,-1 0,-1 0,-1 0,-1 0,-2 -1,-2 -2,-2 -1,-1 1,-2 -2,-3 -1,0 -1,0 -1,0 -1,0 -1,-1 -2,-1 1,0 1,-1 1,-1 1,-1 4,1 4,1 0,-1 -1,-2 -1,-2 0,-1 1,-1 0,-2 0,0 -1,-1 -1,-1 0,0 1,-1 1,-1 0,0 0,0 0,0 0,-1 0,-1 0,-1 0,-1 0,-1 0,-1 0,-1 0,-1 1,-2 0,-1 -2,-1 -3,-1 0,-1 1,-1 1,-1 1,0 1,-1 2,-1 0,-1 -2,-1 -2,-1 -1,0 -2,0 -2,-1 0,0 0,-1 0,-1l1 0c0,0 0,0 -1,-1 0,0 0,0 0,0 0,0 -1,-1 -1,-1 1,0 1,0 1,0 1,0 1,0 1,-1 0,-1 0,-1 1,-1 0,-1 2,-1 2,-1 0,0 2,0 1,-1 0,0 -3,0 -3,-1 -1,0 0,-1 0,-2 0,0 0,0 -1,0 0,0 -1,0 -1,-1 1,0 1,0 0,0 0,0 0,-1 0,-1 0,0 0,-1 0,-1 0,0 0,1 -1,1 0,0 0,0 -1,1 0,0 0,1 -1,1 -1,0 -1,0 -2,0 0,-1 1,1 0,1 0,0 -1,-2 -1,-1 0,1 0,3 -1,3 0,0 0,0 0,0 0,0 -1,-2 -2,-1 0,0 0,1 0,2 0,1 0,0 0,0 0,0 -1,0 -1,-1 -1,-1 -2,-3 -3,-3 0,0 0,0 0,0 0,0 1,0 1,0 0,1 0,2 0,2 0,1 0,1 0,1 0,1 1,1 1,1 1,1 1,2 1,2 0,1 0,1 0,1 -1,1 -1,1 -1,2 0,1 0,1 1,1 0,0 1,0 1,1 0,0 -2,1 0,2 0,0 2,1 3,2 0,0 -1,1 -1,1 -1,-1 -2,-1 -3,-1 0,0 1,1 2,1 0,0 1,1 1,1l0 1 0 0c0,1 -1,0 -1,1 0,1 1,2 2,2 0,1 0,1 1,1 0,1 1,1 0,2 0,0 0,0 0,1 0,0 0,0 0,1 1,0 0,1 -1,1 0,0 -1,-1 -2,-1 0,0 0,1 0,1 0,1 0,1 0,2 0,0 0,0 0,1 0,1 -1,0 -1,1 0,0 0,0 -1,0 2,-1 2,2 3,1 0,-1 0,-1 1,-1 1,2 1,2 2,2 0,1 1,1 1,1 0,0 0,1 0,1 0,1 -1,0 -2,0 0,0 -1,-1 -1,-1 0,0 0,0 0,0 0,1 1,1 1,2 0,0 1,1 1,1 1,1 0,1 0,1 -1,0 -1,-1 -1,-1 0,1 0,2 0,2 0,1 1,2 1,2 -1,0 -2,-1 -3,-1l0 0c0,-1 0,0 0,0 0,1 1,3 0,3 0,0 -1,-1 -1,0 -1,0 0,2 1,3 0,0 0,1 0,1 -1,0 -2,-2 -2,1 1,1 1,1 1,2 0,0 0,0 0,1 0,1 0,2 -1,2 -1,1 -2,1 -2,1 -1,0 0,1 0,2 -1,1 -3,0 -3,0 -1,-1 -3,-2 -3,-2 -1,0 1,2 1,2 0,0 2,1 2,2 0,1 -1,1 -1,1 -1,1 -1,1 -2,1 0,1 -1,1 -2,2 -1,0 0,0 1,0 0,0 1,0 1,-1 1,0 1,1 0,1 0,0 0,0 0,0 0,0 0,1 0,1 0,0 0,0 0,-1 0,0 1,-1 1,-1 0,-1 -1,0 -1,0 1,-1 2,-1 2,-1 0,0 0,0 0,0 1,-1 1,-1 1,-1 2,-1 0,-2 2,-2 0,0 1,0 1,0 1,0 1,0 1,0 0,-1 1,-1 1,-1 1,0 1,0 1,0 0,0 0,0 0,-1 0,-1 0,-1 1,-2 0,0 1,0 1,0zm-18 21c0,-1 0,-2 0,-3 0,-1 0,-4 0,-5 1,0 0,0 0,0 0,0 0,-1 0,-1 1,0 1,-1 1,-1 1,0 2,0 2,-1 0,0 -1,0 -1,0 0,-1 0,0 -1,0 0,0 0,0 0,0 0,0 -1,0 -2,0 0,0 0,-1 0,-1 0,0 -4,-1 -4,-1 0,0 3,1 3,1 -1,0 -1,0 -1,0 0,0 -1,-1 -1,-1 -1,1 0,1 -1,1 0,0 -2,-1 -2,0 0,0 0,1 0,1 0,1 2,2 2,2 0,1 0,3 0,4 0,0 -1,4 0,2 0,0 1,-2 1,-1 0,1 0,2 -1,3 0,0 0,1 0,1l-2 0c0,-1 0,-1 0,-1 0,-1 1,-7 0,-7l-1 3c0,1 0,3 0,1l0 0c0,-1 0,-2 0,-2 0,-1 0,-1 0,-2 1,0 0,-1 0,-1 0,-1 -1,-1 -1,-2l1 0c0,-1 0,-1 0,-2 0,0 0,0 0,0 0,0 0,0 -1,0 0,-1 -1,-1 -1,-1 -1,-1 0,-1 0,-1 -1,0 -2,0 -3,0 0,1 0,1 0,2 0,0 -1,0 -2,0 -1,0 0,2 -1,2 0,0 0,0 0,0 1,0 1,0 2,0 0,0 1,1 2,1 0,0 0,0 0,0 0,1 0,2 0,3l0 0c0,1 0,3 0,4 0,1 0,2 0,3l-18 4 48 0 -18 -4zm-10 0l-1 0c0,-1 0,-1 1,-1 0,0 0,-1 0,-1 0,0 0,1 0,2zm37 -82c0,-1 0,-1 0,-1 1,-1 1,-1 0,-2 0,-1 1,-1 1,0 1,0 1,0 1,-1 -1,0 -3,-1 -4,-1 0,0 -1,0 -1,0 0,0 0,0 0,0 1,-1 1,-1 1,-1 1,0 1,0 2,0 2,0 1,-2 1,-2 0,0 1,0 0,-1 0,0 -1,-1 -1,-1 -1,-1 0,-2 0,-2 1,0 1,0 1,0 1,0 2,2 2,0 0,0 0,-1 0,-1 0,-1 1,-1 1,-2 -1,0 -2,-1 -2,-1 -1,0 -1,0 -2,0 0,0 0,0 -1,0 0,-1 1,-1 1,-2 1,0 1,0 1,0 0,-1 -1,-1 -1,-1 -1,-1 -1,-1 -1,-2 0,0 0,0 1,0 0,0 0,0 1,0 1,0 0,-1 0,-2 0,-1 0,-1 1,-2 1,0 0,0 0,-1 1,0 1,1 1,0 -1,0 -1,0 0,-1 0,-1 -1,-1 -2,-2 0,0 0,-1 0,-1 -1,-1 0,-1 0,0 0,0 1,1 1,0l0 0c0,-1 -1,-1 0,-2 0,-1 -1,-1 -1,-2 -1,0 -2,-1 -2,-2 0,0 0,0 0,0 0,-1 1,0 1,0 1,0 1,0 2,1 0,0 1,0 0,-1 0,-1 -2,-2 -2,-3 -1,0 0,0 0,-1 0,0 0,0 0,-1 0,0 0,-1 1,-1 0,0 0,0 0,0 0,0 3,-2 2,-2 -1,0 -2,0 -2,0 0,0 -1,0 -2,0 0,0 0,-1 0,-1 0,0 0,0 0,0 0,-1 0,-1 0,-1 0,-1 0,-1 0,-1 0,-1 0,-1 0,-1 0,0 0,0 -1,0 -1,0 -1,0 -2,-1 -1,-1 0,-1 1,-2 0,0 0,0 1,-1 0,0 0,-1 0,-1 -1,0 -2,0 -2,-1 1,-1 1,-1 1,-2 1,-1 1,-1 -1,-1 0,0 -1,1 -1,0 -1,0 -1,0 -1,-1 0,-1 0,-1 -1,-1 -1,0 1,-1 1,-1 -1,0 -1,0 -1,0 -1,-1 0,-2 0,-3 0,0 -1,0 0,0 0,-1 0,-1 0,-2 0,-1 1,-1 0,-2 0,0 0,-1 0,-1 1,0 1,0 1,0 -1,-1 -1,-1 -1,-2 0,-1 0,-1 -1,-1 0,-1 -1,-1 0,-1 0,-1 0,-1 0,-2 1,-1 -2,-1 -2,-2 1,0 0,-1 0,-1 -1,0 -1,-1 0,-1 0,0 1,0 1,0l0 0 0 0c0,0 -1,-1 -1,-1 -1,-1 -1,-1 -1,-1 0,-1 1,-2 -1,-2 -1,-1 -1,-1 0,-1 1,-1 1,-1 0,-2 0,0 -1,0 -2,0 0,-1 1,-2 1,-2 1,-1 3,0 3,-1 0,-1 0,-1 1,-1 1,0 1,-1 0,-1 0,-1 -1,-1 -1,-2 -1,0 0,-1 0,-1 0,0 0,-1 0,-1 -1,0 -2,0 -2,-1 -1,0 -1,0 0,0 0,0 0,0 0,0 1,0 2,-1 1,-2 0,0 -1,-1 -1,-1 1,0 1,0 1,0 0,-1 1,-1 0,-2 -1,-1 -2,-1 -1,-2 1,0 2,-1 2,-1 0,-1 -2,-1 -2,-2 0,0 0,0 0,0 0,0 1,-1 2,-1 0,0 0,0 0,-1 0,0 -1,0 0,-1 0,0 0,-1 -1,-1 -1,0 -2,1 -3,1 0,0 0,0 1,-1 0,0 1,-1 0,-1 -1,-1 -1,-1 0,-2 1,0 1,0 1,-1 0,0 -1,-1 0,-1 0,0 0,-1 0,-1l1 0c0,-1 0,-1 -1,-1 0,0 0,0 0,0 0,0 -2,1 -2,1 -1,0 -1,0 -1,-1 0,0 0,-1 0,0 0,0 -1,0 -1,1 0,0 -1,1 -2,1 0,0 0,0 0,-1 0,0 1,-1 1,-2 0,0 0,0 0,0 0,0 0,0 0,-1 1,0 1,-1 1,-1 0,-1 -1,-1 -1,-2 0,0 0,0 1,0 0,-1 1,-1 1,-1 -1,-1 -2,-1 -1,-2 0,0 1,-1 1,-1 -1,0 -2,0 -2,0 -1,0 -2,0 -2,1 0,0 -1,0 -1,0 0,0 0,-1 -1,0 0,0 0,0 -1,0 0,0 0,0 0,0 0,-1 0,-1 -1,-1 -1,-1 -1,0 -2,-1 0,0 0,0 0,0 1,0 1,0 1,-1 1,-1 -1,-1 -2,-1 -1,0 -1,-1 0,-1 1,0 1,0 1,0 1,-1 -1,-2 0,-2 0,0 1,1 1,0 0,0 -1,-1 -1,-1 -1,-1 -2,-2 -1,-2 0,-1 1,0 1,-1 0,0 -1,-2 -1,-2 0,-1 0,-1 0,-1 0,-1 0,-1 0,-2 -1,0 -2,0 -2,-1 -1,0 -1,0 0,-1 1,0 1,-1 0,-1 -1,0 -2,-1 -2,-1 0,0 1,0 1,-1 0,0 0,0 0,0 -1,0 -1,0 -2,-1 -1,-2 0,0 -1,1 0,1 0,1 -1,0 0,0 -1,0 0,1 0,0 0,0 0,1 -1,0 -1,0 -1,1 -1,0 0,0 0,0 0,1 0,1 0,2 0,0 0,0 0,0 -1,1 -2,1 -2,1 -1,0 -2,1 -2,1 0,0 0,0 0,0 0,1 3,1 0,2 0,0 -1,0 -1,1 0,0 1,0 1,0 1,0 1,0 2,0 0,0 -2,1 -2,1 0,0 0,0 0,0l0 0c0,1 -1,1 -1,1 -1,0 -2,1 -1,1 0,1 2,0 3,0 0,0 -1,1 -1,1 -1,0 -1,1 -2,1 0,0 0,0 0,0 0,0 -2,1 -2,2 -1,0 2,-1 2,0 1,0 -1,1 -1,1 0,0 -1,1 -1,1 0,1 0,1 0,1 0,0 0,0 0,0 1,0 2,0 3,0 0,1 -2,0 -2,0 0,0 -1,1 -1,1 0,0 -1,0 -1,0 -1,1 -1,1 -2,2 0,0 1,0 1,0 1,0 1,0 1,1 0,1 0,1 0,1 1,0 2,0 3,1 0,0 0,0 0,1 -1,0 -2,0 -2,1 0,1 -1,2 -2,2 0,1 -2,2 -2,2 0,1 0,1 0,1 0,-1 2,-1 2,-1 1,0 0,2 0,2 -1,0 -1,1 -1,1 0,0 -1,0 -1,1 0,0 2,-1 2,-1 0,0 0,0 1,-1 0,0 1,-1 2,-1 0,0 1,1 1,1 0,0 0,0 1,0 0,1 1,2 2,2 1,1 1,1 1,0 0,-1 -1,-2 0,-2 0,0 1,0 1,-1 0,0 0,0 -1,0 0,-1 -1,-2 -1,-3 0,0 0,0 1,0 0,1 2,2 1,0 0,0 0,-2 0,-2 1,0 1,0 1,0 0,-1 0,-1 0,-2 0,0 0,-1 1,-1 0,0 0,2 1,2l0 0c1,-1 1,-2 2,-2 0,-1 1,1 1,1 0,0 1,1 2,1 0,0 1,-1 1,-1 1,-1 1,0 1,0 0,1 0,2 1,2 0,1 0,2 1,1 0,-1 0,-2 0,-3 0,-1 1,1 2,1 0,-1 0,-1 0,-2 0,0 0,-1 0,-1 0,0 1,-1 1,-1 0,0 0,0 0,0 0,0 1,0 1,-1 0,0 0,-1 1,-1 0,0 0,1 0,1 0,0 0,0 0,0 0,1 0,1 -1,2 0,0 -1,1 0,1 0,1 1,1 1,2 0,0 -1,1 -1,1 -1,0 -1,0 -1,1 -1,0 -1,0 -1,0 0,1 0,1 0,2 1,0 1,0 1,0 0,1 1,1 1,1 2,1 -1,2 0,2 0,0 0,0 1,1 1,1 0,1 -1,1 -1,0 -2,0 -1,1 1,1 2,1 1,2 0,1 -2,1 -2,2 0,0 0,2 -1,2 0,0 -1,0 -1,0 -1,0 0,1 0,1 0,1 0,1 0,1 0,0 -1,1 -1,1l0 0c0,1 1,2 0,1 -1,0 -1,-1 -1,-1 0,-1 0,-1 -1,-2 -1,0 -2,0 -2,-1 1,-1 1,-1 1,-2 0,0 0,-1 0,-1 0,0 0,0 1,0 0,-1 0,-2 2,-1 0,0 1,0 1,0l0 0c1,-1 -1,-2 -1,-2 0,-1 1,-1 0,-1 0,0 0,0 0,0 0,-1 0,-1 0,-1 0,0 1,-1 1,-1 0,0 -1,0 -1,0 -1,-1 0,-1 -1,-1 -1,0 -2,0 -2,-1l0 0c0,0 0,0 0,-1 -1,0 0,0 0,0 1,0 1,0 2,0 1,0 1,0 0,-1 0,0 0,0 -1,-1 0,0 0,0 0,0 -1,-1 -1,-1 -1,-1 0,0 -1,0 -1,0 0,0 -1,0 -1,-1 0,0 -1,0 -1,0 0,0 0,0 0,0 -1,1 -1,1 -1,1 1,0 1,1 1,1 0,1 -2,1 -2,2 0,0 0,0 1,0 0,1 1,1 1,1 0,1 -1,1 0,2 0,0 0,0 0,0 0,0 1,1 0,1 -1,0 -1,0 -2,0 0,0 1,2 1,2 -1,0 -2,-1 -3,0l0 0c0,0 0,1 0,2 -1,0 -1,0 -1,0 -1,1 -2,1 -1,2 0,0 1,0 1,1 0,0 0,0 0,1 0,1 1,1 1,2 0,2 -2,1 -3,1 -1,0 -1,1 0,1 0,0 0,1 0,1 0,1 0,1 0,1 0,0 1,0 1,0 1,1 1,1 2,1 1,1 -1,2 2,2 0,0 0,0 -1,0 0,0 0,0 -1,0 -1,1 -3,-1 -3,0 -1,0 0,1 0,1 0,0 1,0 1,1 0,0 -1,0 -1,0 0,1 0,1 0,1 0,1 0,0 0,0 -1,0 -1,-2 -2,-1 -1,0 -1,0 -1,0 0,-1 0,-1 -1,-1 -1,-1 -1,0 -2,-1 0,0 0,0 0,0 1,-1 2,-1 3,-1 0,0 0,0 0,-1 -1,0 -2,0 -2,-1 0,0 -1,-1 -1,-1 0,0 1,-1 2,-2 0,0 0,0 0,-1 0,-1 1,-1 0,-2 -1,0 0,0 0,0 0,-1 0,-1 1,-1 0,0 1,0 1,-1 0,0 0,-1 0,-1 0,0 0,-1 0,-1 0,0 -2,0 -1,-1 1,-1 1,-1 0,-2 0,0 0,0 -1,-1 -1,0 -1,-1 -1,-1 0,0 0,0 0,1 -1,0 -2,0 -2,1 -1,0 -3,0 -3,1 0,0 3,0 1,1 0,0 0,0 0,0 -1,1 0,1 1,1 0,0 2,0 1,1 -1,0 -3,0 -3,1 0,0 0,0 0,1 0,0 2,0 2,0 1,1 1,1 2,1 0,1 0,1 0,2 0,0 -2,-1 -2,-1 -2,-1 -2,0 -3,0 0,0 0,0 -1,0 -1,0 -1,0 -2,0 0,1 0,1 0,1 1,1 1,1 2,2 0,0 -2,1 -2,1 0,0 -1,0 -1,0 0,0 -1,0 0,1 0,0 2,1 0,1 -1,1 -2,1 -1,2 0,1 0,1 -1,2 0,0 0,1 0,1 1,0 2,0 2,0 0,0 0,1 0,1l0 0c0,1 0,1 1,1 1,1 1,1 2,1 -1,1 -3,1 -3,1 -1,1 -1,1 -1,1 0,1 -1,1 -1,3 0,0 0,0 -1,1 0,0 0,0 0,1 -1,1 0,0 1,0 1,0 2,0 1,1 0,0 -1,1 -1,1 0,1 1,0 2,0 0,0 1,0 1,1 0,1 -1,1 -2,1 0,0 0,0 -1,0 0,0 -1,0 -1,0 -1,0 -1,0 -1,1 0,1 0,1 -1,2 0,0 0,0 0,0 -1,1 -1,1 -2,1 -1,1 0,1 1,1 0,0 2,-1 3,-1 0,1 1,1 1,2 1,0 1,0 0,0 0,1 -1,1 -1,2 0,0 0,0 0,0 0,0 1,1 1,1 1,0 -2,0 -1,2l0 0c1,0 1,0 0,0 -1,-1 -1,-1 -2,-1 0,0 -1,0 -1,0 0,0 0,0 0,0 -1,1 -2,1 -1,2 0,0 0,1 0,1 -1,0 -2,1 -1,2 0,0 0,0 0,0 1,0 1,0 1,0 0,1 -1,2 -1,2 0,2 2,1 3,1 0,1 0,1 0,1 0,1 -3,3 -2,3 1,0 3,-1 3,0 0,1 0,1 0,2 -1,1 -4,1 -4,2 1,0 1,0 0,1l0 0c-1,2 0,2 0,4 0,0 0,0 0,0 0,1 0,1 -1,2 0,0 -1,0 -1,1 -1,1 -2,2 0,1 1,0 1,0 2,0 0,0 0,0 0,1 0,1 0,2 0,3 0,1 -1,1 -2,2 0,0 0,1 -1,1 0,1 -1,2 1,1 1,0 1,0 1,1 -1,1 -1,1 -1,1 -1,1 -2,1 -1,2 0,1 0,1 0,2 0,0 -1,1 -1,1 0,1 -1,1 -1,2 -1,2 0,1 1,2 0,0 -1,1 -1,1 -1,1 -3,2 -3,3 -1,1 0,0 0,0 1,0 3,-1 3,0 0,0 0,1 0,1 -1,1 -2,1 -2,2 -1,0 -1,1 0,1 0,0 1,0 1,1 0,0 -1,0 -1,1 0,0 0,1 0,1 -1,1 0,0 1,0 0,0 0,-1 1,-1 0,1 0,1 0,2 -1,0 -2,1 -2,2 -1,0 -3,2 -1,1 0,0 3,-1 3,0 0,0 0,1 0,2 -1,0 -1,0 -1,1 -1,1 -1,1 1,1 0,0 1,-1 1,1 0,0 0,0 0,0 -1,1 -1,1 -2,2 0,0 0,1 1,1 0,0 1,0 2,0 0,0 0,0 0,1 0,0 0,0 0,0 0,1 0,1 0,1 -1,1 -1,1 -1,2 -1,1 0,1 1,1 1,0 1,0 1,0 1,1 2,0 3,0 0,0 0,0 1,0 1,0 1,0 2,0 1,0 1,1 2,0 1,0 1,0 1,0 0,-1 0,-2 -1,-2 0,-1 0,-2 0,-2 0,-1 0,-1 1,-1 0,0 1,1 1,1 0,0 0,0 0,-1 0,0 -1,-1 -2,-1 0,0 0,-1 -1,-1 0,0 0,0 0,0 -1,0 -2,-1 -2,-1 0,0 0,0 0,-1 0,0 0,0 0,0 1,0 -1,-1 -1,-2 0,-1 1,-2 0,-2 0,-1 0,-1 -1,-2 0,-1 0,-1 0,-2 -1,0 0,0 0,-1l0 0c1,-1 0,-2 1,-2 0,-1 0,-1 0,-1 0,-1 0,-1 0,-2 1,0 1,0 1,-1 0,0 -1,0 0,0 0,-1 0,-1 1,0 0,0 0,1 1,1 0,-1 1,-2 1,-3 1,0 1,0 1,0 0,0 0,1 0,1 0,0 0,1 1,1 1,0 1,0 1,0 0,1 0,1 0,1l0 0c1,1 3,-1 3,0 0,1 0,1 0,2 0,0 0,1 1,1 -1,0 -1,-1 -1,-1 -1,0 -2,2 -3,2l0 0c0,-1 0,-2 -1,-3 0,0 -2,-1 -2,0 -1,0 -1,0 -1,0l0 0c0,1 -1,2 -1,2 0,1 3,0 2,1 0,1 0,1 0,1 -1,0 -1,1 -1,1 0,0 -1,1 0,1 1,0 0,0 0,1 0,0 0,0 0,0 1,1 0,1 0,2 -1,0 -1,1 -1,1l1 0c0,0 1,0 1,0 1,0 1,0 1,0 1,0 1,0 1,0 0,0 0,1 1,1 0,0 0,-2 1,-1 0,0 0,0 0,0 0,1 1,1 1,1 1,0 1,0 1,0 1,0 2,1 2,0 0,-1 0,-1 0,-1 0,-1 -1,-1 -1,-2 0,0 -1,-1 0,-1 0,-1 -2,-1 -1,-2 0,0 0,0 0,0 0,0 0,0 1,1 0,0 1,0 1,0 1,1 1,1 2,2 1,0 1,0 1,-1 0,-1 0,-2 -1,-2 0,-1 0,-2 1,-2 1,0 1,1 2,1 0,0 0,-2 0,-3 0,0 0,0 0,0 0,0 2,5 5,2l-1 5c0,0 -1,2 -3,3 -1,0 -2,2 -3,3 0,1 1,2 0,2 0,1 0,1 0,2 -1,0 -1,-2 -2,0 -1,1 -1,1 -2,2 0,0 0,0 0,1 -1,0 -1,0 -1,0 -1,0 -1,0 -1,0 0,1 0,2 0,3 0,0 -1,1 -2,1 0,0 -2,1 -1,1 0,1 1,0 2,1 0,0 0,1 0,1 1,0 1,1 1,1 0,0 0,0 0,0 0,1 0,1 0,1 0,0 0,0 0,0 0,1 0,1 0,1 -1,-1 0,2 0,2 -1,0 -2,-2 -3,1l0 0c0,1 0,1 0,2 0,0 0,0 -1,0 -1,1 -1,-1 -2,-1 0,0 -1,0 -1,1 -1,0 0,-1 -1,-1 0,0 -1,0 -1,-1 0,-1 1,-2 1,-2 0,-1 0,-1 0,-1 0,0 0,-1 0,-1 0,0 1,0 0,-2 0,0 -1,-1 -1,-1 0,0 1,-1 2,-1 0,0 0,0 1,0 1,1 1,1 1,2 0,1 0,1 0,2 0,0 0,0 0,0 1,0 0,0 0,0 0,-1 0,-1 1,-2 0,0 1,0 1,0 0,-1 -2,-1 -2,-3 1,0 1,-1 1,-1 0,0 0,0 0,0 -1,-1 -1,0 -2,0 0,1 0,1 -1,1 0,0 0,0 -1,0 -1,0 -2,0 -3,0 -1,-1 -1,-1 -1,-1 0,0 0,0 0,0 -1,0 -1,-1 -1,-1 0,0 -2,2 -1,2 0,0 1,0 1,1 1,0 0,0 0,1 0,0 -2,2 -2,3 0,0 0,0 0,0 1,0 2,-1 2,-1 1,0 -1,2 -1,2 0,0 -2,1 -1,1 1,0 2,0 3,0 0,0 0,0 0,1 0,0 0,1 -1,1 -1,1 -4,1 -4,1 -1,0 0,0 0,0 1,1 4,1 2,2 -1,0 -2,1 -3,1 0,1 0,1 1,1 0,1 1,1 0,2 0,1 -1,1 -1,2 -1,0 -2,2 -2,2 1,1 2,0 2,0 0,0 0,1 1,1 0,0 0,0 0,1 -1,0 -1,0 -1,1 -1,0 -1,1 -1,1 0,1 0,0 1,0 0,0 1,0 0,1 0,0 0,0 0,1 0,0 -1,2 1,1 1,0 1,1 0,1 0,0 0,1 0,1 0,1 1,0 1,1 0,1 -1,2 -1,2 0,1 -2,2 -1,3 0,0 0,0 0,0 0,-1 1,-1 1,-2 1,0 2,-1 2,0 1,0 0,1 -1,2 -1,1 -2,2 -3,2l0 0c0,1 0,1 0,1 1,0 2,-1 3,-1 1,-1 3,-1 1,0 -1,1 -2,2 -3,3 -1,1 -1,0 0,0 1,0 2,0 3,-1 0,0 1,0 1,0 0,1 0,1 -1,2 0,1 -1,1 -2,2 0,0 0,0 -1,0 -1,1 -2,1 -3,2 -1,0 1,0 2,0 0,0 1,0 1,0 1,0 0,1 0,2 0,0 -2,1 -1,1 1,0 2,-1 2,-1 1,0 2,-1 2,0 0,1 -1,3 0,2 0,0 1,0 1,1 0,0 -1,2 -1,3 0,0 0,0 0,0 1,-1 3,-4 3,-1 0,1 0,3 0,3 1,0 1,-1 1,-1 1,1 0,3 1,2 0,0 1,-1 1,-1 0,0 1,-1 1,0 1,0 0,1 -1,2 0,0 -1,1 -1,1 0,0 1,0 1,0 0,0 1,-1 1,-1 1,0 1,1 1,2 0,1 0,0 1,0 0,-1 0,-1 1,-1 0,-1 1,-2 1,-2 1,0 1,1 1,2 0,2 1,0 1,0 1,-1 1,0 1,1 0,0 -1,1 -1,1 0,0 0,1 0,1 0,0 1,-1 1,-1 0,0 1,-1 1,-1 0,-1 0,-1 1,-1 1,0 1,-2 2,-3 0,-1 0,0 1,0 1,0 1,-1 2,-1 0,0 0,0 0,-1 0,0 -1,-1 -1,-2 1,0 1,0 1,0 0,-1 1,-1 1,0 0,1 0,2 1,3 0,1 0,0 0,-1 0,-1 1,-2 1,-4 0,-1 0,-1 0,-2 0,-1 0,-2 -1,-3 0,0 0,0 0,-1 0,0 0,-2 0,-2 0,0 0,1 1,0 0,0 -1,-1 -1,-1 0,0 -1,-1 -1,-2 -1,-1 -1,2 -1,2 0,1 0,2 0,3 0,0 -1,0 -1,1 0,1 -1,1 -1,2 -1,1 -1,2 -2,2 0,1 -1,3 -2,2 0,0 0,-1 0,-2 0,-1 0,-1 -1,-1 0,0 -1,1 -2,1 -1,0 0,-1 0,-1 0,0 1,-1 1,-1 1,0 3,0 2,-2 0,0 0,-1 0,-1 0,0 0,-1 0,-1 -1,-1 -1,-1 0,-1 1,0 1,0 2,0 0,1 1,0 1,0 0,0 0,0 0,0 0,-1 -1,-1 -1,-1 0,0 0,0 0,0 1,-1 1,-1 2,-2 0,0 -2,0 -2,-1 0,0 2,-1 1,-2 0,0 0,0 0,0 -1,0 -2,1 -3,1 -1,1 0,-1 -1,-1 -1,0 -2,1 -2,0 0,0 0,0 0,0 0,-1 0,-2 0,-2 0,-1 1,-3 -1,-2 0,0 -1,1 -2,0 0,0 0,-1 0,-2 -1,0 -1,0 -1,0 -1,0 -1,0 -2,0 -1,0 -1,0 0,0 1,-1 1,-1 2,-2 1,0 1,0 0,-1 -1,-1 -1,0 -2,0 -1,0 -1,0 -1,0 0,-1 0,-1 -1,-1 0,0 0,0 0,0 -1,-1 -1,-1 0,-1 0,0 1,0 1,0 1,0 1,0 1,-1 1,-2 2,0 2,1 1,0 1,0 2,0 1,0 0,2 1,3 1,0 2,-2 2,-3 1,0 1,1 2,0 1,0 0,-2 0,-3 -1,-1 0,-1 0,-1 0,-1 -1,-1 0,-1 0,0 1,2 1,2 1,0 0,-2 0,-2 0,-2 -1,-2 -2,-3 0,-1 0,-1 0,-2 0,0 1,0 2,-1 0,0 1,0 1,0 1,1 1,2 1,3 1,1 1,-1 1,-2 1,0 1,0 1,0 1,0 1,1 1,1 1,0 1,0 1,0 1,-1 1,-1 2,-2 0,0 0,-1 1,-1 0,-1 0,-1 0,-1 1,1 1,1 1,2 -1,0 -1,2 0,2 1,-1 1,-1 1,0 -1,0 -1,1 0,1 1,0 2,0 2,1 0,1 -1,1 -1,2 0,1 0,1 1,1 0,-1 1,-1 1,0 0,0 0,0 1,1 1,0 1,-1 2,-1 1,0 1,0 1,0 1,1 1,1 1,1 0,0 -1,-1 -1,0 0,1 0,1 0,2 1,1 0,1 -1,1 0,-1 -1,-1 -1,-1l0 0c-1,1 -1,2 -2,1l0 0c0,0 0,-1 -1,-1 -1,-1 -1,-1 -1,-2 0,0 -1,0 -1,0 0,0 0,0 0,0 0,-1 -1,-1 -1,-1 0,-1 -1,-2 -2,-1 0,0 -1,0 -1,0 0,0 -1,1 -1,1 0,0 -1,0 -2,1 0,0 1,1 0,1 0,1 0,1 0,1 0,0 -1,0 -1,0 -1,0 -1,0 -2,1 0,0 0,1 0,1 -1,0 -2,1 -2,1 -1,1 -2,1 -1,2 0,0 0,0 0,0 1,-1 1,-1 2,0 0,0 0,0 0,0 2,0 3,-1 2,1 0,0 0,1 0,1 0,1 1,0 1,-1 1,0 2,-2 3,-2 0,1 0,2 0,2l1 0c0,0 1,-2 2,-2 0,0 0,1 1,1 0,0 1,0 0,0 0,1 -1,2 -1,3 0,0 -1,1 0,1 0,0 1,-1 1,0 1,0 1,0 1,0 1,-1 1,-2 2,-2 0,0 0,0 0,0 0,0 1,0 1,1 0,0 0,0 1,0 1,-1 0,-3 1,-3 0,0 0,1 0,1 1,1 1,1 2,1 0,-1 1,-2 1,-1 0,0 0,1 0,1 -1,1 0,1 1,1 0,0 1,-1 1,-1 0,0 0,0 0,1 0,0 0,1 0,1 1,0 1,2 1,2l0 0c-1,1 -1,-1 -2,-1 0,0 0,-1 -1,-1 -1,0 -1,1 -2,0 0,0 0,0 -1,0 -1,0 0,1 0,2 -1,0 -2,-1 -2,-1l0 0c0,0 0,0 0,0 -2,0 -1,2 -1,2 0,0 -1,0 -1,0 0,0 -1,0 -1,0 -1,0 0,0 0,0 0,1 1,2 0,2 -1,0 -2,0 -2,0l0 1c0,0 0,1 0,1 0,0 0,1 0,1 0,0 1,1 1,2 0,1 1,2 1,3 0,0 0,0 0,0 0,1 1,3 0,5 -1,0 -1,1 -1,2 0,1 0,2 0,3 0,1 1,3 2,3 1,0 0,0 0,-1 -1,0 -1,-2 -1,-3 1,-1 1,0 2,0 0,0 0,0 0,1 1,1 1,1 1,2 1,1 2,2 3,2 1,1 0,-1 -1,-1 0,0 0,-1 0,-2 0,0 1,0 1,0 0,1 1,1 1,1 0,0 0,0 0,0 1,0 2,1 2,1 0,0 3,2 2,1 -1,-1 -2,-2 -3,-4 0,-1 0,-1 0,-2 0,-1 2,0 1,-1 0,0 -2,-2 -2,-2 1,0 2,0 3,0 0,1 2,1 2,1 0,0 0,0 0,0 0,0 -1,-1 -2,-2 -1,0 -1,-1 -2,-1 0,-1 0,-2 0,-2 0,0 2,0 2,0 0,0 0,0 0,0 0,-1 0,-1 -1,-1 0,0 -1,-1 0,-1 0,0 0,0 0,0 -1,-1 -2,-2 -2,-2 0,-1 1,0 2,0 1,0 0,-2 1,-2 0,-1 0,-1 0,-1 0,0 1,0 1,0l0 0c0,1 0,1 0,1 0,1 0,1 0,1l0 0c1,1 2,0 2,2 1,1 0,2 0,2 0,1 1,0 1,0 1,0 1,0 1,1 0,0 1,2 1,1 1,-1 0,-2 1,-2 1,0 1,0 2,0 1,0 0,-1 0,-2 0,0 1,0 1,0l0 0c1,-1 0,-3 1,-3 1,0 1,0 1,-1 0,0 0,0 0,0 0,0 0,-1 0,-1 1,-1 1,-1 2,-1 0,0 0,-1 0,-1 -1,-1 -1,-2 -2,-3 0,0 -1,0 -1,-1 0,-1 0,-1 -1,-2 0,0 0,0 0,0 -1,-1 0,-1 1,-1 0,-1 1,-1 1,-1 0,-1 0,-2 -1,-2 0,-1 0,-1 0,-2 0,0 2,0 2,0 0,-1 0,-1 0,-1 0,-1 0,-1 1,-2 0,0 0,0 0,0 0,-1 0,-1 -1,-2l0 0c0,0 0,-1 0,-1 0,-1 0,-1 0,-1 0,-1 -1,-1 -1,-2l0 0c0,-1 1,-1 -1,-2l0 0c0,-1 -1,-1 -1,-2 0,0 1,0 1,-1 0,0 0,-1 -1,-1 0,-2 0,-2 0,-3 0,-2 -1,-1 -1,-2 0,-1 1,-3 -1,-2 0,0 0,0 0,0 0,1 -1,2 -1,2 -1,0 0,0 -1,1 0,0 -1,0 -1,1 0,1 0,1 0,0 -1,0 -2,0 -2,0 -2,-1 1,1 1,1 0,1 2,2 2,3 0,0 -3,0 -1,1 0,0 2,0 2,1 0,1 0,1 0,1 0,1 0,1 -1,1 0,0 -2,0 -2,1 0,0 1,0 1,0 1,1 1,1 1,1 1,0 2,0 3,1 0,1 0,1 0,1 0,1 0,1 0,1 0,1 0,1 -1,1 0,0 -1,-1 -1,-1 0,1 1,2 1,2 0,0 1,1 1,2 -1,0 -2,-1 -3,-1l0 0c0,1 2,3 1,3 -1,0 -1,0 -1,1 -1,0 -1,-1 -1,0 -1,1 0,1 -1,1 -1,1 -3,1 -2,2 0,0 1,0 1,1 0,0 -1,-1 -1,-1 -1,-1 -1,-1 0,-2 0,0 1,0 1,-1 0,0 -1,0 -1,-1l0 0c0,0 0,0 0,0 -1,0 0,-1 -1,-1 -1,0 -1,0 0,-1 0,0 1,-1 1,-1 1,0 2,-1 2,-2 -1,0 -1,0 0,-1 0,0 0,0 0,0 -1,-1 -2,-1 -2,-1 0,-1 0,-1 -1,-1 0,0 0,0 0,-1 -1,0 -1,0 -2,0 0,0 -1,-1 -1,-1 0,-1 0,-2 -1,-2 -1,0 0,-1 0,-1 0,-1 0,-1 -1,-2 -1,0 0,-1 0,-1 0,-1 0,-1 0,-1 0,-1 1,-2 1,-2 0,-1 0,-1 -1,-1 0,1 0,0 -1,0 -1,-1 -1,0 -1,1 -1,1 -1,-1 -2,-1 -1,1 -2,1 -3,1 -1,1 -2,1 -3,1 0,1 0,0 0,0 0,-1 2,-2 1,-2 0,-1 -1,-1 -1,-1 -1,0 -1,0 -2,0 0,-1 1,-1 1,-1 2,-2 -2,-2 -2,-3 0,0 0,0 0,0 1,0 2,1 2,0 0,-1 0,-2 0,-3 1,0 1,0 1,0 1,1 1,0 2,0 0,-1 0,-2 0,-2 1,-1 1,-1 1,-2 0,0 1,-3 1,-3 1,0 1,1 1,2 0,0 0,1 0,1 1,0 1,-1 1,-1 0,0 0,-1 0,-1 0,-1 0,-4 0,-4 0,-1 1,1 1,1 0,0 0,1 0,1 1,0 1,-1 1,-1 0,-1 1,-3 1,-2 1,0 1,0 1,0 1,1 0,3 2,2 1,-1 1,-1 1,0l0 0c1,0 1,1 1,2 1,0 1,-1 2,0 0,0 0,0 1,0 0,1 0,1 0,2 0,1 1,1 2,1 1,-1 1,-1 1,0 0,1 0,1 0,2 1,1 1,-1 2,-1 1,0 1,0 1,0 0,0 1,-1 1,0 0,1 -1,2 -1,2 0,1 1,0 1,0 1,-1 1,-1 2,-2 1,-1 1,0 2,0 0,-1 0,-1 0,-1 0,0 1,-1 1,-1 0,-1 0,-1 0,0 0,0 0,2 0,2 0,1 1,0 1,1 -1,1 -1,1 -1,2 1,0 1,0 1,0 1,-1 1,0 1,-1 1,0 1,0 1,0 1,0 1,0 1,0 1,0 1,0 1,-1 0,0 0,0 0,0 0,-1 2,1 2,-1 0,0 -1,0 -1,0 0,0 -1,0 0,0 0,0 0,-1 0,-1 0,-1 0,-3 0,-3 0,0 1,0 1,0l1 0c0,0 0,0 -1,1 0,1 1,1 1,3 0,0 0,0 0,0 0,1 1,1 1,1 0,0 0,0 0,0 0,-1 1,0 2,1 0,0 1,0 1,0 0,-1 -2,-3 0,-3 0,0 1,0 0,-1l0 0c0,0 0,-1 0,-1zm-25 -69c0,0 -1,0 -1,0 -1,0 -1,1 -1,1 -1,0 -1,0 -1,0 -1,0 -1,-1 -2,0 -1,1 -1,3 -2,3 0,1 0,0 0,0 -1,0 -1,0 -1,-1 0,0 -1,0 -1,0 0,-1 1,-3 0,-3 0,-1 0,-1 0,-1 0,-1 1,-1 1,-2 0,-1 0,-1 0,-1 -1,0 -2,0 -2,0 0,1 0,1 0,2 0,0 0,0 -1,0 -1,0 -1,1 -2,1 -1,0 0,0 0,0 0,-1 1,-2 1,-3 0,-1 -1,0 -1,0 -1,0 -1,-1 0,-2 1,0 1,0 2,-1 1,0 2,0 2,-1 1,-1 1,-1 2,-1 0,0 0,0 -1,0 0,0 0,0 -1,1 -1,0 -2,0 -3,0 0,0 0,0 0,0 0,-1 0,-1 0,-1 0,0 0,-1 -1,-1 0,0 -1,1 -2,2 0,0 0,0 0,1 0,1 -1,1 0,2 0,1 0,1 -1,1 -1,0 -1,0 -1,1 0,0 0,0 0,0 0,0 -1,-1 -1,-1 -1,0 -1,0 -1,1 0,0 0,1 0,1 -1,1 -1,1 0,2 0,0 2,0 2,1 0,0 -1,1 -1,1 -1,0 -1,0 -1,0 -1,0 -1,0 -2,0 0,0 0,1 0,1 0,1 -1,0 -1,0 -1,0 -1,0 -1,1 0,0 -1,1 -1,1 -1,0 -1,0 -2,0 0,1 1,1 1,1 0,0 0,0 1,0 0,0 1,0 1,0 1,-1 1,-1 2,0 1,0 1,0 1,0l1 0c1,0 0,-1 2,-2 0,-1 1,-1 2,-2 1,-1 2,-1 4,-1 1,1 0,1 0,2 -1,0 -1,0 -1,1 0,1 -1,1 -1,1 -1,0 -2,0 -1,1 0,0 1,1 0,1 -1,1 -2,1 -1,2 0,0 0,0 0,0 2,0 6,-1 6,0 0,1 -1,1 0,1 0,1 1,1 0,1 -1,1 -2,1 -3,2 0,0 0,1 -1,1 0,1 0,1 0,2 0,0 0,0 0,0 -1,0 -1,-1 -2,0 -1,0 -2,0 -2,1 0,0 -1,-1 0,-1 0,0 0,0 0,0 1,-1 2,-2 3,-3 -1,-1 -2,0 -2,-1 -1,0 -1,0 0,-1 0,0 0,-1 0,-1 0,-1 -1,-1 -1,-1 -1,1 -1,1 -2,2 -1,2 -1,3 -1,4 0,1 0,1 -1,1 0,-1 0,-1 -1,-1 -1,0 -1,1 -2,1 -1,0 0,-2 0,-2 0,-1 -1,-1 -1,-1 0,-1 2,-3 0,-2 -2,1 -1,2 -2,3 0,1 -1,0 -1,1 -1,1 1,2 1,2 -1,1 -2,2 0,2 1,0 1,0 2,1 1,0 -1,0 -1,1 0,0 0,0 0,1l0 0c1,0 2,0 1,1 0,0 -1,0 -1,0 -1,1 -1,1 -2,1 -1,0 -1,0 -1,1 0,1 -1,3 0,3 1,0 2,0 3,0 0,-1 1,-1 1,0 0,0 0,0 0,1 0,0 0,0 0,0 1,0 1,0 1,1 -1,1 -1,2 -2,3 0,1 1,0 2,0 1,0 0,2 2,1 0,0 1,0 1,0 0,-1 0,-1 1,-1 0,0 1,0 1,-1 0,-1 -1,-1 -1,-2 0,-1 0,-2 0,-3 0,0 -1,-1 -1,-1 0,0 -2,-1 -2,-1 0,0 0,0 0,0 0,0 1,0 1,0 1,0 2,0 3,0 1,0 2,-1 2,-1 0,0 0,-1 0,-1 0,0 -1,0 0,-1 0,-1 0,-1 1,0 1,0 1,0 1,-1 1,0 1,0 1,0 0,-1 1,0 1,1 1,0 1,0 1,-1 1,0 1,-1 2,-2 0,0 0,0 0,1 0,0 1,0 1,1 0,0 1,-1 1,-1 0,0 0,0 1,0 0,-1 -1,0 -1,1 0,0 -1,0 -1,1 -1,0 -1,1 -1,2 0,0 0,0 0,0 0,0 -1,0 -2,0 0,0 0,0 0,0 -1,1 0,2 0,3 -1,0 -2,-1 -2,-1 -1,0 -1,-1 -2,0l0 0c-1,0 0,1 0,1 1,2 1,2 -1,2 0,0 -1,0 -1,1 0,0 1,0 1,0 1,1 2,2 3,2 0,0 0,0 0,0 -1,1 0,2 -1,3 0,1 0,2 -1,2 -1,0 -1,-1 -1,-1 0,0 -1,2 -2,3 0,0 0,-2 0,-2 -1,0 -2,2 -2,2 -2,3 -1,0 -2,0 0,0 0,1 0,1 0,0 0,1 0,2 0,0 -1,0 -2,0 -1,1 -1,1 -1,0 -1,-1 -1,-1 -2,0 -1,1 -1,1 -2,1 0,0 -1,0 -1,0 0,0 1,0 1,0 1,0 1,0 2,-1 0,0 0,0 1,0 0,0 0,2 0,2 1,1 1,1 1,2l0 0c0,1 0,1 1,0 0,-1 0,-2 1,-2 0,0 1,1 1,1 1,0 1,0 1,1 1,0 1,1 1,1 0,1 1,2 1,2 1,-1 1,-2 1,-2 1,0 1,1 2,2 0,1 1,1 1,2 0,0 0,1 1,1l0 0c0,0 1,-2 1,-2 1,-1 1,0 1,-1 0,-1 -1,-2 0,-3 0,0 0,0 0,1 0,0 1,1 1,1 1,1 2,1 2,1 1,0 1,0 1,0 0,0 1,2 1,2 1,0 1,1 2,1 0,0 -1,-1 -1,-2 1,0 2,1 2,0 0,0 -1,-2 -1,-2 0,0 1,0 1,0 0,0 1,2 2,2 0,0 0,1 1,0 0,0 0,-2 0,-2 1,0 1,0 1,0 0,0 1,0 1,0 0,-1 0,-2 1,-2 0,-1 1,-1 1,0 1,0 1,-1 2,-1 0,-1 1,-2 2,-1 0,1 0,1 1,1 0,0 0,0 0,0 1,1 2,1 3,2 1,1 1,1 2,2 1,1 1,0 0,2 0,0 0,1 0,1 -1,1 -1,1 -1,0 0,-1 0,-3 -1,-3 0,0 0,0 0,0 -1,0 -1,0 -1,1 0,0 0,1 0,1 0,0 0,0 0,0 -1,-1 -2,-3 -2,-1l0 0c0,1 0,2 0,2 0,1 0,1 0,1 -1,0 -2,-1 -2,-2 0,0 -1,-1 -1,0 0,1 0,2 0,2l-1 0c0,0 -1,-2 -2,-1 0,0 0,0 0,1 -1,1 0,2 1,3 0,1 -2,-1 -2,1 0,1 0,2 1,2 0,0 -1,0 -1,0 -1,-1 -1,-2 -2,-2 -1,-1 -1,1 -1,1 0,1 0,1 0,1 -1,0 0,-3 -1,-3 -1,0 -1,2 -2,2 0,0 0,0 0,0 1,0 1,-1 2,-1 0,0 0,1 0,1 0,1 0,2 1,2 0,0 0,0 0,0 1,0 1,0 2,1 0,0 0,0 0,0 1,0 1,0 1,0 1,-1 1,-1 2,-1 0,0 0,0 0,0 1,0 0,2 0,2 0,1 0,1 1,1 1,0 0,2 1,1 1,0 2,-1 2,0 0,1 0,2 1,1 1,-1 1,-2 2,-2 0,0 0,3 1,3 0,0 0,0 0,0 0,0 1,0 1,0 1,0 1,-3 2,-2 0,0 0,0 0,0 1,0 1,-2 1,-3 0,0 0,-1 0,-1 0,0 0,-1 0,-2 0,-1 -1,-1 -1,-2 0,-1 1,0 1,0 1,0 2,1 2,1 0,0 1,0 1,0 0,-1 0,-1 0,-2 0,0 0,0 0,0 -2,-2 -4,-3 -2,-4 0,0 1,-1 1,-1 0,-1 -2,-1 -1,-2 0,-1 2,0 2,-1 0,-1 -1,-1 0,-1 0,0 2,0 2,-1 0,-1 -2,-1 -1,-2 1,0 1,0 1,0 0,-1 1,-1 1,-1 1,0 2,0 2,-1 0,0 0,0 0,0 -1,-1 -2,0 -3,0 0,-1 0,-2 1,-2 0,0 0,0 0,0 0,-1 1,-1 1,-1 -1,0 -1,0 -1,0 -1,0 -2,1 -3,1 0,0 0,-1 0,0 0,0 0,1 0,2l0 0c1,1 0,1 -1,2 -1,0 -1,1 -2,1 -1,1 -2,1 -2,0 0,-1 0,-1 0,-1 -1,0 -2,0 -2,0 -1,0 0,-1 0,-1 1,-1 2,-1 2,-2 0,0 -1,0 -1,-1 0,-1 1,-1 1,-2 0,-1 1,-1 1,-1 0,-1 1,-2 1,-2 0,0 -1,1 -1,1 -1,2 -1,-1 -2,-1 0,0 -1,0 -1,0 0,1 1,2 1,3 0,1 -1,1 -1,1 0,0 0,0 0,1 -1,0 -1,-1 -1,0 -1,1 -1,0 -2,0 -1,0 -1,2 -2,2 -1,-1 -1,-1 -2,-1 0,1 -1,1 -1,1 -1,1 -1,1 -1,1 -1,1 -1,2 -2,2 0,-1 -1,-2 -1,-1 -1,1 -1,2 -2,2 0,0 0,-1 0,-2 0,0 1,-2 0,-2 0,0 -1,1 -1,2 -1,0 -1,-2 -1,-2 0,0 0,-1 0,-1 -2,0 -2,0 -3,1 -1,1 0,-1 -1,-1 -1,0 -2,1 -2,1 -1,0 0,-2 -2,-2 0,0 0,0 0,0 0,0 1,0 1,0 1,0 1,0 2,0 1,0 1,0 2,0 0,0 1,0 1,0 0,0 0,0 0,0 1,0 3,-1 4,-1 0,-1 0,-1 0,-1 1,0 1,0 1,0 1,0 1,0 2,0 0,0 1,0 1,0 1,-1 0,-2 0,-2 0,-1 1,0 2,0 0,1 1,1 2,1 0,0 0,0 1,0 0,-1 -1,-1 -1,-2 0,0 2,-1 1,-2 0,0 -1,0 -1,-1l1 0c0,0 1,0 2,0 0,0 1,0 1,-1 0,0 0,0 0,0 1,-2 4,2 4,-1 0,-1 0,-1 0,0 0,0 1,0 1,0 0,0 1,1 1,1 1,0 1,0 1,0 1,-1 0,-1 1,-2 1,0 1,0 1,-1 1,0 1,-1 1,-1 1,0 1,0 2,-1 0,0 0,0 0,0l0 0c-1,-1 -2,-1 -3,-1 -1,0 -2,1 -3,1 -1,0 -1,-2 -1,-2 0,-1 0,-1 0,-1 0,-1 -1,-2 0,-3 0,-1 -1,1 -1,1 -1,0 -1,-2 -1,-2 -1,0 -1,0 -1,0 0,1 0,2 0,2 0,1 0,2 -1,3 0,0 0,-1 0,-1 -1,-1 -1,-2 -2,-2 0,0 0,0 0,1 0,0 0,0 0,0 -1,0 -1,1 -1,2 0,1 0,2 0,3 0,1 0,2 -1,2 0,0 0,0 0,0 -1,-1 0,-1 -1,0 -1,0 -2,1 -3,1 -2,1 -2,3 -3,3 0,0 0,-2 -1,-2 0,0 -1,0 -1,0 0,1 -1,2 -2,2 0,0 0,0 -1,1 0,0 -1,0 -1,-1 0,-1 0,-1 -1,0l0 0c-1,0 -1,0 -2,1 -1,0 -1,-1 0,-1 0,-1 1,-2 2,-3 0,0 0,-1 1,-2 1,-1 2,-1 3,-2 0,0 1,-1 1,-1 0,-1 0,-3 1,-2 1,0 1,1 2,1 0,-1 0,-1 0,-1 0,-1 0,-1 0,-2 0,-1 0,-2 1,-1 1,1 1,1 1,0 1,-1 1,-2 1,-2 -1,-1 -1,-1 -1,-2 0,0 0,-1 0,-2 0,0 0,0 0,0 0,0 1,1 1,1 1,1 1,0 1,-1 0,-3 2,1 3,1 0,-1 0,-2 0,-2 1,0 1,0 1,0 0,0 0,-1 0,-1 0,-1 -2,-1 -3,-1 0,0 -1,0 -1,-1 1,0 1,0 1,-1 0,-1 0,-1 1,-2 0,-1 0,-1 -1,0 0,0 -2,1 -2,1 0,-1 0,-1 0,-2 0,0 1,-1 0,-1 0,0 -2,2 -2,3 -1,0 -1,1 -2,1l0 0c-1,0 0,-1 0,-2 0,0 1,-1 1,-1 0,-1 -1,-1 -1,-1 -1,-1 2,-2 2,-3l0 0c0,0 0,-1 0,-1zm6 -5c0,0 1,-1 1,-1 0,0 1,0 1,0 0,0 0,0 0,0 -1,0 -2,0 -2,0 0,-1 0,-1 -1,-1 0,-1 0,0 -1,0 0,0 0,-1 -1,-1 0,-1 -1,-1 1,-1 0,-1 2,0 3,0 -1,0 -1,0 -1,0 -1,0 -1,-1 -2,-1 -1,0 -1,0 -2,0 0,0 0,0 -1,0 0,1 0,3 0,3 -1,0 -1,-3 -2,-3 -1,1 0,2 -1,1 -1,-1 -2,-1 -1,0 0,1 0,3 -1,3 0,0 0,0 0,0 -1,0 -1,0 -1,1 0,0 0,0 0,1 1,0 1,1 2,1 0,0 1,0 1,1 0,0 1,0 1,0 1,0 1,0 1,-1 0,0 0,-1 1,-1 0,0 0,0 0,0 1,0 1,0 1,-1 0,0 1,0 1,0 1,0 2,2 3,1 0,0 0,0 0,-1l0 0zm-21 -6c-1,-1 -2,0 -2,-1 -1,0 -1,0 -1,0 -1,0 -1,0 -1,0 0,1 -1,2 -2,1 0,-1 -1,-2 -1,0 0,0 -1,1 -1,1 0,0 0,0 0,0 -1,0 -1,-1 -2,-1 0,1 0,1 0,1 -1,0 -2,1 -2,1 0,0 0,0 1,0 0,0 0,0 0,0 1,1 1,1 1,1 0,1 0,1 0,2 0,0 0,1 0,1 0,1 1,1 1,0 0,0 1,-1 2,0 0,0 0,0 0,0l1 0c0,0 0,0 0,0 1,-1 0,-3 2,-3 0,0 0,0 0,0 1,0 1,0 1,-1 1,0 1,0 2,0 0,0 0,0 1,0 0,0 1,-2 0,-2l0 0zm6 -3c1,0 2,0 2,0 0,0 1,-1 1,-2 0,0 -2,-2 -2,-2 0,0 -2,-2 -3,-1 -1,1 -3,1 -3,2 0,1 1,2 1,2l2 3 2 -2zm8 -13c-1,-1 -2,0 -3,0 0,1 -2,2 -2,1 0,-1 2,-2 1,-3 0,0 0,0 0,-1 0,0 0,0 1,-1 0,0 0,-1 0,-1 -1,0 -1,0 -1,-1 0,0 1,-1 1,-2 0,0 0,0 0,-1 0,0 0,0 0,0 0,-1 0,0 -1,0 0,0 -1,0 -1,1 0,1 0,1 -1,1 0,0 -1,-1 -1,-1 -2,0 1,3 1,3 1,1 1,1 1,2 0,1 0,1 0,1 -1,0 -2,0 -2,1 0,1 0,1 1,1 0,1 0,1 1,1 0,1 1,1 1,1 1,0 1,0 2,0 0,0 0,0 0,1 0,0 0,1 0,1 0,1 0,1 0,1 0,1 0,1 -1,1 -1,-1 -1,0 -2,0 -1,1 -1,0 -2,1 0,0 3,0 4,1 1,0 1,1 2,1 0,0 1,0 0,1 0,1 0,2 1,2 1,0 1,0 2,-1 1,0 0,-1 1,-2 0,0 1,0 1,0 2,1 1,-1 1,-1 1,0 1,-1 2,-1 0,1 2,1 2,1 0,-1 -2,-1 -3,-2 0,-1 0,-1 1,-2 0,0 0,0 0,0 0,-1 0,-1 1,-1 0,0 1,0 2,0 0,0 -1,-1 -1,-1 0,-1 -1,-1 0,-2 0,0 0,0 1,0 0,0 1,0 1,0 0,-1 0,-2 1,-2 0,0 0,0 0,-1 -1,-1 -1,-1 -1,-1 -1,1 -1,1 -1,1 -1,0 -1,0 -1,0 -1,1 0,2 -1,3 -1,0 -2,-1 -3,1 0,1 0,1 0,1 -1,1 -1,1 -1,1 -1,0 -1,0 -1,0 0,1 0,1 -1,1l0 0c0,0 0,-1 0,-1 -1,0 -1,0 -1,-1 0,0 1,-1 0,-2l0 0c0,0 0,0 -1,0z"/></g><text x="0" y="248" fill="#000000" font-size="5px" font-weight="bold" font-family="'Helvetica Neue', Helvetica, Arial-Unicode, Arial, Sans-serif">Created by ayex</text><text x="0" y="253" fill="#000000" font-size="5px" font-weight="bold" font-family="'Helvetica Neue', Helvetica, Arial-Unicode, Arial, Sans-serif">from the Noun Project</text></svg>