<svg xmlns="http://www.w3.org/2000/svg" xmlns:xlink="http://www.w3.org/1999/xlink" version="1.1" x="0px" y="0px" viewBox="0 0 100 125" style="enable-background:new 0 0 100 100;" xml:space="preserve"><g><path d="M50.3,7H50C36.9,7,26.3,17.3,26.3,30.5c0,4.3,1.1,8.2,3.1,11.7l1.9-4.4l3.2,0l0.5,1.2l-1.8,2.7l2.6-1l0.5,0.9L34.6,45   l2.7-1.7l0.6,1l-2.6,5.9l4.1-4.2l0.9,0.9l-0.8,3.9l2.6-2.4l1.2,0.6l-1.5,6.3l3.2-5.4l1.9,1.4L50,93h0.3l3.1-41.8l1.9-1l3.2,5.2   l-1.5-6.3l1.2-0.7l2.6,2.3l-0.8-3.9l0.9-0.9l4.1,4.2l-2.6-5.9l0.6-1l2.7,1.7L64,41.6l0.5-0.9l2.6,1l-1.8-2.8l0.5-1.2l3.2-0.1   l1.9,4.4c2-3.5,3.1-7.2,3.1-11.5C74,17.3,63.4,7,50.3,7z M40.7,22.3c-0.3,1.3-1,2.3-1.9,2.6c-0.1,0.7-0.1,1.4-0.1,2.2   c0,7,2.9,12.8,6.6,13.4c-0.2,0-0.5,0.1-0.7,0.1c-4,0-7.3-6-7.3-13.5c0-0.8,0-1.6,0.1-2.3c-0.8-0.5-1.2-1.8-0.9-3.2   c0.3-1.5,1.3-2.6,2.4-2.6c1.3-3.2,3.4-5.2,5.8-5.2c0.2,0,0.5,0,0.7,0.1c-2.2,0.4-4.1,2.5-5.3,5.7C40.6,19.9,40.9,21,40.7,22.3z    M63.2,24.7c0.1,0.7,0.1,1.5,0.1,2.3c0,7.4-3.3,13.5-7.3,13.5c-0.2,0-0.5,0-0.7-0.1C59.1,39.8,62,34,62,27c0-0.8,0-1.5-0.1-2.2   c-0.8-0.3-1.5-1.3-1.8-2.5c-0.2-1.2,0-2.3,0.6-2.9c-1.2-3.2-3.1-5.4-5.3-5.7c0.2,0,0.5-0.1,0.7-0.1c2.4,0,4.4,2.1,5.8,5.2   c1.1,0,2.1,1.1,2.5,2.6C64.5,22.9,64.1,24.2,63.2,24.7z"/></g><text x="0" y="115" fill="#000000" font-size="5px" font-weight="bold" font-family="'Helvetica Neue', Helvetica, Arial-Unicode, Arial, Sans-serif">Created by Eliricon</text><text x="0" y="120" fill="#000000" font-size="5px" font-weight="bold" font-family="'Helvetica Neue', Helvetica, Arial-Unicode, Arial, Sans-serif">from the Noun Project</text></svg>