<svg xmlns="http://www.w3.org/2000/svg" xmlns:xlink="http://www.w3.org/1999/xlink" version="1.1" x="0px" y="0px" viewBox="0 0 100 125" style="enable-background:new 0 0 100 100;" xml:space="preserve"><g><path d="M25.5,43.5c-0.6-1-2-1.2-2-1.2l0-0.1C20.1,41.5,11.3,38,3.1,23.1c0,0-1.9-3-2.1,0c-0.2,3,5.1,17.4,14.9,24.2   c0,0,1.2,3.2,4.7,4.4C27.1,49.3,25.9,44.2,25.5,43.5z"/><path d="M23.7,41.2c1.6,0.3,2.3,1.1,2.7,1.7c2-0.3,4.6-2.6,4.8-4.4c0.1-1.1-0.6-1.9-1.3-2.3c0,0,0,0,0,0c0,0-4.4,0-6.2-1.8   c-0.4-0.4-0.9-0.8-1.4-1c-0.5-0.2-1.1-0.3-1,0.2C21.3,34.4,22.2,38.7,23.7,41.2z"/><path d="M70.1,58c0,0-4-2.4-10.5-0.9c0,0-1,0.2-2.1,0c0.5,1.5,1,3.8,0.8,6.4c-0.4,4.5-0.3,5.7,0,9.4c0.3,3.8-1.6,4.3-1.9,6   c-0.4,1.7,1.3,3.2,2,3.4c0,0-0.3-2.1,1.2-3.2c0,0-0.6,2.6,0,4.3c0,0,2.6,1.5,6.6,0c0,0,1.2-2-0.2-3.7c0,0,2-0.1,1.8,3   c0,0,2.1-1.7,1.6-3.2c-0.6-1.6-2.7-2.7-2.7-4.7c0-2-0.4-3.3,0-4.4C67.1,69.4,69.9,62.5,70.1,58z"/><path d="M97.4,36.9c0,0,0.4-4.1-2.8-5.9c-3.1-1.8-5.1-4.1-9.6-5.9c-4.5-1.8-4.9-2.1-8.8-2.3c-3.8-0.1-6.6-3.4-10.2-3.4   c-4.3,0-10.3,1.2-16.4-2.3c-6.6-3.8-11.3,1.7-14.1,6.9c-0.2-0.2-0.5-0.4-0.7-0.7c-2.1-1.9-2.4-4.2-2.4-4.2c-1.2,1.8-1.9,3.1,0,5.2   c1.9,2.1,1.5,3.2,1.5,3.2c-0.9,2.3-1.4,3.9-1.4,3.9s-0.8,1.7-1.7,3.2c0.8,0.5,1.6,1.4,1.9,2.7c0.8,3.6-4.4,6-5.7,6.6   c1.2,6-5,8.6-6.7,9.2c0,0.1,0,0.2,0,0.3c0,0.8,1.7,3.4,2.8,3.4c1.1,0,0.8,0.2,5.5,0s5.1-1.7,5.1-1.7s-0.8,3-5.1,3.2   c-4.3,0.2-4.3,0.2-4.3,0.2s0.4,2.3,2.8,2.6c2.4,0.4,6.2,0.6,9.4-1.1c3.2-1.7,5.8-4.3,8.5-6.6c2.6-2.3,4.5-7.5,4.5-7.5   s-0.1,6-4.8,10c0,0,2.7,1.7,4.8,2.3c0,0,3.1,3.1,7.4,3.3c0,0,0.7-0.8,0.3-4.6c-1.4-0.3-2.8-1.2-1.6-3.7c0,0-0.5,1.7,1.4,2.1   c0,0,0,0,0,0c0,0,0,0,0,0c0.6,0.1,1.4,0.1,2.4,0c4.5-0.7,9.2-0.3,11.8,1.3c0.8-1.3,2-3.4,2.1-5.9c0,0,0.8,4.7-2.3,8.2   c0,0,0.3,2.8-0.6,4.7c0,0,17.2,1.8,22.5-13.8c0,0,1.6-4.8,1.1-8.5c0,0,3,12.9-6.6,19.2c0,0-0.4,2.1,0,4c0.4,1.8,0.6,3.6,0,4.8   c-0.6,1.2-2.5,2.5-1.3,4.4c0,0,3,3,6.9,1c3.9-2,0.1-5.1,0.1-5.1s0.1-2.7,2.2-9.3C97.4,53.6,101.2,47.1,97.4,36.9z M37,41   c0,0,1.3-2,4,0C40.9,41,38.5,43.5,37,41z M48.4,25.7c-1,1-5.4,2.7-5.4,2.7s-0.4,0,2.3-2.1s3.1-4.4,3.1-4.4S49.4,24.7,48.4,25.7z"/><path d="M53.9,68.1c-0.5-1.3-1.7-1.3-2-6.1c-1.6-0.7-3.1-1.8-3.1-1.8c-2.1-1.1-5-3.1-5-3.1l-1.5,1.6l-1.5,1c0,0,2.4,3,4.2,4.9   c1.8,2,1.4,4.2,2,6.8c0.6,2.5-4.5,2.7-2.8,5.4c1.7,2.7,7.8,1.3,9.3,0c1.6-1.3,0-3.6,0-3.6S54.5,69.5,53.9,68.1z"/><path d="M84.3,62.5c-2,1.3-5.8,2-5.8,2c1.1,4.7-4.4,4.5-2.1,7.1c2.3,2.5,8.1,0.3,8.2-1.1c0.1-1.4,0.3-3,1-3.8   C86.3,65.7,84.3,62.5,84.3,62.5z"/></g><text x="0" y="115" fill="#000000" font-size="5px" font-weight="bold" font-family="'Helvetica Neue', Helvetica, Arial-Unicode, Arial, Sans-serif">Created by parkjisun</text><text x="0" y="120" fill="#000000" font-size="5px" font-weight="bold" font-family="'Helvetica Neue', Helvetica, Arial-Unicode, Arial, Sans-serif">from the Noun Project</text></svg>