<svg xmlns="http://www.w3.org/2000/svg" xmlns:xlink="http://www.w3.org/1999/xlink" version="1.1" x="0px" y="0px" viewBox="0 0 100 125" enable-background="new 0 0 100 100" xml:space="preserve"><path d="M91.848,56.479c-1.046-1.029-2.128-2.095-2.311-3.02c-0.194-0.981,0.412-2.416,0.998-3.803  c0.796-1.882,1.618-3.826,0.912-5.529c-0.72-1.736-2.699-2.536-4.614-3.31c-1.376-0.556-2.8-1.131-3.337-1.935  c-0.547-0.815-0.536-2.361-0.525-3.855c0.015-2.054,0.029-4.177-1.287-5.493s-3.434-1.297-5.495-1.288  c-1.494,0.012-3.04,0.021-3.854-0.524c-0.803-0.537-1.378-1.961-1.935-3.338c-0.773-1.915-1.574-3.895-3.311-4.615  c-1.702-0.705-3.646,0.116-5.527,0.912c-1.387,0.586-2.824,1.194-3.804,0.998c-0.925-0.183-1.99-1.265-3.021-2.311  c-1.459-1.482-2.968-3.015-4.874-3.015s-3.415,1.532-4.874,3.015c-1.03,1.046-2.096,2.128-3.021,2.311  c-0.983,0.194-2.416-0.412-3.804-0.998c-1.88-0.795-3.823-1.617-5.527-0.912c-1.736,0.721-2.537,2.701-3.311,4.616  c-0.556,1.376-1.131,2.799-1.934,3.336c-0.815,0.546-2.354,0.534-3.856,0.525c-2.062-0.019-4.177-0.029-5.493,1.287  s-1.302,3.439-1.287,5.494c0.01,1.494,0.021,3.04-0.525,3.855c-0.537,0.803-1.961,1.378-3.337,1.934  c-1.915,0.774-3.896,1.574-4.615,3.311c-0.706,1.703,0.116,3.647,0.912,5.529c0.586,1.387,1.192,2.821,0.999,3.803  c-0.184,0.925-1.266,1.99-2.312,3.02c-1.482,1.459-3.016,2.968-3.016,4.875c0,1.935,1.729,3.438,3.402,4.891  c1.189,1.034,2.419,2.103,2.597,3.003l0.12,0.606l15.97,4.374c-0.245,0.887-0.481,2.21-0.261,3.654  c0.238,1.563,1.691,2.645,3.24,2.418c0.557-0.083,1.158-0.182,1.791-0.285c4.033-0.663,9.101-1.755,12.538,0.211  c0.231,0.132,0.499,0.509,0.589,0.65c0.939,1.478,2.544,2.359,4.293,2.359c1.75,0,3.354-0.882,4.294-2.358  c0.086-0.135,0.478-0.512,0.61-0.595c3.004-1.901,8.617-0.93,12.651-0.268c0.648,0.106,1.264,0.207,1.831,0.291  c1.51,0.22,2.917-0.782,3.218-2.287c0.31-1.545,0.052-2.831-0.171-3.56l17.838-4.593l0.122-0.617  c0.184-0.925,1.266-1.989,2.312-3.019c1.482-1.459,3.016-2.968,3.016-4.875S93.33,57.938,91.848,56.479z M52.052,67.443  c-0.242,0.139-0.609,0.317-1.078,0.317c-0.036,0-0.072-0.002-0.11-0.004c-0.117-0.006-0.241-0.025-0.362-0.058  c-0.341-0.088-0.601-0.257-0.789-0.395c-0.446-0.326-0.543-0.952-0.218-1.397c0.325-0.446,0.951-0.544,1.397-0.218  c0.044,0.032,0.072,0.051,0.091,0.062c0.011-0.008,0.035-0.021,0.071-0.042c0.479-0.273,1.09-0.109,1.366,0.368  C52.695,66.556,52.53,67.167,52.052,67.443z M48.252,67.188c-0.215,0.209-0.559,0.498-1.066,0.599  c-0.119,0.023-0.24,0.035-0.363,0.035c-0.364,0-0.671-0.106-0.87-0.186c-0.513-0.205-0.763-0.787-0.558-1.3  c0.205-0.515,0.79-0.764,1.3-0.558c0.049,0.02,0.081,0.03,0.102,0.036c0.008-0.011,0.03-0.03,0.062-0.061  c0.396-0.387,1.029-0.375,1.414,0.02C48.656,66.17,48.647,66.804,48.252,67.188z M11.012,63.721c-0.4,0-0.778-0.242-0.932-0.638  c-0.2-0.515,0.055-1.094,0.569-1.294c0.808-0.314,1.632-0.713,2.188-1.488c0.121-0.168,0.229-0.354,0.318-0.55  c0.312-0.685,0.385-1.439,0.415-2.087c0.025-0.552,0.501-0.987,1.046-0.952c0.552,0.026,0.978,0.494,0.952,1.046  c-0.037,0.789-0.139,1.823-0.594,2.823c-0.144,0.313-0.315,0.612-0.513,0.887c-0.869,1.21-2.107,1.803-3.089,2.185  C11.255,63.699,11.133,63.721,11.012,63.721z M14.607,45.792c1.018-0.04,2.189-0.209,3.171-0.902  c0.211-0.148,0.413-0.343,0.602-0.542c0.646-0.678,1.034-1.536,1.33-2.277c0.205-0.514,0.789-0.768,1.299-0.563  c0.514,0.204,0.764,0.784,0.559,1.297c-0.345,0.865-0.854,1.975-1.736,2.904c-0.281,0.296-0.583,0.697-0.898,0.921  C17.525,47.624,15.996,48,14.686,48c-0.014,0-0.026,0-0.04,0c-0.534,0-0.978-0.563-0.998-1.101  C13.626,46.348,14.056,45.813,14.607,45.792z M27.94,31.767c0.289-0.126,0.572-0.284,0.844-0.471c0.921-0.639,1.579-1.529,2.1-2.315  c0.305-0.461,0.924-0.588,1.386-0.282c0.461,0.306,0.587,0.926,0.282,1.386c-0.59,0.891-1.422,2.021-2.632,2.856  c-0.375,0.261-0.773,0.482-1.183,0.66c-1.008,0.438-2.002,0.584-2.942,0.584c-0.742,0-1.45-0.091-2.104-0.201  c-0.545-0.092-0.912-0.608-0.82-1.152c0.093-0.544,0.605-0.909,1.152-0.82C25.219,32.211,26.617,32.341,27.94,31.767z   M33.724,36.704c-0.572,0.733-1.372,1.657-2.481,2.302c-0.346,0.202-0.711,0.37-1.082,0.498c-0.701,0.241-1.383,0.332-2.033,0.332  c-0.859,0-1.664-0.159-2.389-0.341c-0.536-0.134-0.861-0.677-0.727-1.213c0.134-0.536,0.677-0.86,1.213-0.727  c0.987,0.247,2.152,0.447,3.285,0.057c0.247-0.085,0.491-0.197,0.727-0.334c0.81-0.472,1.421-1.177,1.911-1.805  c0.339-0.436,0.967-0.514,1.403-0.173C33.986,35.641,34.063,36.27,33.724,36.704z M37.548,27.438  c0.206-0.514,0.788-0.762,1.301-0.557c1.133,0.454,2.625,0.893,4.006,0.618c1.417-0.28,2.495-1.182,3.361-2.026  c0.396-0.384,1.03-0.378,1.414,0.018c0.386,0.396,0.378,1.029-0.018,1.414c-1.077,1.05-2.438,2.174-4.37,2.557  c-0.439,0.087-0.893,0.131-1.348,0.131c-1.471,0-2.798-0.456-3.79-0.854C37.592,28.532,37.343,27.95,37.548,27.438z M44.087,59.854  c0.205-0.514,0.791-0.764,1.3-0.558c0.235,0.095,0.52,0.185,0.76,0.14c0.176-0.035,0.353-0.149,0.604-0.395  c0.396-0.384,1.028-0.378,1.414,0.018c0.386,0.395,0.378,1.028-0.018,1.414c-0.362,0.354-0.874,0.778-1.618,0.926  c-0.175,0.034-0.351,0.051-0.527,0.051c-0.546,0-1.012-0.158-1.356-0.296C44.132,60.949,43.882,60.367,44.087,59.854z   M44.372,68.012c-0.132,0.168-0.342,0.413-0.656,0.597c-0.118,0.067-0.23,0.119-0.344,0.156c-0.213,0.073-0.417,0.1-0.604,0.1  c-0.24,0-0.451-0.043-0.614-0.085c-0.535-0.136-0.858-0.681-0.722-1.216s0.679-0.863,1.216-0.722  c0.041,0.01,0.068,0.016,0.087,0.019c0.006-0.013,0.028-0.037,0.06-0.079c0.339-0.436,0.969-0.512,1.404-0.174  C44.634,66.947,44.711,67.576,44.372,68.012z M48.039,53.76c-0.493,0.481-1.186,1.058-2.168,1.252  c-0.225,0.044-0.456,0.067-0.691,0.067c-0.729,0-1.367-0.219-1.843-0.408c-0.513-0.205-0.763-0.787-0.558-1.3  c0.205-0.515,0.791-0.764,1.3-0.558c0.417,0.167,0.942,0.328,1.406,0.236c0.46-0.091,0.828-0.4,1.157-0.722  c0.395-0.384,1.029-0.378,1.414,0.018C48.442,52.741,48.435,53.375,48.039,53.76z M47.933,47.046  c-0.624,0.608-1.497,1.337-2.719,1.578c-0.278,0.056-0.565,0.083-0.855,0.083c-0.916,0-1.727-0.278-2.33-0.521  c-0.513-0.205-0.762-0.787-0.556-1.3c0.205-0.513,0.788-0.766,1.3-0.556c0.594,0.237,1.364,0.469,2.054,0.331  c0.699-0.139,1.235-0.586,1.71-1.048c0.397-0.384,1.03-0.378,1.414,0.018C48.336,46.028,48.328,46.661,47.933,47.046z   M47.825,40.332c-0.753,0.734-1.806,1.615-3.269,1.904c-0.328,0.065-0.671,0.099-1.02,0.099c-1.103,0-2.084-0.337-2.816-0.631  c-0.513-0.205-0.762-0.787-0.556-1.3c0.205-0.513,0.786-0.765,1.3-0.556c0.774,0.31,1.809,0.602,2.703,0.427  c0.938-0.187,1.642-0.771,2.261-1.375c0.396-0.384,1.028-0.378,1.414,0.018S48.221,39.946,47.825,40.332z M36.91,57.251  c-0.492,0-0.941-0.09-1.32-0.185c-0.535-0.134-0.861-0.677-0.727-1.213c0.134-0.536,0.676-0.86,1.213-0.727  c0.445,0.111,0.92,0.194,1.367,0.04c0.091-0.031,0.186-0.075,0.276-0.128c0.333-0.193,0.6-0.504,0.816-0.781  c0.339-0.436,0.968-0.514,1.403-0.173c0.436,0.34,0.513,0.968,0.173,1.403c-0.314,0.403-0.757,0.913-1.388,1.28  c-0.203,0.118-0.415,0.215-0.628,0.289C37.685,57.199,37.285,57.251,36.91,57.251z M38.58,69.172  c0.045-0.002,0.075,0.024,0.094,0.022c0-0.012,0.015-0.028,0.034-0.078c0.203-0.515,0.785-0.757,1.298-0.554  c0.514,0.203,0.765,0.788,0.562,1.301c-0.079,0.2-0.214,0.499-0.468,0.764c-0.075,0.081-0.169,0.05-0.267,0.12  C39.402,71.051,38.956,71,38.658,71c-0.014,0-0.026,0-0.04,0c-0.534,0-0.978-0.309-0.998-0.847  C37.599,69.601,38.028,69.193,38.58,69.172z M31.47,61.202C30.65,61.781,29.757,62,29.069,62c-0.013,0-0.026,0-0.04,0  c-0.534,0-0.977-0.509-0.998-1.048c-0.022-0.552,0.408-1.06,0.96-1.082c0.459-0.019,0.938-0.094,1.323-0.368  c0.08-0.056,0.157-0.134,0.228-0.208c0.269-0.283,0.438-0.66,0.566-0.986c0.204-0.515,0.786-0.768,1.299-0.562  c0.514,0.203,0.765,0.784,0.561,1.296c-0.189,0.475-0.471,1.086-0.975,1.617C31.835,60.828,31.657,61.069,31.47,61.202z   M31.639,69.396c-0.018,0.373-0.066,0.863-0.292,1.358c-0.079,0.169-0.167,0.321-0.269,0.461c-0.438,0.611-1.037,0.901-1.509,1.085  c-0.119,0.047-0.242,0.068-0.363,0.068c-0.4,0-0.777-0.241-0.932-0.637c-0.2-0.515,0.054-1.095,0.568-1.295  c0.328-0.128,0.506-0.241,0.613-0.392c0.03-0.042,0.054-0.085,0.074-0.129c0.08-0.175,0.101-0.409,0.11-0.614  c0.026-0.553,0.539-0.972,1.046-0.952C31.238,68.376,31.665,68.844,31.639,69.396z M19.479,52c-0.013,0-0.025,0-0.039,0  c-0.534,0-0.978-0.212-0.998-0.751c-0.021-0.552,0.408-0.91,0.961-0.932c0.864-0.033,1.772-0.088,2.554-0.64  c0.167-0.119,0.329-0.233,0.479-0.391c0.519-0.546,0.834-1.222,1.074-1.826c0.203-0.513,0.787-0.758,1.299-0.552  c0.513,0.204,0.764,0.789,0.559,1.302c-0.292,0.734-0.726,1.681-1.482,2.478c-0.237,0.25-0.497,0.267-0.772,0.461  C21.894,52.012,20.531,52,19.479,52z M20.926,61.636c-0.03,0.649-0.113,1.501-0.493,2.336c-0.118,0.26-0.263,0.51-0.428,0.741  c-0.729,1.015-1.754,1.507-2.565,1.822c-0.119,0.047-0.242,0.068-0.363,0.068c-0.4,0-0.778-0.242-0.932-0.637  c-0.2-0.515,0.054-1.095,0.568-1.295c0.619-0.241,1.249-0.544,1.666-1.123c0.087-0.122,0.167-0.261,0.234-0.407  c0.236-0.52,0.292-1.099,0.314-1.598c0.025-0.552,0.503-0.985,1.045-0.953C20.524,60.616,20.951,61.084,20.926,61.636z   M22.778,67.554c0.429-0.167,0.864-0.375,1.139-0.757c0.061-0.083,0.11-0.171,0.152-0.264c0.16-0.352,0.198-0.758,0.215-1.109  c0.025-0.552,0.484-1.002,1.045-0.953c0.552,0.025,0.979,0.494,0.953,1.045c-0.023,0.511-0.09,1.183-0.393,1.847  c-0.099,0.217-0.217,0.42-0.351,0.605c-0.581,0.809-1.394,1.199-2.036,1.449c-0.119,0.047-0.241,0.068-0.362,0.068  c-0.4,0-0.778-0.242-0.932-0.638C22.009,68.333,22.264,67.754,22.778,67.554z M24.273,57c-0.013,0-0.025,0-0.039,0  c-0.534,0-0.978-0.361-0.998-0.9c-0.021-0.552,0.409-0.986,0.961-1.006c0.662-0.025,1.354-0.09,1.938-0.503  c0.126-0.089,0.244-0.184,0.353-0.299c0.395-0.415,0.636-0.941,0.82-1.405c0.204-0.514,0.787-0.761,1.299-0.559  c0.514,0.204,0.764,0.787,0.561,1.3c-0.24,0.604-0.597,1.383-1.228,2.047c-0.2,0.211-0.42,0.341-0.652,0.505  C26.272,56.897,25.144,57,24.273,57z M33.785,64.646c0.352-0.014,0.556-0.123,0.706-0.229c0.04-0.027,0.074-0.087,0.107-0.122  c0.14-0.146,0.234-0.374,0.31-0.564c0.203-0.514,0.786-0.77,1.299-0.568c0.513,0.204,0.764,0.781,0.561,1.295  c-0.137,0.345-0.342,0.789-0.719,1.187c-0.128,0.134-0.265,0.488-0.407,0.588C35.032,66.665,34.371,67,33.863,67  c-0.013,0-0.026,0-0.04,0c-0.534,0-0.978-0.659-0.998-1.198C32.804,65.25,33.233,64.667,33.785,64.646z M47.718,33.619  c-0.939,0.914-2.128,1.895-3.818,2.229c-0.387,0.076-0.784,0.114-1.184,0.114c-1.284,0-2.439-0.396-3.303-0.741  c-0.513-0.205-0.763-0.787-0.558-1.3c0.205-0.515,0.786-0.764,1.3-0.558c0.955,0.382,2.211,0.749,3.357,0.522  c1.173-0.232,2.044-0.955,2.811-1.701c0.395-0.384,1.027-0.377,1.414,0.02C48.122,32.601,48.114,33.233,47.718,33.619z   M37.81,47.824c0.436,0.34,0.513,0.968,0.173,1.403c-0.4,0.513-0.961,1.16-1.752,1.62c-0.255,0.147-0.518,0.269-0.782,0.359  c-0.504,0.173-0.999,0.237-1.466,0.237c-0.621,0-1.193-0.113-1.676-0.233c-0.536-0.134-0.861-0.677-0.729-1.213  c0.135-0.535,0.677-0.857,1.213-0.729c0.645,0.161,1.334,0.277,2.008,0.046c0.146-0.051,0.289-0.117,0.427-0.197  c0.492-0.286,0.873-0.728,1.181-1.121C36.745,47.561,37.373,47.483,37.81,47.824z M35.681,41.563  c0.436,0.34,0.513,0.969,0.173,1.403c-0.486,0.623-1.167,1.409-2.118,1.961c-0.301,0.176-0.614,0.32-0.932,0.429  c-0.601,0.206-1.19,0.283-1.749,0.283c-0.752,0-1.446-0.139-2.032-0.286c-0.536-0.134-0.861-0.678-0.727-1.213  c0.134-0.537,0.678-0.862,1.213-0.727c0.8,0.2,1.738,0.363,2.646,0.051c0.194-0.066,0.388-0.156,0.578-0.266  c0.649-0.379,1.146-0.952,1.545-1.463C34.616,41.299,35.245,41.222,35.681,41.563z M39.837,63.058c-0.361,0-0.688-0.064-0.963-0.134  c-0.536-0.134-0.862-0.677-0.728-1.212c0.133-0.537,0.677-0.865,1.212-0.728c0.34,0.085,0.551,0.097,0.729,0.034  c0.041-0.014,0.086-0.035,0.13-0.061c0.17-0.099,0.322-0.277,0.448-0.438c0.339-0.436,0.967-0.513,1.403-0.173  c0.436,0.34,0.513,0.968,0.173,1.403c-0.229,0.293-0.552,0.665-1.023,0.939c-0.158,0.091-0.316,0.163-0.478,0.22  C40.425,63.018,40.12,63.058,39.837,63.058z M51.984,61.413c-0.051,0-0.103-0.002-0.155-0.005c-0.169-0.009-0.346-0.036-0.521-0.081  c-0.529-0.138-0.94-0.407-1.24-0.628c-0.445-0.326-0.541-0.952-0.214-1.397c0.326-0.444,0.953-0.541,1.397-0.214  c0.165,0.121,0.36,0.252,0.557,0.303c0.043,0.011,0.089,0.019,0.133,0.021c0.191,0.013,0.388-0.055,0.694-0.229  c0.482-0.276,1.091-0.108,1.364,0.372c0.274,0.48,0.107,1.091-0.372,1.364C53.217,61.152,52.667,61.413,51.984,61.413z   M56.762,27.669c1.445,0.073,2.711-0.521,3.764-1.12c0.479-0.276,1.091-0.107,1.364,0.372c0.274,0.479,0.107,1.091-0.372,1.364  c-1.218,0.695-2.69,1.392-4.474,1.392c-0.131,0-0.263-0.004-0.396-0.012c-0.441-0.024-0.892-0.096-1.338-0.212  c-1.424-0.368-2.595-1.142-3.455-1.774c-0.444-0.327-0.54-0.953-0.213-1.398c0.327-0.444,0.952-0.54,1.398-0.213  c0.76,0.559,1.684,1.168,2.771,1.45C56.13,27.6,56.45,27.651,56.762,27.669z M68.078,29.213c0.581,0.743,1.306,1.58,2.275,2.145  c0.281,0.164,0.577,0.3,0.878,0.403c1.361,0.47,2.747,0.232,3.925-0.062c0.534-0.135,1.078,0.191,1.212,0.728  c0.135,0.535-0.191,1.078-0.728,1.212c-0.833,0.209-1.758,0.392-2.743,0.392c-0.743,0-1.52-0.104-2.318-0.379  c-0.425-0.146-0.839-0.337-1.231-0.565c-1.271-0.739-2.188-1.801-2.846-2.643c-0.34-0.435-0.263-1.063,0.173-1.403  C67.109,28.699,67.738,28.777,68.078,29.213z M78.388,42.071c0.294,0.739,0.682,1.583,1.327,2.263  c0.188,0.198,0.391,0.372,0.604,0.521c0.981,0.694,2.152,0.827,3.17,0.867c0.552,0.021,0.981,0.625,0.96,1.177  c-0.021,0.538-0.464,1.1-0.998,1.1c-0.014,0-0.026,0-0.04,0c-1.31,0-2.839-0.376-4.246-1.373c-0.319-0.225-0.622-0.557-0.899-0.85  c-0.885-0.932-1.393-2.078-1.736-2.941c-0.203-0.513,0.047-1.112,0.561-1.316C77.602,41.317,78.183,41.558,78.388,42.071z   M69.067,62c-0.014,0-0.027,0-0.04,0c-0.688,0-1.582-0.22-2.4-0.797c-0.19-0.137-0.366-0.334-0.525-0.503  c-0.501-0.525-0.783-1.162-0.973-1.637c-0.204-0.513,0.047-1.106,0.561-1.309c0.513-0.206,1.095,0.039,1.299,0.554  c0.13,0.327,0.299,0.696,0.563,0.976c0.072,0.075,0.15,0.142,0.233,0.201c0.382,0.271,0.86,0.324,1.32,0.342  c0.552,0.021,0.981,0.573,0.96,1.125C70.044,61.491,69.602,62,69.067,62z M69.822,71.731c-0.153,0.395-0.531,0.637-0.932,0.637  c-0.121,0-0.243-0.021-0.363-0.068c-0.472-0.184-1.07-0.474-1.512-1.088c-0.102-0.143-0.191-0.296-0.265-0.457  c-0.228-0.498-0.276-0.987-0.294-1.359c-0.026-0.552,0.4-1.02,0.952-1.046c0.55-0.042,1.02,0.4,1.046,0.952  c0.01,0.204,0.03,0.438,0.115,0.622c0.02,0.043,0.043,0.085,0.07,0.123c0.106,0.148,0.285,0.262,0.613,0.39  C69.769,70.637,70.022,71.217,69.822,71.731z M60.004,57.06c-0.218-0.076-0.429-0.173-0.631-0.29  c-0.631-0.367-1.073-0.878-1.389-1.281c-0.34-0.436-0.263-1.063,0.173-1.403c0.435-0.341,1.063-0.263,1.403,0.173  c0.218,0.278,0.484,0.589,0.817,0.782c0.09,0.052,0.184,0.096,0.279,0.129c0.442,0.153,0.918,0.069,1.363-0.042  c0.535-0.132,1.079,0.19,1.213,0.727c0.135,0.536-0.191,1.079-0.727,1.213c-0.38,0.096-0.83,0.185-1.322,0.185  C60.812,57.251,60.413,57.199,60.004,57.06z M60.477,70.152C60.456,70.69,60.013,71,59.479,71c-0.014,0-0.026,0-0.04,0  c-0.299,0-0.746,0.052-1.17-0.249c-0.1-0.07-0.189-0.092-0.273-0.18c-0.247-0.261-0.378-0.513-0.465-0.729  c-0.206-0.512,0.042-1.081,0.555-1.287c0.507-0.204,1.094,0.048,1.301,0.561c0.021,0.052,0.035,0.087,0.046,0.105  c0.01-0.001,0.04,0.001,0.085,0.005C60.068,69.248,60.498,69.6,60.477,70.152z M55.014,42.371c-0.097,0-0.194-0.003-0.293-0.009  c-0.335-0.019-0.675-0.073-1.012-0.159c-1.066-0.276-1.933-0.849-2.569-1.316c-0.444-0.327-0.54-0.953-0.213-1.398  c0.327-0.444,0.951-0.54,1.398-0.213c0.521,0.384,1.154,0.802,1.884,0.991c0.211,0.054,0.422,0.088,0.627,0.1  c0.968,0.047,1.781-0.335,2.533-0.765c0.479-0.275,1.091-0.108,1.364,0.372c0.274,0.479,0.107,1.09-0.372,1.364  C57.509,41.825,56.371,42.371,55.014,42.371z M56.783,47.864c-0.705,0.403-1.646,0.854-2.78,0.854c-0.081,0-0.163-0.003-0.246-0.008  c-0.279-0.016-0.563-0.061-0.846-0.133c-0.892-0.23-1.605-0.702-2.129-1.087c-0.445-0.328-0.54-0.954-0.213-1.398  c0.327-0.445,0.953-0.539,1.398-0.213c0.402,0.296,0.888,0.618,1.441,0.762c0.151,0.038,0.309,0.063,0.464,0.073  c0.702,0.027,1.342-0.258,1.918-0.587c0.479-0.275,1.09-0.107,1.364,0.372S57.263,47.59,56.783,47.864z M59.939,34.812  c-1.06,0.605-2.343,1.213-3.904,1.213c-0.115,0-0.232-0.004-0.351-0.011c-0.386-0.021-0.781-0.084-1.174-0.185  c-1.244-0.322-2.264-0.995-3.013-1.546c-0.445-0.327-0.541-0.952-0.214-1.397c0.326-0.444,0.953-0.541,1.397-0.214  c0.643,0.472,1.421,0.985,2.328,1.221c0.266,0.067,0.532,0.11,0.789,0.125c1.203,0.068,2.265-0.437,3.148-0.942  c0.479-0.276,1.09-0.107,1.364,0.372S60.419,34.537,59.939,34.812z M61.688,47.996c0.31,0.395,0.691,0.837,1.184,1.123  c0.137,0.079,0.28,0.146,0.425,0.195c0.675,0.234,1.362,0.116,2.008-0.045c0.534-0.129,1.078,0.193,1.213,0.729  c0.133,0.536-0.192,1.079-0.729,1.213c-0.482,0.12-1.055,0.233-1.676,0.233c-0.467,0-0.961-0.064-1.466-0.238  c-0.264-0.09-0.526-0.211-0.78-0.357c-0.79-0.46-1.352-1.107-1.753-1.62c-0.341-0.435-0.264-1.063,0.171-1.403  C60.719,47.482,61.348,47.562,61.688,47.996z M62.447,66.227c-0.139-0.098-0.273-0.333-0.398-0.464  c-0.375-0.396-0.582-0.902-0.72-1.247c-0.205-0.513,0.045-1.124,0.558-1.329c0.508-0.206,1.095,0.028,1.3,0.543  c0.076,0.19,0.173,0.397,0.313,0.544c0.03,0.032,0.065,0.06,0.102,0.085c0.154,0.109,0.359,0.157,0.711,0.171  c0.552,0.021,0.981,0.722,0.96,1.274C65.251,66.342,64.808,67,64.273,67c-0.014,0-0.026,0-0.04,0  C63.727,67,63.065,66.664,62.447,66.227z M68.929,53.613c-0.203-0.513,0.047-1.087,0.561-1.291c0.512-0.202,1.095,0.051,1.299,0.564  c0.185,0.465,0.426,0.997,0.818,1.409c0.11,0.117,0.229,0.221,0.353,0.308c0.586,0.415,1.278,0.496,1.939,0.521  c0.552,0.021,0.982,0.424,0.961,0.976C74.839,56.638,74.396,57,73.861,57c-0.014,0-0.026,0-0.039,0  c-0.869,0-1.998-0.103-3.016-0.823c-0.23-0.162-0.45-0.322-0.651-0.534C69.526,54.982,69.17,54.218,68.929,53.613z M72.764,64.471  c0.543-0.028,1.021,0.398,1.048,0.95c0.017,0.354,0.056,0.762,0.216,1.113c0.042,0.092,0.092,0.18,0.149,0.258  c0.277,0.387,0.712,0.595,1.142,0.762c0.515,0.2,0.769,0.78,0.568,1.295c-0.154,0.396-0.532,0.637-0.932,0.637  c-0.121,0-0.244-0.021-0.363-0.068c-0.642-0.25-1.454-0.642-2.037-1.454c-0.131-0.181-0.249-0.384-0.348-0.6  c-0.302-0.663-0.368-1.334-0.394-1.845C71.787,64.967,72.212,64.498,72.764,64.471z M74.985,51.153  c-0.278-0.197-0.538-0.318-0.774-0.568c-0.76-0.8-1.191-1.692-1.482-2.424c-0.203-0.514,0.048-1.068,0.561-1.273  c0.513-0.203,1.094,0.059,1.299,0.574c0.238,0.602,0.553,1.296,1.073,1.844c0.147,0.156,0.31,0.3,0.479,0.421  c0.779,0.551,1.688,0.66,2.553,0.693c0.553,0.021,0.982,0.275,0.961,0.827C79.634,51.787,79.19,52,78.656,52  c-0.014,0-0.026,0-0.039,0C77.564,52,76.201,52.013,74.985,51.153z M78.121,60.591c0.526-0.041,1.021,0.399,1.047,0.951  c0.023,0.5,0.08,1.081,0.316,1.6c0.066,0.146,0.145,0.283,0.234,0.408c0.415,0.578,1.045,0.881,1.664,1.122  c0.515,0.2,0.769,0.78,0.568,1.295c-0.153,0.395-0.531,0.637-0.932,0.637c-0.121,0-0.243-0.021-0.363-0.068  c-0.812-0.315-1.836-0.809-2.563-1.819c-0.163-0.228-0.308-0.478-0.429-0.742c-0.38-0.834-0.464-1.687-0.495-2.336  C77.144,61.086,77.569,60.617,78.121,60.591z M67.859,37.277c0.236,0.138,0.48,0.25,0.726,0.334  c1.136,0.393,2.299,0.191,3.286-0.056c0.528-0.132,1.079,0.19,1.213,0.727c0.135,0.535-0.19,1.079-0.727,1.213  c-0.724,0.182-1.528,0.341-2.388,0.341c-0.65,0-1.332-0.091-2.035-0.333c-0.367-0.126-0.731-0.293-1.08-0.496  c-1.112-0.646-1.911-1.57-2.481-2.303c-0.34-0.436-0.263-1.064,0.173-1.403c0.436-0.341,1.065-0.263,1.403,0.173  C66.438,36.102,67.048,36.806,67.859,37.277z M63.819,41.735c0.399,0.511,0.895,1.084,1.546,1.463  c0.189,0.109,0.383,0.199,0.576,0.266c0.906,0.31,1.807,0.158,2.646-0.051c0.537-0.133,1.079,0.19,1.213,0.727  c0.135,0.535-0.19,1.079-0.727,1.213c-0.585,0.147-1.279,0.286-2.032,0.286c-0.559,0-1.149-0.077-1.751-0.284  c-0.314-0.107-0.627-0.251-0.929-0.426c-0.953-0.555-1.633-1.34-2.119-1.963c-0.34-0.435-0.263-1.063,0.173-1.403  C62.851,41.222,63.479,41.299,63.819,41.735z M50.212,52.696c0.328-0.444,0.953-0.539,1.398-0.213  c0.283,0.209,0.624,0.436,0.998,0.532c0.102,0.026,0.203,0.042,0.302,0.048c0.466,0.015,0.903-0.18,1.303-0.408  c0.479-0.275,1.09-0.107,1.364,0.372s0.107,1.09-0.372,1.364c-0.557,0.318-1.301,0.674-2.211,0.674  c-0.066,0-0.133-0.002-0.201-0.006c-0.235-0.014-0.466-0.051-0.688-0.108c-0.704-0.183-1.268-0.554-1.68-0.856  C49.98,53.768,49.885,53.142,50.212,52.696z M53.897,66.607c0.435-0.338,1.064-0.262,1.404,0.174  c0.031,0.041,0.054,0.066,0.068,0.081c0.011-0.005,0.039-0.011,0.079-0.021c0.533-0.141,1.079,0.187,1.216,0.722  s-0.187,1.08-0.722,1.216c-0.162,0.042-0.372,0.084-0.612,0.084c-0.189,0-0.397-0.026-0.615-0.101  c-0.107-0.037-0.218-0.087-0.323-0.147c-0.325-0.189-0.537-0.436-0.669-0.604C53.385,67.576,53.462,66.947,53.897,66.607z   M55.854,61.75c-0.34-0.436-0.263-1.063,0.173-1.403c0.435-0.34,1.063-0.263,1.403,0.173c0.126,0.161,0.278,0.34,0.453,0.441  c0.041,0.023,0.086,0.044,0.13,0.06c0.173,0.06,0.381,0.049,0.723-0.036c0.535-0.133,1.079,0.19,1.213,0.727  c0.135,0.536-0.19,1.079-0.727,1.213c-0.275,0.069-0.604,0.134-0.964,0.134c-0.282,0-0.585-0.039-0.898-0.146  c-0.168-0.059-0.328-0.132-0.481-0.221C56.406,62.415,56.083,62.043,55.854,61.75z M86.723,63.652  c-0.981-0.382-2.22-0.975-3.089-2.184c-0.196-0.274-0.368-0.572-0.512-0.886c-0.457-1.001-0.559-2.036-0.596-2.825  c-0.025-0.552,0.4-1.02,0.952-1.046c0.551-0.039,1.02,0.4,1.046,0.952c0.03,0.647,0.104,1.402,0.416,2.086  c0.09,0.197,0.197,0.383,0.318,0.552c0.557,0.774,1.381,1.173,2.188,1.487c0.515,0.2,0.77,0.779,0.569,1.294  c-0.153,0.396-0.531,0.638-0.932,0.638C86.964,63.721,86.842,63.699,86.723,63.652z"/><text x="0" y="115" fill="#000000" font-size="5px" font-weight="bold" font-family="'Helvetica Neue', Helvetica, Arial-Unicode, Arial, Sans-serif">Created by Laymik</text><text x="0" y="120" fill="#000000" font-size="5px" font-weight="bold" font-family="'Helvetica Neue', Helvetica, Arial-Unicode, Arial, Sans-serif">from the Noun Project</text></svg>