<svg xmlns="http://www.w3.org/2000/svg" xmlns:xlink="http://www.w3.org/1999/xlink" version="1.1" x="0px" y="0px" viewBox="0 0 100 125" enable-background="new 0 0 100 100" xml:space="preserve"><g><path d="M31.998,76.255c0.276,0,0.5-0.224,0.5-0.5s-0.224-0.5-0.5-0.5h-7.896V44.901h6.453c0.276,0,0.5-0.224,0.5-0.5   s-0.224-0.5-0.5-0.5h-6.453V24.83h6.715c0.276,0,0.5-0.224,0.5-0.5s-0.224-0.5-0.5-0.5h-6.715V7.932h11.352   c0.276,0,0.5-0.224,0.5-0.5s-0.224-0.5-0.5-0.5H24.102V0.855c0-0.276-0.224-0.5-0.5-0.5s-0.5,0.224-0.5,0.5v48.406   c-1.664-2.116-3.658-2.951-5.602-3.746c-1.002-0.409-1.977-0.82-2.892-1.394c0.623-0.879,0.906-1.823,0.801-2.744   c-0.11-0.965-0.625-1.817-1.487-2.464c-0.593-0.445-1.652-0.67-3.15-0.67c-0.04,0-4.045,0.049-4.308,0.837   c-0.068,0.204,0.01,0.449,0.183,0.578c1.173,0.879,1.318,2.072,1.459,3.227c0.12,0.988,0.244,2.01,1.079,2.636   c0.577,0.434,1.248,0.662,1.939,0.662c0.996,0,1.99-0.463,2.824-1.282c1.026,0.662,2.107,1.104,3.173,1.54   c2.234,0.914,4.345,1.785,5.98,4.587v48.996c0,0.276,0.224,0.5,0.5,0.5s0.5-0.224,0.5-0.5v-23.77H31.998z M9.785,44.722   c-0.493-0.37-0.578-1.07-0.687-1.957c-0.124-1.019-0.272-2.243-1.173-3.278c0.681-0.116,1.744-0.242,2.847-0.242   c1.674,0,2.316,0.294,2.551,0.47c0.637,0.478,1.016,1.093,1.094,1.778c0.076,0.671-0.143,1.377-0.622,2.052   c-0.915-0.728-1.753-1.69-2.459-3.129c-0.121-0.248-0.422-0.35-0.67-0.229c-0.247,0.121-0.35,0.421-0.229,0.669   c0.771,1.569,1.688,2.646,2.679,3.445C12.067,45.233,10.765,45.457,9.785,44.722z"/><path d="M53.276,68.422c-0.425,0.357-0.893,0.518-1.516,0.518c-0.288,0-0.569-0.031-0.838-0.061   c-0.282-0.03-0.553-0.059-0.807-0.059c-0.345,0-0.855,0.043-1.298,0.415c-1.188,0.999-1.183,2.688,0.011,4.108   c0.005,0.006,0.012,0.01,0.017,0.017c-1.469,1.229-3.118,1.861-4.733,2.466c-0.067,0.025-0.135,0.051-0.203,0.076   c-0.005-0.828,0.224-1.658,0.499-2.596c0.05-0.17,0.101-0.354,0.151-0.532c0.009,0,0.021,0,0.021,0   c1.989-0.027,3.31-1.312,3.285-3.197c-0.021-1.636-3.153-4.942-3.842-4.942c-0.134,0-0.273,0.058-0.368,0.152   c-0.094,0.096-0.149,0.236-0.147,0.371c0.016,1.185-0.686,1.875-1.363,2.541c-0.604,0.595-1.228,1.209-1.216,2.113   c0.019,1.459,1.061,2.539,2.62,2.856c-0.034,0.118-0.068,0.242-0.102,0.356c-0.323,1.1-0.612,2.145-0.521,3.258   c-1.688,0.675-3.33,1.537-4.619,3.227c-0.051-4.045-0.108-8.066-0.167-12.024c-0.224-14.989-0.443-30.354-0.215-46.427   c1.088-2.569,2.538-4.447,4.073-6.092c1.569-0.775,3.175-0.854,4.872-0.932c0.859-0.039,1.73-0.083,2.619-0.21   c0.078,0.171,0.153,0.341,0.254,0.511c0.696,1.174,1.766,1.847,2.934,1.846c0.601,0,1.193-0.171,1.765-0.51   c1.545-0.918,2.771-5.404,2.59-6.063c-0.085-0.304-0.496-0.478-0.767-0.317c-0.46,0.273-0.938,0.405-1.46,0.405   c-0.573,0-1.135-0.155-1.679-0.307c-0.953-0.265-1.886-0.426-2.596-0.002c-1.211,0.719-1.696,2.036-1.383,3.47   c-0.785,0.104-1.559,0.144-2.323,0.179c-1.076,0.05-2.176,0.103-3.277,0.344c0.155-0.152,0.31-0.307,0.464-0.458   c1.545-1.519,3.122-3.07,4.432-5.085c0.017,0.006,0.03,0.015,0.047,0.021c0.482,0.175,0.961,0.263,1.422,0.263   c1.412,0,2.554-0.828,3.056-2.216c0.599-1.657-1.158-5.414-1.644-6.105c-0.068-0.097-0.227-0.323-0.516-0.323   c-0.211,0-0.413,0.145-0.484,0.343c-0.44,1.217-1.417,1.65-2.361,2.069c-0.827,0.367-1.682,0.746-2.008,1.647   c-0.534,1.481,0.117,2.958,1.586,3.856c-1.223,1.854-2.699,3.313-4.23,4.817c-0.663,0.651-1.331,1.314-1.986,2.013   c-0.01,0.011-0.02,0.02-0.027,0.03c-1.201,1.282-2.352,2.714-3.342,4.489c0.099-5.854,0.259-11.8,0.506-17.865   c0.011-0.275-0.204-0.509-0.479-0.52c-0.27-0.014-0.508,0.203-0.521,0.479c-0.173,4.235-0.291,8.396-0.389,12.525H30.43   c-0.276,0-0.5,0.224-0.5,0.5s0.224,0.5,0.5,0.5h6.619c-0.049,2.196-0.092,4.382-0.123,6.551c-0.004,0.04-0.006,0.077-0.001,0.116   c-0.031,2.177-0.06,4.35-0.075,6.5h-3.244c-0.276,0-0.5,0.224-0.5,0.5s0.224,0.5,0.5,0.5h3.24c-0.021,3.54-0.023,7.043-0.012,10.52   H32.2c-0.276,0-0.5,0.224-0.5,0.5s0.224,0.5,0.5,0.5h4.639c0.025,6.311,0.091,12.535,0.176,18.679h-9.003   c-0.276,0-0.5,0.224-0.5,0.5s0.224,0.5,0.5,0.5h9.016c0.036,2.604,0.075,5.194,0.113,7.774c0.12,8.059,0.242,16.326,0.294,24.678   h-8.646c-0.276,0-0.5,0.224-0.5,0.5s0.224,0.5,0.5,0.5h8.648c0.013,2.278,0.023,4.559,0.023,6.847c0,0.276,0.224,0.5,0.5,0.5   s0.5-0.224,0.5-0.5c0-2.414-0.011-4.821-0.024-7.226c0.01-0.039,0.024-0.078,0.024-0.121c0-0.045-0.015-0.084-0.025-0.125   c-0.022-3.767-0.06-7.508-0.104-11.229c1.44-2.799,3.718-3.659,6.132-4.562c1.754-0.656,3.547-1.341,5.156-2.738   c0.444,0.283,0.927,0.45,1.425,0.45c0.627,0,1.238-0.236,1.769-0.682c1.146-0.965,1.471-4.629,1.284-5.142   C53.984,68.343,53.528,68.211,53.276,68.422z M41.929,69.801c-0.006-0.456,0.345-0.824,0.918-1.389   c0.593-0.584,1.302-1.281,1.561-2.346c0.909,0.865,2.446,2.642,2.458,3.523c0.017,1.246-0.765,2.051-2.046,2.162   c0.219-0.932,0.384-1.964,0.345-3.202c-0.009-0.276-0.239-0.522-0.516-0.483c-0.276,0.008-0.493,0.238-0.484,0.515   c0.038,1.199-0.136,2.209-0.359,3.12C42.801,71.512,41.944,70.908,41.929,69.801z M51.041,10.247   c0.162-0.096,0.342-0.141,0.565-0.141c0.361,0,0.795,0.12,1.254,0.247c0.579,0.161,1.235,0.343,1.945,0.343   c0.392,0,0.764-0.055,1.122-0.165c-0.307,1.288-1.123,3.763-1.996,4.281c-1.226,0.726-2.545,0.335-3.329-0.987   c-0.035-0.06-0.063-0.124-0.096-0.186c1.279-0.291,2.599-0.821,3.981-1.842c0.223-0.164,0.27-0.477,0.105-0.699   c-0.163-0.223-0.479-0.27-0.699-0.105c-1.287,0.95-2.533,1.432-3.749,1.694C49.927,11.746,50.118,10.797,51.041,10.247z    M46.896,3.875c0.172-0.476,0.671-0.718,1.472-1.073c0.829-0.367,1.821-0.808,2.482-1.812c0.581,1.19,1.521,3.621,1.176,4.574   c-0.465,1.291-1.676,1.829-3.06,1.391c0.577-1.011,1.095-2.123,1.505-3.41c0.084-0.263-0.062-0.544-0.325-0.628   c-0.263-0.085-0.544,0.062-0.628,0.324c-0.398,1.252-0.899,2.323-1.461,3.297C47.113,5.955,46.484,5.015,46.896,3.875z    M52.169,73.027c-0.558,0.471-1.208,0.547-1.803,0.272c0.376-0.4,0.744-0.833,1.09-1.343c0.155-0.229,0.097-0.539-0.132-0.695   c-0.226-0.152-0.538-0.096-0.694,0.133c-0.332,0.488-0.688,0.9-1.055,1.281c-0.675-0.818-0.971-1.954-0.114-2.676   c0.15-0.125,0.346-0.18,0.654-0.18c0.221,0,0.455,0.027,0.699,0.053c0.304,0.033,0.622,0.066,0.946,0.066   c0.511,0,0.96-0.084,1.367-0.258C53.036,70.754,52.711,72.57,52.169,73.027z"/><path d="M91.582,75.846c-0.182,0-0.361,0.107-0.449,0.268c-0.471,0.857-1.229,1.061-2.031,1.275   c-0.713,0.191-1.447,0.389-1.834,1.092c-0.379,0.689-0.414,1.467-0.096,2.189c0.205,0.465,0.555,0.891,1.002,1.245   c-0.678,0.529-1.502,0.981-2.385,1.456c-1.322,0.709-2.773,1.49-3.854,2.696c-0.051-5.122-0.119-10.192-0.193-15.196   c0.041-0.073,0.072-0.152,0.072-0.242c0-0.094-0.033-0.178-0.078-0.252c-0.014-0.962-0.027-1.936-0.043-2.892   c-0.17-11.387-0.336-22.995-0.309-34.957c0.926-1.653,2.641-2.769,4.457-3.944c0.994-0.644,2.057-1.337,3.066-2.169   c0.422,0.263,0.883,0.413,1.365,0.413c0.572,0,1.141-0.198,1.65-0.572c1.186-0.875,1.785-4.516,1.605-5.066   c-0.102-0.307-0.539-0.455-0.799-0.263c-0.395,0.29-0.816,0.426-1.328,0.426l0,0c-0.35,0-0.705-0.062-1.051-0.121   c-0.818-0.142-1.586-0.173-2.123,0.221c-0.408,0.302-0.682,0.69-0.844,1.123c-0.053-1.171-2.279-3.597-2.885-3.597   c-0.135,0-0.271,0.057-0.365,0.153c-0.094,0.096-0.148,0.234-0.146,0.368c0.016,0.776-0.432,1.226-0.908,1.7   c-0.445,0.445-0.906,0.906-0.893,1.608c0.023,1.101,0.809,1.914,1.979,2.146c-0.139,0.429-0.309,0.807-0.484,1.192   c-0.398,0.876-0.805,1.788-0.824,3.287c-0.535,0.42-1.033,0.864-1.467,1.36c0.039-9.705,0.205-19.64,0.623-29.919   c0.012-0.275-0.203-0.509-0.479-0.52c-0.27-0.014-0.508,0.203-0.521,0.479c-0.186,4.561-0.311,9.038-0.41,13.476H69.813   c-0.277,0-0.5,0.224-0.5,0.5s0.223,0.5,0.5,0.5H80.58c-0.117,5.612-0.178,11.135-0.193,16.579h-8.018c-0.275,0-0.5,0.224-0.5,0.5   s0.225,0.5,0.5,0.5h8.014c-0.021,11.841,0.143,23.334,0.311,34.61c0.014,0.869,0.025,1.755,0.039,2.629h-8.205   c-0.275,0-0.5,0.224-0.5,0.5s0.225,0.5,0.5,0.5h8.219c0.139,9.443,0.268,19.131,0.268,28.896c0,0.276,0.225,0.5,0.5,0.5   c0.277,0,0.5-0.224,0.5-0.5c0-4.102-0.027-8.183-0.063-12.246c0.906-1.692,2.633-2.626,4.311-3.526   c1.004-0.538,2.012-1.094,2.83-1.807c0.406,0.174,0.813,0.288,1.217,0.288c0.975,0,1.822-0.526,2.328-1.442   c0.711-1.294-0.273-4.635-0.578-5.149C91.969,75.99,91.76,75.846,91.582,75.846z M88.822,22.258   c0.133-0.099,0.297-0.143,0.527-0.143c0.242,0,0.529,0.049,0.832,0.102c0.367,0.063,0.785,0.136,1.221,0.136l0,0   c0.393,0,0.758-0.06,1.1-0.181c-0.16,1.064-0.602,2.857-1.172,3.279c-0.516,0.38-1.092,0.453-1.615,0.251   c0.586-0.555,1.143-1.164,1.637-1.863c0.158-0.226,0.104-0.537-0.121-0.696c-0.227-0.158-0.537-0.105-0.697,0.12   c-0.488,0.693-1.043,1.293-1.631,1.836c-0.041-0.048-0.084-0.089-0.121-0.141C88.146,24.097,87.912,22.928,88.822,22.258z    M83.188,22.788c-0.006-0.263,0.225-0.506,0.6-0.88c0.367-0.367,0.83-0.83,1.061-1.498c0.633,0.627,1.529,1.684,1.541,2.21   c0.008,0.411-0.119,0.759-0.367,1.004c-0.16,0.158-0.381,0.255-0.625,0.32c0.068-0.563,0.088-1.205,0.021-1.983   c-0.023-0.275-0.271-0.49-0.541-0.455c-0.273,0.023-0.479,0.266-0.455,0.54c0.066,0.779,0.047,1.403-0.031,1.935   C83.75,23.858,83.201,23.48,83.188,22.788z M84.592,26.562c0.209-0.462,0.43-0.959,0.596-1.559   c0.615-0.061,1.145-0.281,1.535-0.667c0.227-0.222,0.396-0.491,0.51-0.791c0.02,0.652,0.258,1.347,0.744,2.006   c0.055,0.074,0.119,0.129,0.176,0.197c-0.916,0.739-1.893,1.374-2.855,1.996c-0.473,0.306-0.938,0.608-1.387,0.917   C84.025,27.811,84.303,27.198,84.592,26.562z M91.76,80.809c-0.41,0.744-1.127,1.041-1.912,0.854   c0.578-0.736,0.955-1.634,0.971-2.811c0.004-0.275-0.217-0.503-0.492-0.507c-0.311-0.038-0.504,0.217-0.508,0.493   c-0.014,1.006-0.363,1.756-0.908,2.383c-0.379-0.271-0.668-0.6-0.822-0.953c-0.195-0.443-0.176-0.883,0.057-1.307   c0.172-0.313,0.574-0.434,1.215-0.605c0.664-0.178,1.451-0.389,2.09-1.014C91.75,78.376,92.102,80.188,91.76,80.809z"/><path d="M79.229,86.921H67.656v-6.739h7.494c0.277,0,0.5-0.225,0.5-0.5c0-0.277-0.223-0.5-0.5-0.5h-7.494V54.6h6.773   c0.277,0,0.5-0.224,0.5-0.5s-0.223-0.5-0.5-0.5h-6.773V42.423h8.533c0.277,0,0.5-0.224,0.5-0.5s-0.223-0.5-0.5-0.5h-8.533V21.542   h5.561c0.275,0,0.5-0.224,0.5-0.5s-0.225-0.5-0.5-0.5h-5.561V8.489h9.98c0.275,0,0.5-0.224,0.5-0.5s-0.225-0.5-0.5-0.5h-9.98V0.855   c0-0.276-0.225-0.5-0.5-0.5c-0.277,0-0.5,0.224-0.5,0.5v51.608c-0.77-0.797-1.783-1.374-2.901-1.884   c0.128-1.526-0.552-2.571-1.222-3.578c-0.174-0.262-0.343-0.521-0.501-0.786c0.89-0.521,1.348-1.475,1.159-2.572   c-0.231-1.339-3.002-3.37-3.541-3.37c-0.147,0-0.301,0.069-0.396,0.183c-0.095,0.112-0.137,0.271-0.112,0.417   c0.146,0.842-0.266,1.399-0.701,1.989c-0.399,0.541-0.812,1.1-0.686,1.83c0.204,1.184,1.221,1.949,2.59,1.949   c0.213,0,0.433-0.019,0.655-0.058c0.027-0.005,0.051-0.015,0.078-0.021c0.2,0.353,0.414,0.681,0.622,0.992   c0.561,0.843,1.051,1.593,1.073,2.597c-0.193-0.08-0.385-0.161-0.58-0.242c-1.538-0.637-3.107-1.297-4.415-2.328   c0.206-0.393,0.32-0.804,0.312-1.222c-0.015-0.66-0.319-1.293-0.858-1.78c-0.64-0.577-2.048-0.698-3.116-0.698   c-1.739,0-1.824,0.221-1.915,0.455c-0.074,0.192-0.019,0.424,0.136,0.563c0.634,0.574,0.654,1.267,0.676,2   c0.021,0.671,0.041,1.365,0.591,1.862c0.425,0.385,0.944,0.588,1.501,0.588c0.723,0,1.467-0.359,2.077-0.971   c1.427,1.116,3.097,1.82,4.63,2.455c2.171,0.899,4.047,1.691,4.846,3.362v38.618c-0.924-0.777-1.732-1.297-2.465-1.762   c-0.947-0.602-1.773-1.133-2.597-2.099c1.09-0.883,1.355-2.208,0.633-3.44c-0.73-1.244-4.009-2.08-4.589-2.08   c-0.179,0-0.408,0.11-0.497,0.266c-0.09,0.156-0.088,0.359,0.003,0.515c0.478,0.813,0.271,1.541,0.053,2.313   c-0.194,0.69-0.396,1.403,0.001,2.08c0.452,0.771,1.209,1.194,2.13,1.194c0.46,0,0.938-0.111,1.402-0.319   c0.949,1.154,1.893,1.759,2.924,2.415c0.118,0.074,0.244,0.156,0.367,0.235c-0.667,0.386-1.168,0.48-1.763,0.589   c-0.211,0.039-0.438,0.084-0.675,0.137c-0.584-1.007-1.689-1.424-2.771-0.982c-1.084,0.443-2.299,3.135-2.2,3.639   c0.058,0.297,0.41,0.492,0.695,0.377c0.593-0.244,1.178-0.027,1.726,0.217c0.374,0.166,0.76,0.338,1.175,0.338   c0.186,0,0.365-0.035,0.533-0.104c0.972-0.396,1.419-1.412,1.194-2.541c0.172-0.035,0.337-0.066,0.501-0.096   c0.75-0.137,1.465-0.273,2.488-0.963c0.533,0.377,1.107,0.83,1.73,1.412v5.87c0,0.276,0.223,0.5,0.5,0.5c0.275,0,0.5-0.224,0.5-0.5   V87.921h11.572c0.277,0,0.5-0.224,0.5-0.5S79.506,86.921,79.229,86.921z M60.345,45.642c-0.331,0-1.425-0.081-1.604-1.119   c-0.051-0.295,0.159-0.598,0.505-1.065c0.356-0.484,0.777-1.054,0.896-1.814c0.782,0.563,1.963,1.583,2.064,2.171   c0.112,0.652-0.121,1.18-0.616,1.498c-0.191-0.479-0.329-0.997-0.343-1.625c-0.006-0.276-0.209-0.485-0.511-0.489   c-0.276,0.006-0.495,0.235-0.489,0.511c0.016,0.732,0.166,1.354,0.38,1.909C60.531,45.626,60.436,45.642,60.345,45.642z    M54.273,48.021c-0.223-0.201-0.244-0.568-0.262-1.15c-0.018-0.6-0.039-1.307-0.414-1.978c0.155-0.007,0.329-0.011,0.518-0.011   c1.445,0,2.221,0.237,2.446,0.44c0.337,0.306,0.521,0.672,0.529,1.061c0.004,0.168-0.032,0.337-0.092,0.506   c-0.249-0.254-0.489-0.521-0.706-0.818c-0.163-0.226-0.477-0.271-0.698-0.109c-0.223,0.163-0.271,0.476-0.108,0.699   c0.287,0.394,0.608,0.738,0.943,1.063C55.729,48.393,54.857,48.549,54.273,48.021z M59.328,88.801   c-0.391,0-0.928-0.122-1.268-0.701c-0.173-0.293-0.074-0.686,0.1-1.301c0.18-0.637,0.393-1.391,0.198-2.225   c1.011,0.266,2.665,0.863,3.007,1.446c0.458,0.78,0.308,1.571-0.376,2.141c-0.333-0.487-0.67-1.063-1.02-1.767   c-0.124-0.248-0.422-0.348-0.671-0.225c-0.247,0.122-0.348,0.422-0.226,0.67c0.353,0.711,0.697,1.293,1.038,1.801   C59.846,88.736,59.581,88.801,59.328,88.801z M60.363,95.416c-0.226,0.092-0.551-0.057-0.923-0.223   c-0.422-0.188-0.946-0.42-1.559-0.42c-0.011,0-0.021,0-0.032,0c0.336-0.75,0.932-1.805,1.343-1.973   c0.549-0.225,1.046-0.08,1.389,0.354c-0.33,0.119-0.684,0.261-1.1,0.467c-0.247,0.123-0.348,0.423-0.226,0.67   c0.088,0.176,0.265,0.277,0.448,0.277c0.075,0,0.15-0.016,0.223-0.052c0.401-0.199,0.736-0.331,1.048-0.44   C61.066,94.639,60.92,95.188,60.363,95.416z"/></g><text x="0" y="115" fill="#000000" font-size="5px" font-weight="bold" font-family="'Helvetica Neue', Helvetica, Arial-Unicode, Arial, Sans-serif">Created by Nikita Kozin</text><text x="0" y="120" fill="#000000" font-size="5px" font-weight="bold" font-family="'Helvetica Neue', Helvetica, Arial-Unicode, Arial, Sans-serif">from the Noun Project</text></svg>