<svg xmlns="http://www.w3.org/2000/svg" xmlns:xlink="http://www.w3.org/1999/xlink" width="100" height="100" viewBox="0 0 100 100"><g><g transform="translate(50 50) scale(0.69 0.69) rotate(0) translate(-50 -50)" style="fill:#000000"><svg fill="#000000" xmlns="http://www.w3.org/2000/svg" xmlns:xlink="http://www.w3.org/1999/xlink" version="1.1" x="0px" y="0px" viewBox="0 0 100 100" enable-background="new 0 0 100 100" xml:space="preserve"><g><path d="M37.9,50.274c4.539,2.468,8.717,4.106,12.773,5.013c2.271,0.508,4.528,0.764,6.705,0.764c0.001,0,0,0,0.001,0   c10.914,0,21.134-6.463,31.239-19.764c1.218-1.596,2.253-3.462,3.262-5.878l0.09-0.211l-0.111-0.197   c-0.882-1.644-1.852-3.287-2.967-5.068l-0.382-0.565l-0.433,1.054C78.896,37.538,69.599,44,59.649,44c-0.001,0-0.001,0-0.002,0   c-1.974,0-4.018-0.803-6.077-1.262c-3.899-0.869-7.854-2.905-12.089-5.467c-7.316-4.406-12.106-10.631-14.239-18.308l-0.183-0.707   l-0.568,0.351c-1.54,1.023-3.074,2.112-4.562,3.26l-0.169,0.125L21.739,22.2C20.522,34.359,25.96,43.804,37.9,50.274z"></path><path d="M31.469,67.426c5.519,2.707,10.515,4.526,15.275,5.575C49.907,73.708,53.022,74,56.005,74c0.002,0,0,0,0.002,0   c12.346,0,23.665-6.071,34.601-18.692c3.337-3.836,5.324-8.754,5.906-14.8l0.011-0.126l-0.038-0.114   c-0.356-0.97-0.761-2.006-1.24-3.148l-0.374-0.906l-0.505,0.802c-0.128,0.212-0.255,0.379-0.381,0.591   c-0.373,0.631-0.727,1.622-1.159,2.186C81.636,54.53,70.125,62,57.638,62c-0.001,0-0.001,0-0.002,0   c-2.618,0-5.348-0.62-8.111-1.237c-4.528-1.01-9.157-2.878-14.147-5.591c-11.633-6.304-18.193-15.886-18.97-27.482l-0.07-1.111   l-0.765,0.69c-0.439,0.415-0.855,0.825-1.274,1.251l-0.481,0.479l-0.113,0.173c-0.047,0.126-0.103,0.243-0.16,0.369   c-0.074,0.168-0.148,0.319-0.208,0.491C7.745,45.945,14.014,58.855,31.469,67.426z"></path><path d="M43.966,32.969c3.802,2.283,7.286,3.762,10.652,4.518c1.732,0.387,3.346,0.574,4.932,0.574   c8.752,0,17.217-5.786,25.873-17.687l0.213-0.293l-0.214-0.291c-1.33-1.812-2.668-3.468-3.974-4.924l-0.359-0.403l-0.37,0.393   c-7.476,7.945-14.935,10.87-23.108,9.04c-3.337-0.733-6.716-2.28-10.33-4.728c-2.979-2.01-5.5-4.527-7.49-7.479l-0.232-0.344   l-0.38,0.168c-2.419,1.075-4.87,2.334-7.494,3.846l-0.31,0.177l0.072,0.352C32.943,23.108,37.154,28.854,43.966,32.969z"></path><path d="M49.714,15.565c3.145,2.123,6.039,3.461,8.849,4.091c1.254,0.277,2.427,0.412,3.586,0.412c0.001,0,0.001,0,0.001,0   c5.154,0,10.216-2.715,15.472-8.299l0.361-0.384l-0.406-0.337c-0.666-0.551-1.373-1.127-2.053-1.581   c-1.953-1.276-4.232-2.211-6.775-2.78c-2.087-0.466-4.356-0.701-6.747-0.701c-5.398,0-11.352,1.164-17.698,3.459l-0.631,0.228   l0.403,0.536C45.674,12.328,47.518,14.08,49.714,15.565z"></path><path d="M99.789,53.916l-0.2-1.871l-0.757,1.479c-1.044,2.043-2.327,3.947-3.814,5.67C82.868,73.199,70.188,80.006,56.253,80.006   c-3.455,0-7.081-0.416-10.777-1.242c-5.263-1.178-10.685-3.156-16.579-6.051C13.463,65.135,5.607,54.512,5.549,41.141l-0.008-1.856   l-0.917,1.633c-1.468,2.595-2.474,4.794-3.164,6.868c-6.322,19.035,9.109,30.592,23.166,36.896   c6.496,2.928,12.448,5.722,18.195,7.003C47.189,92.659,51.455,94,55.497,94c0.001,0,0.001,0,0.002,0   c13.848,0,26.354-6.616,38.227-18.491C98.659,70.575,100.7,62.756,99.789,53.916z"></path></g></svg></g></g></svg>