<svg xmlns="http://www.w3.org/2000/svg" viewBox="0 0 64 80" x="0px" y="0px"><title>deer-zoo-animals-wild-life</title><g><path d="M26.052,43.23l-3.223-.645-1.547,1.547a.9.9,0,0,1-.017.164l-.3.951L20.119,49.5a2.02,2.02,0,0,0,.032.918L22.764,60h1.927l-2.2-8.048a5.013,5.013,0,0,1,.584-3.966Z"/><path d="M24.2,39.68l-.7-.254V40.68L34,42.78V41.088A24.454,24.454,0,0,1,24.2,39.68Z"/><path d="M13.151,31.176a.925.925,0,0,1,.149.009c.027-.057.047-.116.075-.172A7.278,7.278,0,0,1,14.882,29H9.766l.464.774A2.937,2.937,0,0,0,13.151,31.176Z"/><path d="M38.591,14.242a1,1,0,0,0,.971.758h1.347l.155-.339a6.235,6.235,0,0,1,.609-1.026l-3.345-.448Z"/><path d="M44.118,41.725l-1.045.915L44.9,60h1.058l-.8-19.3A12.792,12.792,0,0,1,44.118,41.725Z"/><path d="M48.663,13.45a4.259,4.259,0,0,0-5.78,2.041l-4.341,9.515A7.042,7.042,0,0,1,32.22,29H19.868a5.086,5.086,0,0,0-2.767.766A5.3,5.3,0,0,0,15,36.25l.955,2.333a5,5,0,0,1-.973,5.305L13.36,45.627a3,3,0,0,0-.779,2.453L14.207,60H15.92L15,48.077a1,1,0,0,1,.29-.784L21.5,41.086V38a1,1,0,0,1,1.341-.94l.2.071c3.15,1.142,8.5,2.346,11.817,1.879A1,1,0,0,1,36,40V60h1.427l1.578-16.1a1,1,0,0,1,.337-.655L42.8,40.22a11,11,0,0,0,3.722-9.155l-.854-10.69a1,1,0,0,1,1-1.08h5.656A2.677,2.677,0,0,0,55,16.618h0ZM47,15.813a.813.813,0,1,1,.812.812A.812.812,0,0,1,47,15.813Z"/><path d="M39.279,7.721,42.5,12.555a1,1,0,0,0,1.665-1.11L41,6.7V3a1,1,0,0,0-2,0V5.132L34.555,2.168a1,1,0,0,0-1.11,1.664Z"/><path d="M44.074,9.384l.644,1.932a1,1,0,0,0,.949.684.989.989,0,0,0,.315-.051,1,1,0,0,0,.633-1.265l-.666-2a1,1,0,0,0-.054-.131l-.031-.062c.009-.015.022-.027.031-.044l1-2a1,1,0,1,0-1.79-.894l-.355.711L43.9,4.553a1,1,0,0,0-1.79.894Z"/></g><text x="0" y="79" fill="#000000" font-size="5px" font-weight="bold" font-family="'Helvetica Neue', Helvetica, Arial-Unicode, Arial, Sans-serif">Created by supalerk laipawat</text><text x="0" y="84" fill="#000000" font-size="5px" font-weight="bold" font-family="'Helvetica Neue', Helvetica, Arial-Unicode, Arial, Sans-serif">from the Noun Project</text></svg>