<svg xmlns="http://www.w3.org/2000/svg" xmlns:xlink="http://www.w3.org/1999/xlink" version="1.1" x="0px" y="0px" viewBox="0 0 100 125" enable-background="new 0 0 100 100" xml:space="preserve"><path d="M94.534,75.894c-0.601-1.461,0.517-10.918,0.774-12.896c0.259-1.978,2.859-15.153,2.235-19.517  c-0.653-4.564-0.545-10.658-8.253-15.303c0,0-5.072-4.729-14.015-6.621c-8.94-1.891-13.154-4.556-17.796-4.04  c-4.643,0.515-20.031-0.431-25.707-1.72c-5.673-1.29-7.478-4.041-12.208-3.353c-4.729,0.687-7.651,3.696-8.941,8.511  c-1.29,4.813-5.416,3.955-5.674,8.426c-0.258,4.47-5.073,13.412-2.58,21.321c2.494,7.91,7.651,24.845,12.639,27.77  c1.653,0.968,5.089,1.727,6.984,2.189c-0.098,0.36-0.192,0.562-0.192,0.562s-3.87,3.008-3.87,5.158c0,0,9.372,0.859,12.209,0  c0,0-0.946-2.667-1.29-3.955c-0.344-1.29,0.99-6.377,2.451-8.545c1.56-2.317,4.943-10.731,4.943-10.731s-0.483,5.968,0.773,10.765  c1.11,4.238,2.751,6.792,0.516,8.168c-2.236,1.376-2.58,4.213-2.58,4.213l11.763-0.344c0,0,1.358-3.095,0-4.729  c-1.36-1.635-1.703-1.204-1.79-2.751c-0.086-1.548,0.343-8.597-0.257-11.178c-0.603-2.579-1.29-7.65-1.29-7.65  s6.023,0.553,6.97,1.155c0.946,0.603,7.551,3.693,10.731,3.436c3.181-0.259,12.539-0.724,12.539-0.724s2.171,5.848,6.47,7.052  c0,0-0.946,11.261-1.634,12.121s-2.407,3.181-2.407,3.181s3.181,2.234,6.62,1.72c3.439-0.516,4.899,0,5.243-0.945  c0.005-0.013,0.007-0.026,0.011-0.039c0.433,0.272,1.098,0.413,2.14,0.21c3.095-0.602,7.91-3.182,8.254-5.072  C98.662,79.848,95.138,77.354,94.534,75.894z M26.365,57.376c-1.687,2.475-2.587,11.018-3.767,13.661  c-0.932,2.088-0.672,5.256-0.521,6.497c-2.161-1.112-4.938-2.315-7.461-7.115c-1.57-2.988-3.037-11.188-3.429-14.842  c-0.394-3.655-0.484-5.888,0.225-8.49c0.42-1.538,3.242-4.09,4.778-3.709c2.694,0.665,6.361-0.453,7.306,1.159  c1.478,2.52,4.164,3.619,4.445,4.743C28.22,50.405,28.052,54.902,26.365,57.376z M87.225,84.02c-0.249-0.51-0.508-1.006-0.686-1.42  c-0.515-1.204-0.317-6.486-0.317-6.486s1.22,2.816,1.349,3.82C87.702,80.951,87.225,84.02,87.225,84.02z M93.394,62.723  c-0.341,1.92-1.024,10.329-0.939,11.567c0,0-2.845-6.384-3.144-7.239c-0.3-0.853,0.881-2.623,1.436-4.97  c0.556-2.348,2.092-7.854,2.647-6.743C93.948,56.446,93.734,60.801,93.394,62.723z"/><text x="0" y="115" fill="#000000" font-size="5px" font-weight="bold" font-family="'Helvetica Neue', Helvetica, Arial-Unicode, Arial, Sans-serif">Created by Monkey Art</text><text x="0" y="120" fill="#000000" font-size="5px" font-weight="bold" font-family="'Helvetica Neue', Helvetica, Arial-Unicode, Arial, Sans-serif">from the Noun Project</text></svg>