<svg xmlns="http://www.w3.org/2000/svg" xmlns:xlink="http://www.w3.org/1999/xlink" xml:space="preserve" version="1.1" style="shape-rendering:geometricPrecision;text-rendering:geometricPrecision;image-rendering:optimizeQuality;" viewBox="0 0 333 416.25" x="0px" y="0px" fill-rule="evenodd" clip-rule="evenodd"><defs><style type="text/css">
   
    .fil0 {fill:black}
   
  </style></defs><g><path class="fil0" d="M92 79c5,-2 12,-3 20,-3 1,-2 2,-4 3,-5 5,-5 13,-5 18,0 3,3 4,7 4,11 0,1 1,1 2,2 11,7 16,10 20,12l12 -3 -15 -43 -9 -11c-1,1 -4,1 -5,0 -2,-2 -2,-5 0,-7 2,-1 4,-1 6,0 1,1 2,3 1,5l9 9 2 -1 -6 -14c-1,0 -2,0 -3,-1 -1,-2 -1,-5 0,-6 2,-2 5,-2 7,0 1,1 1,4 0,6 1,2 5,10 7,12l0 0c0,-3 0,-10 0,-14 -1,0 -1,0 -2,-1 -1,-1 -1,-4 0,-6 2,-2 5,-2 7,0 1,2 1,5 0,6 -1,1 -1,1 -1,1l3 11 28 59c0,0 11,19 -14,22 -1,0 -1,0 -2,0 19,20 32,44 32,44 0,0 -1,-31 14,-33 16,-1 26,11 32,21 5,9 6,11 6,11l8 -23 -5 -18c0,0 -1,-1 -2,-1 -2,-2 -2,-6 0,-8 2,-2 6,-2 8,0 2,2 2,5 0,7l4 17 1 0 0 -19c0,0 0,0 0,0 -2,-2 -2,-5 0,-7 2,-2 5,-2 7,0 2,2 2,5 0,7 0,1 -1,1 -2,1l-1 19 0 0 8 -16c-1,-2 -1,-5 1,-7 2,-2 5,-2 7,0 2,2 2,6 0,8 -1,1 -3,1 -4,1l-7 15 2 0 11 -9c-1,-2 -1,-4 1,-6 2,-2 5,-2 7,0 2,2 2,5 0,7 -2,2 -4,2 -6,1l-11 12 -13 45c0,0 -4,7 -12,8 -8,1 -12,-6 -16,-12 -4,-6 -12,-13 -12,-13 0,0 -4,32 -7,45 -2,7 -4,11 -6,12 -1,2 -5,4 -12,6 -13,3 -45,7 -45,7 0,0 7,8 13,12 6,4 13,8 12,16 -1,8 -8,12 -8,12l-45 13 -12 11c1,2 1,4 -1,6 -2,2 -5,2 -7,0 -2,-2 -2,-5 0,-7 2,-2 4,-2 6,-1l9 -11 0 -2 -15 7c0,1 0,3 -1,4 -2,2 -6,2 -8,0 -2,-2 -2,-5 0,-7 2,-2 5,-2 7,-1l16 -8 0 0 -19 1c0,1 0,2 -1,2 -2,2 -5,2 -7,0 -2,-2 -2,-5 0,-7 2,-2 5,-2 7,0 0,0 0,0 0,0l19 0 0 -1 -17 -4c-2,2 -5,2 -7,0 -2,-2 -2,-6 0,-8 2,-2 6,-2 8,0 0,1 1,2 1,2l18 5 23 -8c0,0 -2,-1 -11,-6 -10,-6 -22,-16 -21,-32 2,-15 33,-14 33,-14 0,0 -24,-13 -44,-32 0,1 0,1 0,2 -3,25 -22,14 -22,14l-59 -28 -11 -3c0,0 0,0 -1,1 -1,1 -4,1 -6,0 -2,-2 -2,-5 0,-7 2,-1 5,-1 6,0 1,1 1,1 1,2 4,0 11,0 14,0l0 0c-2,-2 -10,-6 -12,-7 -2,1 -5,1 -6,0 -2,-2 -2,-5 0,-7 1,-1 4,-1 6,0 1,1 1,2 1,3l14 6 1 -2 -9 -9c-2,1 -4,0 -5,-1 -1,-2 -1,-4 0,-6 2,-2 5,-2 7,0 1,1 1,4 0,5l11 9 43 15 3 -12c-2,-4 -5,-9 -12,-20 -1,-1 -1,-2 -2,-2 -4,0 -8,-1 -11,-4 -5,-5 -5,-13 0,-18 1,-1 3,-2 5,-3 0,-8 1,-15 3,-20 -2,-4 -2,-9 1,-12 3,-3 8,-3 12,-1z"/></g><text x="0" y="348" fill="#000000" font-size="5px" font-weight="bold" font-family="'Helvetica Neue', Helvetica, Arial-Unicode, Arial, Sans-serif">Created by Bismillah</text><text x="0" y="353" fill="#000000" font-size="5px" font-weight="bold" font-family="'Helvetica Neue', Helvetica, Arial-Unicode, Arial, Sans-serif">from the Noun Project</text></svg>