<svg xmlns="http://www.w3.org/2000/svg" xmlns:xlink="http://www.w3.org/1999/xlink" version="1.2" baseProfile="tiny" x="0px" y="0px" viewBox="0 0 100 125" xml:space="preserve"><path d="M83.3,46.9c0.3,0,0.7-0.1,0.9-0.4c0.5-0.5,0.4-1.3-0.1-1.8c-6.7-6-13.8-7.2-16-7.4c-1.3-2.6-2.4-4.5-3.3-5.9  c2.5-1.8,5.5-5.5,4.5-13.2c-0.1-0.7-0.7-1.2-1.4-1.1c-0.7,0.1-1.2,0.7-1.1,1.4c0.9,6.3-1.3,9.3-3.5,10.8c-0.4-0.4-0.8-0.8-1.1-1  c-0.7-1.7-1.8-3.1-3-4.3c0.1-0.5,0.1-0.9,0.1-1.4c0-2.3-0.8-4.4-2.2-6l5.8-5.8c0.5-0.5,0.5-1.3,0-1.8c-0.5-0.5-1.3-0.5-1.8,0  l-5.9,5.9c-1.5-1-3.3-1.6-5.2-1.6s-3.7,0.6-5.2,1.6l-5.9-5.9c-0.5-0.5-1.3-0.5-1.8,0c-0.5,0.5-0.5,1.3,0,1.8l5.8,5.8  c-1.4,1.6-2.2,3.7-2.2,6c0,0.5,0,0.9,0.1,1.4c-1.3,1.2-2.3,2.6-3,4.3c-0.3,0.3-0.7,0.6-1.1,1c-2.2-1.5-4.4-4.5-3.5-10.8  c0.1-0.7-0.4-1.3-1.1-1.4c-0.7-0.1-1.3,0.4-1.4,1.1c-1.1,7.7,2,11.4,4.5,13.2c-0.9,1.4-2,3.3-3.3,5.9c-2.3,0.2-9.3,1.4-16,7.4  c-0.5,0.5-0.6,1.2-0.1,1.8c0.2,0.3,0.6,0.4,0.9,0.4c0.3,0,0.6-0.1,0.8-0.3c5-4.4,10.2-6,13-6.5c-0.6,1.3-1.3,2.8-2,4.4  c-4.4,9.8-8.5,20.8-9.3,22.9c-1.6,4.3-2.7,7.7-3.1,10.5c-0.4,3.6,0.6,5.9,3.1,6.9c0.7,0.2,1.3,0.4,2,0.4c2,0,4.1-0.9,6.1-2.7  c2.6-2.3,4.8-5.7,6.3-9.6c0.5-1.3,1.1-3.3,1.8-5.7C38,77.3,43.1,91.2,50,91.2c6.9,0,12-13.9,14.5-24.3c0.7,2.4,1.3,4.4,1.8,5.7  c1.5,4,3.7,7.4,6.3,9.6c2,1.8,4.2,2.7,6.1,2.7c0.7,0,1.4-0.1,2-0.4c2.5-0.9,3.6-3.2,3.1-6.9c-0.3-2.8-1.5-6.2-3.1-10.5  c-0.8-2.1-4.9-13.2-9.3-22.9c-0.7-1.6-1.4-3-2-4.4c2.8,0.6,8,2.1,13,6.5C82.7,46.8,83,46.9,83.3,46.9z M31.4,71.8  c-1.3,3.6-3.3,6.6-5.6,8.6c-2,1.8-4.1,2.5-5.6,1.9c-0.9-0.3-1.9-1.1-1.5-4.2c0.3-2.5,1.4-5.8,2.9-9.9c4.4-12,8.8-22.4,12.3-29.2  c0,0,0,0,0,0c2.5-5,4.5-8.1,5.6-8.6C41.5,33.7,35,62.1,31.4,71.8z M78.4,68.2c1.5,4.1,2.6,7.4,2.9,9.9c0.4,3.1-0.6,3.9-1.5,4.2  c-1.6,0.6-3.6-0.1-5.6-1.9c-2.3-2-4.2-5.1-5.6-8.6c-3.6-9.7-10.1-38.2-8.1-41.5c0.3,0.2,0.8,0.6,1.3,1.2c0,0,0,0.1,0,0.1  c0.1,0.2,0.2,0.3,0.4,0.4c1.1,1.5,2.4,3.8,3.9,6.9c0,0,0,0,0,0C69.6,45.8,74,56.3,78.4,68.2z"/><text x="0" y="115" fill="#000000" font-size="5px" font-weight="bold" font-family="'Helvetica Neue', Helvetica, Arial-Unicode, Arial, Sans-serif">Created by Juraj Sedlák</text><text x="0" y="120" fill="#000000" font-size="5px" font-weight="bold" font-family="'Helvetica Neue', Helvetica, Arial-Unicode, Arial, Sans-serif">from the Noun Project</text></svg>