<svg xmlns="http://www.w3.org/2000/svg" xmlns:xlink="http://www.w3.org/1999/xlink" version="1.1" x="0px" y="0px" viewBox="0 0 66 82.5" enable-background="new 0 0 66 66" xml:space="preserve"><g><g><path d="M41.8,34c0-2.5-1-5.2-2.7-7.3c-1.9,0.8-3.8,0.4-6.1,0.4c-2.4,0-4.2,0.4-6-0.4c-1.6,2.1-2.7,4.8-2.7,7.2    c0,3.9,3.3,18.7,8.8,18.7C38.6,52.6,41.8,37.8,41.8,34z"/><path d="M33.1,15.5c2.7,0,6.4-1.3,6.4-4.1c0-2-1.8-3.2-3.8-3.8l2-3.3c0.3-0.4,0.1-1-0.3-1.3    c-0.4-0.3-1-0.1-1.3,0.3l-2.4,3.9c-0.2,0-0.4,0-0.6,0c-0.2,0-0.4,0-0.6,0L30,3.3c-0.3-0.4-0.8-0.6-1.3-0.3    c-0.4,0.3-0.6,0.8-0.3,1.3l2,3.3c-2,0.6-3.8,1.8-3.8,3.8C26.6,14.2,30.4,15.5,33.1,15.5z"/><path d="M27.7,53.5c0.2-0.5,0.4-1,0.6-1.5c-4.3-5-6-15.8-6-18.1c0-2.2,0.7-4.5,1.8-6.5    c-12,8.1-14.4,24.5-6.8,31.3c3.5,3.1,6.8,1.3,9.1-2.7l1.9,5.3l-2.9,1.8c-0.5,0.3-0.6,0.9-0.3,1.4c0.3,0.5,0.9,0.6,1.4,0.3l3.6-2.2    c0.4-0.3,0.6-0.8,0.4-1.2L27.7,53.5z"/><path d="M41.9,27.2c1.2,2.1,1.9,4.5,1.9,6.7c0,2.3-1.7,12.9-5.8,17.9c0.2,0.6,0.5,1.2,0.8,1.8L36,61.4    c-0.2,0.4,0,0.9,0.4,1.2l3.6,2.2c0.5,0.3,1.1,0.1,1.4-0.3c0.3-0.5,0.1-1.1-0.3-1.4l-2.9-1.8l1.9-5.2c5.1,8.6,12.5,2.1,13.3-7.2    C54,40.4,48.9,31.9,41.9,27.2z"/><path d="M59.6,31.4h-2.9l-6.5-7c-0.1-0.1-0.3-0.2-0.4-0.3L40,20.9c-0.1-0.8-0.3-1.6-0.7-2.3l4.6-2.1    c0.2-0.1,0.4-0.3,0.5-0.5l5.4-11.5l4-1.7c0.5-0.2,0.7-0.8,0.5-1.3c-0.2-0.5-0.8-0.7-1.3-0.5L48.8,3c-0.2,0.1-0.4,0.3-0.5,0.5    l-5.4,11.5L38.3,17c-0.2-0.2-0.3-0.3-0.5-0.5c-1.4,0.7-3.1,1-4.7,1s-3.3-0.3-4.7-1c-0.2,0.2-0.4,0.4-0.5,0.5l-4.7-2.1L17.7,3.5    c-0.1-0.2-0.3-0.4-0.5-0.5l-4.4-1.9c-0.5-0.2-1.1,0-1.3,0.5c-0.2,0.5,0,1.1,0.5,1.3l4,1.7l5.4,11.5c0.1,0.2,0.3,0.4,0.5,0.5    l4.7,2.1c-0.3,0.7-0.5,1.4-0.6,2.2l-9.9,3.2c-0.2,0.1-0.3,0.1-0.4,0.3l-6.5,7H6.4c-0.6,0-1,0.4-1,1c0,0.6,0.4,1,1,1h3.3    c0.3,0,0.5-0.1,0.7-0.3l6.6-7.2l9.1-2.9c0.1,0.6,0.4,1,0.8,1.4c1,1,2.6,0.9,4.3,0.8c1.1-0.1,2.4-0.1,3.5,0    c2.3,0.1,4.5,0.2,5.1-2.1l9,2.9l6.6,7.2c0.2,0.2,0.5,0.3,0.7,0.3h3.3c0.5,0,1-0.4,1-1C60.6,31.8,60.1,31.4,59.6,31.4z"/></g></g><text x="0" y="81" fill="#000000" font-size="5px" font-weight="bold" font-family="'Helvetica Neue', Helvetica, Arial-Unicode, Arial, Sans-serif">Created by ProSymbols</text><text x="0" y="86" fill="#000000" font-size="5px" font-weight="bold" font-family="'Helvetica Neue', Helvetica, Arial-Unicode, Arial, Sans-serif">from the Noun Project</text></svg>