<svg xmlns="http://www.w3.org/2000/svg" xmlns:xlink="http://www.w3.org/1999/xlink" version="1.1" x="0px" y="0px" viewBox="0 0 245.299 720.99125" enable-background="new 0 0 245.299 576.793" xml:space="preserve"><g><path d="M170.808,0.991c-12.546-1.464-25.18-1.305-37.621,0.472l0,0c-12.545,1.778-24.81,5.108-36.519,9.917l0,0   c-2.44,1.017-4.446,2.856-5.667,5.194l0,0c-1.321,2.44-1.712,5.171-1.102,7.713l0,0l12.12,52.89   c0.207,1.034,0.692,2.005,1.417,2.833l0,0c0.621,0.827,1.484,1.475,2.519,1.889l0,0c9.045,3.95,18.771,6.088,28.648,6.296l0,0   c9.876,0.208,19.71-1.502,28.963-5.037l0,0c1.032-0.413,1.953-1.063,2.676-1.889l0,0c0.826-0.93,1.368-2.013,1.574-3.148l0,0   l12.907-63.594c0.602-3.105-0.142-6.367-2.046-8.972l0,0C176.874,2.951,174.014,1.292,170.808,0.991L170.808,0.991L170.808,0.991z"/><path d="M0.806,561.21l82.482-214.706c2.617,4.083,5.622,7.931,8.973,11.491l0,0c3.245,3.454,6.882,6.617,10.86,9.444l0,0   l30.695,22.037l0,0c1.321,0.915,2.27,2.253,2.676,3.777l0,0c0.407,1.526,0.239,3.142-0.473,4.565L53.695,574.747l0,0   c-0.206,0.616-0.643,1.108-1.26,1.417l0,0c-0.514,0.41-1.114,0.629-1.731,0.629l-39.352-0.314l0,0c-3.749,0-7.274-1.821-9.445-4.88   l0,0C-0.164,568.541-0.576,564.663,0.806,561.21L0.806,561.21z"/><path d="M173.798,319.902c0,1.035,0.216,2.059,0.63,2.99l0,0c0.518,0.828,1.164,1.636,1.889,2.361l0,0l54.464,43.602l0,0   c3.192,2.575,5.587,5.949,6.926,9.76l0,0c1.442,3.811,1.823,7.946,1.103,11.963l-27.705,154.418l0,0   c-0.2,1.205-0.885,2.288-1.888,2.991l0,0c-1.105,0.703-2.417,0.931-3.621,0.63l-41.713-10.704l0,0   c-2.64-0.71-4.932-2.332-6.454-4.564l0,0c-1.624-2.335-2.295-5.13-1.889-7.871l14.009-114.437c0.104-1.235-0.114-2.486-0.63-3.619   l0,0c-0.412-1.134-1.173-2.113-2.203-2.834l0,0l-59.658-42.658l0,0c-8.691-6.207-15.758-14.353-20.62-23.769l0,0   c-4.967-9.312-7.664-19.723-7.87-30.38l-2.204-132.067c0.449-2.247-0.834-4.475-2.99-5.194l0,0   c-2.248-0.719-4.612,0.294-5.51,2.361l0,0L41.575,230.65c-0.105,0.209-0.158,0.475-0.158,0.787l0,0c0,0.209,0,0.421,0,0.63l0,0   l22.51,121.677l0,0c0.296,1.48-0.174,2.949-1.259,3.936l0,0c-0.986,1.086-2.455,1.614-3.935,1.417l-20.463-3.463l0,0   c-1.744-0.308-3.389-1.13-4.722-2.361l0,0c-1.334-1.231-2.266-2.82-2.676-4.564L4.111,232.224l0,0   c-0.209-0.939-0.262-1.894-0.158-2.833l0,0c0-0.834,0.212-1.683,0.63-2.518l45.176-115.38l0,0c2.856-7.14,8.01-13.069,14.64-16.844   l0,0c6.528-3.773,14.174-5.214,21.722-4.092l85.631,16.685l0,0c9.412,1.637,18.118,6.266,24.871,13.222l0,0   c6.648,6.957,10.893,15.883,12.12,25.5l36.519,205.104l0,0c0.103,0.924-0.007,1.855-0.314,2.676l0,0   c-0.41,0.821-1.014,1.479-1.731,1.89l-5.982,3.778l0,0c-1.229,0.818-2.658,1.203-4.093,1.102l0,0   c-1.434-0.103-2.753-0.652-3.777-1.574l-15.898-12.593l0,0c-0.625-0.521-1.156-1.106-1.573-1.731l0,0   c-0.313-0.626-0.579-1.37-0.788-2.204l-32.74-147.65c-0.277-1.014-1.19-1.731-2.204-1.731l0,0c-1.105,0-2.02,0.718-2.203,1.731l0,0   L173.798,319.902L173.798,319.902z"/></g><text x="0" y="591.793" fill="#000000" font-size="5px" font-weight="bold" font-family="'Helvetica Neue', Helvetica, Arial-Unicode, Arial, Sans-serif">Created by Javier Nuño</text><text x="0" y="596.793" fill="#000000" font-size="5px" font-weight="bold" font-family="'Helvetica Neue', Helvetica, Arial-Unicode, Arial, Sans-serif">from the Noun Project</text></svg>