<svg xmlns="http://www.w3.org/2000/svg" xmlns:xlink="http://www.w3.org/1999/xlink" version="1.1" x="0px" y="0px" viewBox="0 0 64 80" style="enable-background:new 0 0 64 64;" xml:space="preserve"><g><path d="M24.43,30.097C24.148,29.532,24,28.903,24,28.274c0-0.555-0.216-1.076-0.607-1.468l-2.1-2.1l-6.472-5.543   C14.698,19.059,14.54,19,14.378,19c-0.323,0-0.604,0.23-0.668,0.548l-0.313,1.569C13.134,22.434,13,23.78,13,25.119   c0,2.693-0.479,5.34-1.426,7.865c-0.951,2.535-1.452,5.185-1.539,7.882c0.07,0.374,0.195,0.82,0.316,1.23l0.204,0.705   C11.261,45.274,13.549,47,16.12,47c1.05,0,2.079-0.285,2.978-0.825l0.812-0.487l1.029,1.715l-0.812,0.487   C18.918,48.616,17.532,49,16.12,49c-2.17,0-4.188-0.915-5.628-2.417l0.062,0.219C11.261,49.274,13.549,51,16.12,51   c1.05,0,2.079-0.285,2.978-0.825l0.812-0.487c1.396-0.837,2.379-2.232,2.698-3.828l0.274-1.372   c0.118-0.594,0.373-1.163,0.737-1.646l0.118-0.159C25.198,40.737,26,38.33,26,35.902c0-1.744-0.412-3.491-1.192-5.051L24.43,30.097   z"/><path d="M23.104,21.014l-8.849-7.488C13.854,13.187,13.345,13,12.82,13c-1.108,0-2.056,0.829-2.202,1.928L9.243,25.24   c-0.19,1.436-0.86,2.791-1.886,3.816C6.482,29.932,6,31.097,6,32.335v3.901L4.578,39.08C3.546,41.144,3,43.455,3,45.765   c0,2.597,0.681,5.161,1.97,7.416v0.001l0.512,0.896C6.159,55.263,7.43,56,8.796,56h0.745c1.152,0,2.269,0.338,3.228,0.978   l0.179,0.119C13.834,57.688,14.866,58,15.932,58c1.608,0,3.145-0.768,4.109-2.055C20.954,54.728,22.408,54,23.932,54   c0.96,0,1.852-0.477,2.384-1.275l0.437-0.654C29.531,47.899,31,43.048,31,38.038c0-3.781-0.971-7.526-2.807-10.831   C26.881,24.845,25.168,22.761,23.104,21.014z M25.341,43.879l-0.119,0.16c-0.188,0.25-0.317,0.539-0.378,0.84l-0.274,1.373   c-0.43,2.146-1.752,4.023-3.63,5.15l-0.812,0.487C18.918,52.616,17.532,53,16.12,53c-3.459,0-6.538-2.322-7.488-5.648l-0.1-0.351   C8.179,45.767,8,44.489,8,43.205v-1.542c0-0.213,0.023-0.423,0.028-0.636c-0.002-0.015-0.008-0.032-0.01-0.047l0.012-0.002   c0.076-2.977,0.622-5.901,1.671-8.697c0.862-2.3,1.299-4.71,1.299-7.163c0-1.471,0.146-2.948,0.436-4.394l0.313-1.569   c0.25-1.25,1.355-2.156,2.629-2.156c0.639,0,1.258,0.229,1.744,0.645v0.001l6.528,5.596l2.156,2.151   c0.77,0.77,1.193,1.793,1.193,2.882c0,0.32,0.076,0.642,0.219,0.929l0.378,0.754C27.515,31.793,28,33.85,28,35.902   C28,38.761,27.056,41.593,25.341,43.879z"/><path d="M59.706,33.412C60.551,31.026,61,28.504,61,25.962c0-1.584-0.163-3.148-0.452-4.684l-0.394-0.863   c-0.623-1.345-1.4-2.619-2.306-3.782c-1.202-1.546-2.665-2.812-4.348-3.762l0.984-1.742c1.201,0.679,2.291,1.513,3.282,2.464   c-0.317-0.565-0.654-1.12-1.016-1.663l-0.437-0.654C55.783,10.477,54.892,10,53.932,10c-1.523,0-2.978-0.728-3.891-1.946   C49.076,6.768,47.54,6,45.932,6c-1.065,0-2.098,0.312-2.984,0.903l-0.179,0.119C41.81,7.662,40.693,8,39.541,8h-0.745   c-1.366,0-2.637,0.737-3.315,1.924l-0.511,0.896c-0.81,1.416-1.378,2.954-1.69,4.546c0.15-0.192,0.296-0.386,0.455-0.571   C36.89,11.112,41.481,9,46.331,9c0.954,0,1.908,0.081,2.838,0.24l-0.338,1.971c-0.818-0.14-1.659-0.211-2.5-0.211   c-4.266,0-8.304,1.857-11.078,5.096c-0.854,0.995-1.557,2.108-2.09,3.31l-0.083,0.198c0.131,1.413,0.464,2.801,0.984,4.12   c0.237-2.325,1.174-4.537,2.706-6.326C39.166,14.603,42.65,13,46.331,13c3.913,0,7.536,1.771,9.938,4.86   C58.675,20.953,60,24.813,60,28.732c0,1.547-0.098,3.108-0.289,4.642L59.706,33.412z"/><path d="M46.331,15c-3.096,0-6.027,1.348-8.042,3.698C36.813,20.422,36,22.62,36,24.889v2.875V28v3.665   c0,1.238,0.482,2.403,1.357,3.278c1.025,1.025,1.695,2.381,1.886,3.816l1.375,10.313C40.765,50.171,41.712,51,42.82,51   c0.524,0,1.034-0.187,1.435-0.525l8.85-7.488c1.506-1.275,2.82-2.733,3.933-4.344l0.69-5.516C57.908,31.675,58,30.196,58,28.732   c0-3.476-1.175-6.9-3.309-9.644C52.67,16.49,49.623,15,46.331,15z M40,34h-2v-2h2V34z M55.742,32.878l-0.719,5.75l-1.984-0.248   l0.719-5.75C53.919,31.344,54,30.032,54,28.732c0-2.592-0.876-5.145-2.466-7.188C50.275,19.928,48.379,19,46.331,19   c-1.927,0-3.751,0.839-5.004,2.302C40.471,22.3,40,23.573,40,24.889V30h-2v-5.111c0-1.792,0.643-3.528,1.809-4.889   c1.634-1.906,4.011-3,6.522-3c2.67,0,5.142,1.209,6.781,3.316C54.975,22.709,56,25.698,56,28.732   C56,30.115,55.913,31.51,55.742,32.878z"/></g><text x="0" y="79" fill="#000000" font-size="5px" font-weight="bold" font-family="'Helvetica Neue', Helvetica, Arial-Unicode, Arial, Sans-serif">Created by Eucalyp</text><text x="0" y="84" fill="#000000" font-size="5px" font-weight="bold" font-family="'Helvetica Neue', Helvetica, Arial-Unicode, Arial, Sans-serif">from the Noun Project</text></svg>