<svg xmlns="http://www.w3.org/2000/svg" data-name="Layer 1" viewBox="0 0 90 89.05" x="0px" y="0px"><title>04</title><path d="M14.06,14.38a1.71,1.71,0,0,0-1.78,1.09l3.57-.1A2,2,0,0,0,14.06,14.38Z" transform="translate(-5 -14.38)"/><path d="M47.29,51.26c0,.79,1.49,2.06,1.49,2.06A1.67,1.67,0,0,1,49.29,51a10.59,10.59,0,0,1,4.44-1.57,10.73,10.73,0,0,0,6.21-1.08,11.43,11.43,0,0,1,2.17-.92,19.41,19.41,0,0,0,0-3.17,2.86,2.86,0,0,0-1.86-2.64c-1.75,3.29-8.49,3.15-8.49,3.15s-3.43,1.22-3.5,2.61c0,0-3.32-1.16-4.93-.64a2.85,2.85,0,0,0-1.89,2.09s2-.69,2.79-.26a7.12,7.12,0,0,0,5.14.45S47.33,50.46,47.29,51.26Z" transform="translate(-5 -14.38)"/><path d="M88.09,51.15c-1.44-.91-3.47-.45-4.69,0a3.61,3.61,0,0,1-1,1.27,54.43,54.43,0,0,1-6,3.66c2.79.81,3.89,5.43,4.31,8.35l1.69-.7a24.3,24.3,0,0,0,8.87-5.78C91.31,55.25,89.91,52.31,88.09,51.15Z" transform="translate(-5 -14.38)"/><path d="M94.16,42.45a22.76,22.76,0,0,0-7.36-7.71c-5.19-3.43-13.87-8.42-23.32-10.08s-18.3.88-24.6-.22c-5.91-1-12.35-5.6-18-7.54a8.16,8.16,0,0,0-2.07-.42c-2.36-.17-8.29-.49-10.54.5C5.45,18.23,5,22.38,5,23.37S10.87,29,15.91,31.45c0,0,1.84,2.87,2,4.26S21,41,25.43,43.83c0,0,.88-1.74-2.24-6.86,0,0,4.15,4.37,4.14,8.54l-1.07,5.7s-1.63.91-2.6.47-3.79.41-4,1.59,1.41-.33,2.77.14l1.37.46a3.46,3.46,0,0,0-1.09,1.93c0,1,.67,2.61,1.3,1.85s.75-3.14,2.13-2.87c0,0-.12,2.38,1.46,2.65,0,0,1,.84.86-1.35s1.07-1.53,2.46-1.66S34.3,49,34.51,44.67s-3.76-8.32-3.76-8.32a10.56,10.56,0,0,1,5.35,8.2l3.82.17v-2.1a2.17,2.17,0,0,1,2.18-2.18c1.59-.2,1-2,2-1.39s2.44,1.7-.07,5.82c1.64.05,3.08.08,3.78.05a6.69,6.69,0,0,1,4.26-1.77A9.59,9.59,0,0,0,60,39.38a5.16,5.16,0,0,1,1.38-1.13c.05-1.37.17-4.68.17-5.92,0-1.59-2.38-4.76-2.58-5.35-.11-.33.47-.67,1-.9a1.4,1.4,0,0,1,1.53.28c.88.85,2.24,2.75,2.24,6.36a9,9,0,0,1-1.13,5A14.25,14.25,0,0,1,69,37.44a22.58,22.58,0,0,0-4.64,1.15c2.33,1.6,2.67,6,2.71,7.61a18.1,18.1,0,0,1,4.49-.3c2.37.32,5.61,2.86,10.77,2.91a2.84,2.84,0,0,1,.69.51,11.35,11.35,0,0,1,6.06-1c2.47.39,3.83,3.86,4.48,6.19C95.07,51.5,95.58,47.55,94.16,42.45ZM16.14,24a1.59,1.59,0,1,1,1.59-1.59A1.59,1.59,0,0,1,16.14,24ZM20,35.62c-.76.61-1.21-1.67-.76-2.73s0-2.43.61-3.49,1.82,0,1.82,0C23.5,32.28,20.77,35,20,35.62ZM31.6,42.83c1,2.38-1.78,3.37-2.78,3.17s.4-1.59-.59-3.17.2-2.18.2-2.18C29.22,40.45,30.61,40.45,31.6,42.83Zm.2-9.12c-1.19,1.59-1.59-3.37-1.59-5S28.63,26.18,27.44,25l0,0a1.78,1.78,0,0,1,2-2.84c2.43,1,4.39,4.29,4.39,5.66A11.21,11.21,0,0,1,31.8,33.71Zm8.33.59c-1.19,2.58-2.18.59-2.78,0s.59-2,1-3.17a4.79,4.79,0,0,1,1.39-2A5.94,5.94,0,0,1,40.13,34.3Zm11.69-2.78c-1,1.59-.2,2.38-1,4.76s-1.78,1.39-2.78.59.2-2.38-.4-3.77-1-5.55.59-5.75,3.57,1.19,3.57,1.19A2.75,2.75,0,0,1,51.82,31.53Zm27.55,6.54C77,40.85,74,35.69,74.61,34.5s-.79-2.58-1.59-4,1-1.19,1-1.19C77.59,29.55,81.75,35.3,79.37,38.07Zm5.95,3.57c-1.19.4-1.19,4-2.58,4.76S81,44.61,81,44.61c1.19-6.34,4.56-6.54,6.94-5.55S86.51,41.24,85.32,41.64Z" transform="translate(-5 -14.38)"/><path d="M70.74,59.22c-4.83,2.7-10,5.62-13.12,7.83C51,71.68,47.95,78.08,48,81.85v3.77s2.31-6.63,4.78-8.5c1.25-.94,7.3-3.75,13.74-6.6-.15-1.31-.26-3.27.38-3.91.82-.82,2,.25,2.22,2.76,2.65-1.16,5.27-2.29,7.55-3.27A19.92,19.92,0,0,0,76,61.66C75.41,59.53,72.77,59.16,70.74,59.22Z" transform="translate(-5 -14.38)"/><text x="0" y="86.24" fill="#000000" font-size="5px" font-weight="bold" font-family="'Helvetica Neue', Helvetica, Arial-Unicode, Arial, Sans-serif">Created by parkjisun</text><text x="0" y="91.24" fill="#000000" font-size="5px" font-weight="bold" font-family="'Helvetica Neue', Helvetica, Arial-Unicode, Arial, Sans-serif">from the Noun Project</text></svg>