<svg xmlns="http://www.w3.org/2000/svg" xmlns:xlink="http://www.w3.org/1999/xlink" version="1.1" x="0px" y="0px" viewBox="0 0 100 125" enable-background="new 0 0 100 100" xml:space="preserve"><g><path fill-rule="evenodd" clip-rule="evenodd" d="M94.341,55.744c-0.437,0.098-0.956,0.293-1.194,0.373   c-0.014,0.004-0.028,0.01-0.041,0.014c-6.019-0.633-11.073-1.436-16.991-2.7c-0.99-1.14-1.739-2.212-2.478-3.542   c1.416-6.595,2.796-12.248,4.646-18.73C79.172,30.387,79.33,29,78.65,28c-0.024,0-0.05,0-0.078,0c-1.354,0-2.586,0.291-3.623,1.185   c0.035,0.738,0.189,1.446,0.493,2.14c0.016,0.042,0.009,0.11-0.013,0.184c-0.011,0.042-0.022,0.098-0.035,0.141   c-1.903,5.635-3.533,10.393-5.49,16.009c-0.023,0.037-0.047,0.079-0.072,0.12c-0.023,0.039-0.041,0.067-0.061,0.087   c-2.219,0.851-4.155,1.471-6.418,2.051c-0.09,0.079-0.1,0.217-0.021,0.307c0.027,0.032,0.058,0.053,0.099,0.065   c0.799,0.308,1.238,1.185,0.99,2.02c-1.008,1.785-2.146,3.151-3.727,4.473c-5.977,8.565-15.908,12.453-26.123,10.215   c-4.367,2.5-9.131,2.857-13.817,1.037c-3.313-1.917-5.654-4.391-7.372-7.798c-4.003,0.571-7.244,2.266-9.999,5.227   c11.52,6.108,23.229,7.775,36.002,5.126c0.028-0.001,0.056-0.002,0.084-0.003c9.239-1.295,17.003-2.658,26.132-4.587   c0.034-0.004,0.062-0.005,0.083-0.006c0.053-0.001,0.109-0.003,0.169-0.003c1.622,0.447,3.165,0.249,4.622-0.593   c0.688-0.581,1.684-1.955,2.236-2.742c1.287-2.087,2.955-3.51,5.219-4.451c0.326-0.098,0.648-0.153,1.17-0.215   c0.002,0,0.006-0.001,0.011-0.002c4.791-0.165,8.852,0.045,13.601,0.703c0.063,0.008,0.096,0.016,0.139,0.038   c0.568,0.42,1.087,0.722,1.732,1.009c0.003-0.003,0.006-0.005,0.01-0.008c0.834-0.638,1.453-1.304,2.021-2.176   C96.082,56.655,95.336,56.063,94.341,55.744z"/><path fill-rule="evenodd" clip-rule="evenodd" d="M16.001,59.087c2.625,0.663,5.29-0.928,5.954-3.552   c0.483-1.914-0.154-3.805-1.698-5.035c-0.679-0.431-1.525-0.596-2.368-0.391c-0.579,0.142-1.038,0.401-1.456,0.825   c-0.552,0.623-0.803,1.497-0.594,2.368c0.127,0.532,0.374,0.952,0.776,1.323c0,0.003,0.001,0.006,0.002,0.008   c0.033,0.16-0.07,0.275-0.224,0.353c-0.126,0.021-0.235,0.027-0.362,0.025c-0.968-0.022-1.755-0.745-1.889-1.672   c0.02-0.59-0.283-1.109-0.788-1.378c-0.464-0.215-1.014-0.017-1.234,0.443C11.449,55.326,13.171,58.238,16.001,59.087z"/><path fill-rule="evenodd" clip-rule="evenodd" d="M13.63,49.175c0.412-0.483,0.82-0.842,1.351-1.189   c2.733-1.79,6.335-1.195,8.364,1.271c0.927,0.97,1.47,2.03,1.714,3.35c0.661,3.569-1.696,6.999-5.264,7.662   c1.117,3.281,3.769,5.495,7.197,6.006c2.262,0.255,4.576-0.589,6.136-2.37c3.363-6.479,2.087-14.062-3.211-19.084   c-2.789-2.722-6.838-3.605-10.441-2.438c-3.209,1.027-5.507,3.284-6.592,6.475c0.008,0.119,0.063,0.235,0.163,0.317   C13.219,49.319,13.465,49.314,13.63,49.175z"/><path fill-rule="evenodd" clip-rule="evenodd" d="M14.872,41.566c0.189,0.058,0.37,0.041,0.545-0.051   c4.984-4.203,12.238-4.21,17.254,0.098c6.436,6.125,8.791,14.881,6.244,23.541v0.001c0.003,0.018,0.007,0.033,0.01,0.048   c9.501-0.444,17.364-5.655,21.476-14.232c0.025-0.074,0.039-0.119,0.035-0.125c-0.002-0.001-0.003-0.003-0.005-0.005   c-2.495-0.51-4.378-2.136-5.247-4.53c-2.191-6.271-6.069-10.974-11.835-14.358c-10.35-4.982-22.96-1.316-28.953,8.713   C14.278,41.046,14.492,41.449,14.872,41.566z"/><path fill-rule="evenodd" clip-rule="evenodd" d="M76.588,47.051c-0.037,0.156-0.055,0.291-0.035,0.344   c1.571,1.453,2.633,2.98,3.447,4.961c2.438-1.365,4.986-1.694,7.69-0.994c0.081-0.006,0.166-0.033,0.276-0.096   c0.066-0.037,0.141-0.217,0.108-0.416c-0.983-1.43-2.064-2.477-3.519-3.411c1.287-1.315,2.195-2.605,3-4.261   c-0.084,0.016-5.654,1.062-5.654,1.062s-0.006-0.021-0.018-0.058c-0.531-1.627-1.238-2.923-2.317-4.251   c-0.177-0.032-0.249,0.096-0.272,0.282C79.446,42.876,78.521,45.211,76.588,47.051z"/></g><text x="0" y="115" fill="#000000" font-size="5px" font-weight="bold" font-family="'Helvetica Neue', Helvetica, Arial-Unicode, Arial, Sans-serif">Created by Anna Neyshtadt</text><text x="0" y="120" fill="#000000" font-size="5px" font-weight="bold" font-family="'Helvetica Neue', Helvetica, Arial-Unicode, Arial, Sans-serif">from the Noun Project</text></svg>