<svg xmlns:dc="http://purl.org/dc/elements/1.1/" xmlns:cc="http://creativecommons.org/ns#" xmlns:rdf="http://www.w3.org/1999/02/22-rdf-syntax-ns#" xmlns:svg="http://www.w3.org/2000/svg" xmlns="http://www.w3.org/2000/svg" xmlns:sodipodi="http://sodipodi.sourceforge.net/DTD/sodipodi-0.dtd" xmlns:inkscape="http://www.inkscape.org/namespaces/inkscape" viewBox="0 0 16.933333 21.166666250000002" version="1.1" x="0px" y="0px"><g style="" display="inline"><path style="opacity:1;fill:#000000;fill-opacity:1;stroke:none;stroke-width:0.26458329;stroke-linecap:square;stroke-linejoin:round;stroke-miterlimit:4;stroke-dasharray:none" d="m 6.886952,1.0877319 c -0.040598,7.249e-4 -0.08219,0.00804 -0.1240134,0.015877 -0.1597832,0.033566 -0.2782287,0.1475096 -0.346166,0.2732266 -0.068002,0.1256227 -0.09932,0.2670571 -0.1153933,0.4078317 -0.032116,0.2815493 -7.408e-4,0.5628374 0.024649,0.7069033 0.072983,0.4092744 0.2224132,1.4606761 0.3335586,2.4344044 0.055605,0.4868826 0.1021622,0.9551837 0.1246656,1.3150077 0.011308,0.1799305 0.016528,0.3334428 0.014645,0.4443196 -7.409e-4,0.055459 -0.00435,0.1004882 -0.00804,0.1299726 -0.00146,0.015732 6.879e-4,0.00804 -6.615e-4,0.011525 -0.018703,0.011528 -0.052633,0.027113 -0.097478,0.04444 C 6.6031437,6.9059673 6.471163,6.9469711 6.3120682,6.9893095 5.993889,7.0740076 5.5651421,7.1675937 5.1031552,7.263848 4.1791599,7.4563782 3.1275768,7.6575718 2.5202044,7.8334856 a 0.16978192,0.16978192 0 0 0 -0.00218,6.879e-4 C 2.2448348,7.9165362 1.9694768,7.9832768 1.7414812,8.0980904 1.6274868,8.1555079 1.5226853,8.2264173 1.4437289,8.326869 1.3647723,8.4273577 1.3180409,8.5594396 1.3203897,8.7015626 c 0.00218,0.1406586 0.055823,0.2694787 0.1385925,0.3647321 0.08282,0.095225 0.189159,0.1606743 0.3030591,0.2128657 0.2278072,0.1043231 0.4969521,0.1603415 0.7466968,0.2274584 0.4904129,0.1317855 1.3944646,0.2828546 2.2076048,0.4376717 0.4065778,0.077341 0.7890208,0.1552895 1.0762972,0.2294395 0.1436237,0.03705 0.2642441,0.07379 0.3474781,0.106127 0.037988,0.01479 0.065174,0.03197 0.084183,0.04379 0.00146,0.01791 0.00508,0.04415 -0.00146,0.08227 -0.014645,0.08653 -0.04734,0.211125 -0.094159,0.357439 -0.093709,0.29264 -0.2419151,0.67478 -0.4031919,1.074963 -0.322575,0.800345 -0.6959055,1.660166 -0.81633,2.108133 -0.072206,0.268614 -0.181859,0.660613 -0.2194994,1.017936 -0.018923,0.17864 -0.021823,0.349442 0.017907,0.50397 0.039728,0.154527 0.1447326,0.308301 0.3149989,0.358766 a 0.16978192,0.16978192 0 0 0 0.00435,7.15e-4 c 0.2806361,0.07516 0.5691158,-0.0585 0.8654037,-0.248019 0.2962804,-0.189493 0.6022178,-0.455332 0.8746905,-0.730132 0.9612518,-0.96943 1.6141303,-1.680863 2.0431452,-2.155879 0.214497,-0.237492 0.3737944,-0.416125 0.4847511,-0.535817 0.052269,-0.05633 0.092085,-0.09727 0.1220197,-0.126015 0.023053,0.01153 0.044224,0.02088 0.078876,0.03973 0.1014072,0.05531 0.2441327,0.139838 0.4124787,0.243358 0.3366763,0.20708 0.7760943,0.490231 1.2108883,0.77455 0.86963,0.568666 1.722868,1.143936 1.722868,1.143936 a 0.16978192,0.16978192 0 0 0 6.61e-4,6.61e-4 c 0.230606,0.153651 0.499577,0.350965 0.777212,0.472827 0.138817,0.06097 0.281932,0.103938 0.430386,0.104068 0.148444,2.11e-4 0.303072,-0.05096 0.425071,-0.163132 a 0.16978192,0.16978192 0 0 0 0.0044,-0.0044 c 0.145706,-0.144616 0.218747,-0.32725 0.233434,-0.507305 0.01464,-0.180053 -0.02276,-0.357961 -0.08287,-0.52587 -0.120153,-0.335835 -0.332779,-0.636748 -0.485429,-0.82495 -0.135897,-0.181016 -0.678406,-0.86066 -1.196969,-1.573654 -0.260091,-0.357591 -0.512213,-0.72128 -0.696305,-1.023215 -0.09205,-0.150989 -0.166982,-0.2866675 -0.216847,-0.3952394 -0.04988,-0.1085641 -0.06967,-0.1959295 -0.06967,-0.2095523 0,0.017253 0.02574,-0.079687 0.104112,-0.1929866 0.07831,-0.1132983 0.196134,-0.2569728 0.339525,-0.4157845 0.286826,-0.3175796 0.674773,-0.6976017 1.063031,-1.0616962 0.776465,-0.7281809 1.5544,-1.3919416 1.5544,-1.3919416 a 0.16978192,0.16978192 0 0 0 0.0044,-0.00435 C 15.258076,6.3117654 15.435396,6.0657468 15.53315,5.8128194 15.63094,5.559892 15.65211,5.2875935 15.52162,5.0621423 15.398549,4.8490302 15.169663,4.7499271 14.940703,4.7531169 c -0.228953,0.0029 -0.47371,0.07984 -0.744052,0.1850122 -0.003,7.409e-4 -1.002908,0.3716991 -2.030553,0.7281379 -0.514461,0.1784367 -1.035308,0.3530094 -1.437022,0.4748045 -0.200852,0.06097 -0.372451,0.1088252 -0.494712,0.1366205 -0.05357,0.011525 -0.09267,0.018415 -0.122678,0.022619 -0.01994,-0.029362 -0.0464,-0.071337 -0.07831,-0.1266669 C 9.9667527,6.058051 9.8794587,5.894447 9.7807177,5.7008585 9.5832294,5.3136813 9.3376389,4.8053688 9.098341,4.3009569 8.6197524,3.292147 8.1666248,2.2976047 8.1666248,2.2976047 a 0.16978192,0.16978192 0 0 0 -0.00146,-0.00435 C 8.0146564,1.979082 7.8404537,1.6638218 7.6180838,1.4278586 7.4235018,1.2214018 7.1709298,1.0719421 6.8866403,1.0850061 Z m 0.612744,1.7009527 a 0.23605403,0.23605403 0 0 1 0.1631331,0.069743 0.23605403,0.23605403 0 0 1 0,0.3335585 0.23605403,0.23605403 0 0 1 -0.3335735,0 0.23605403,0.23605403 0 0 1 0,-0.3335585 0.23605403,0.23605403 0 0 1 0.1704404,-0.069743 z m 0.2778522,1.2148825 a 0.23605403,0.23605403 0 0 1 0.1637995,0.069016 0.23605403,0.23605403 0 0 1 0,0.3342257 0.23605403,0.23605403 0 0 1 -0.3342253,0 0.23605403,0.23605403 0 0 1 0,-0.3342257 0.23605403,0.23605403 0 0 1 0.1704258,-0.069016 z m 0.3660587,1.4781548 a 0.23605403,0.23605403 0 0 1 0.1631399,0.068944 0.23605403,0.23605403 0 0 1 0,0.3335729 0.23605403,0.23605403 0 0 1 -0.3335731,0 0.23605403,0.23605403 0 0 1 0,-0.3335729 0.23605403,0.23605403 0 0 1 0.1704332,-0.068944 z m 5.8615301,0.2805054 a 0.23605403,0.23605403 0 0 1 0.129306,0.031826 0.23605403,0.23605403 0 0 1 0.08619,0.3222927 0.23605403,0.23605403 0 0 1 -0.322284,0.086249 0.23605403,0.23605403 0 0 1 -0.08626,-0.322271 0.23605403,0.23605403 0 0 1 0.192978,-0.1180685 z m -1.100814,0.5829043 a 0.23605403,0.23605403 0 0 1 0.128638,0.031826 0.23605403,0.23605403 0 0 1 0.08689,0.3222996 0.23605403,0.23605403 0 0 1 -0.32295,0.086256 0.23605403,0.23605403 0 0 1 -0.08618,-0.3222853 0.23605403,0.23605403 0 0 1 0.193631,-0.1180687 z M 8.5826049,6.974456 a 0.23605403,0.23605403 0 0 1 0.1631399,0.068944 0.23605403,0.23605403 0 0 1 0,0.3335586 0.23605403,0.23605403 0 0 1 -0.3335729,0 0.23605403,0.23605403 0 0 1 0,-0.3335586 0.23605403,0.23605403 0 0 1 0.170433,-0.068944 z M 11.5714,7.0812297 a 0.23605403,0.23605403 0 0 1 0.128654,0.031898 0.23605403,0.23605403 0 0 1 0.08686,0.3222924 0.23605403,0.23605403 0 0 1 -0.322945,0.08625 0.23605403,0.23605403 0 0 1 -0.08617,-0.3222853 0.23605403,0.23605403 0 0 1 0.193632,-0.1180613 z m -1.328281,0.8103491 a 0.23605403,0.23605403 0 0 1 0.129313,0.031826 0.23605403,0.23605403 0 0 1 0.08618,0.3222778 0.23605403,0.23605403 0 0 1 -0.322293,0.086249 0.23605403,0.23605403 0 0 1 -0.08688,-0.3222707 0.23605403,0.23605403 0 0 1 0.193632,-0.1180687 z M 3.1222788,8.4128178 A 0.23605403,0.23605403 0 0 1 3.3324911,8.5308791 0.23605403,0.23605403 0 0 1 3.2462849,8.8538314 0.23605403,0.23605403 0 0 1 2.9239924,8.7669655 0.23605403,0.23605403 0 0 1 3.0102058,8.4446731 0.23605403,0.23605403 0 0 1 3.1222716,8.4128469 Z m 4.3230302,0.037843 a 0.23605403,0.23605403 0 0 1 0.2102123,0.1174308 0.23605403,0.23605403 0 0 1 -0.086163,0.3229523 0.23605403,0.23605403 0 0 1 -0.322952,-0.086873 0.23605403,0.23605403 0 0 1 0.086873,-0.3222852 0.23605403,0.23605403 0 0 1 0.112073,-0.031246 z m -3.0776412,0.00899 a 0.23605403,0.23605403 0 0 1 0.2102123,0.117421 0.23605403,0.23605403 0 0 1 -0.08688,0.3229595 0.23605403,0.23605403 0 0 1 -0.3222853,-0.086873 0.23605403,0.23605403 0 0 1 0.08688,-0.3222924 0.23605403,0.23605403 0 0 1 0.1120656,-0.031246 z m 4.5398904,0.02327 A 0.42733205,0.42733205 0 0 1 9.3346086,8.9100016 0.42733205,0.42733205 0 0 1 8.9075582,9.3377268 0.42733205,0.42733205 0 0 1 8.4798259,8.9100016 0.42733205,0.42733205 0 0 1 8.9075582,8.4829208 Z m -3.0173237,0.00509 A 0.23605403,0.23605403 0 0 1 6.0997943,8.6060589 0.23605403,0.23605403 0 0 1 6.0136174,8.9290037 0.23605403,0.23605403 0 0 1 5.6913319,8.8421304 0.23605403,0.23605403 0 0 1 5.7775887,8.519838 0.23605403,0.23605403 0 0 1 5.8903142,8.4880121 Z m 4.3137575,1.433053 a 0.23605403,0.23605403 0 0 1 0.063,0.0081 0.23605403,0.23605403 0 0 1 0.167114,0.2891332 0.23605403,0.23605403 0 0 1 -0.289133,0.167106 A 0.23605403,0.23605403 0 0 1 9.9778667,10.096266 0.23605403,0.23605403 0 0 1 10.203986,9.9211995 Z M 8.1661533,10.108066 a 0.23605403,0.23605403 0 0 1 0.2360793,0.236086 0.23605403,0.23605403 0 0 1 -0.2360793,0.236079 0.23605403,0.23605403 0 0 1 -0.2360861,-0.236079 0.23605403,0.23605403 0 0 1 0.2360861,-0.236086 z m 3.1645207,0.886616 a 0.23605403,0.23605403 0 0 1 0.06286,0.0081 0.23605403,0.23605403 0 0 1 0.167113,0.289125 0.23605403,0.23605403 0 0 1 -0.289117,0.16646 0.23605403,0.23605403 0 0 1 -0.167117,-0.289157 0.23605403,0.23605403 0 0 1 0.226125,-0.174405 z m -3.9092238,0.479465 a 0.23605403,0.23605403 0 0 1 0.2360647,0.23608 0.23605403,0.23605403 0 0 1 -0.2360647,0.236079 0.23605403,0.23605403 0 0 1 -0.2360789,-0.236079 0.23605403,0.23605403 0 0 1 0.2360789,-0.23608 z m 4.9649538,0.617385 a 0.23605403,0.23605403 0 0 1 0.063,0.0081 0.23605403,0.23605403 0 0 1 0.167112,0.289133 0.23605403,0.23605403 0 0 1 -0.289139,0.167091 0.23605403,0.23605403 0 0 1 -0.167106,-0.289118 0.23605403,0.23605403 0 0 1 0.226132,-0.175065 z m -5.7514515,0.68635 a 0.23605403,0.23605403 0 0 1 0.2360861,0.236087 0.23605403,0.23605403 0 0 1 -0.2360861,0.236078 0.23605403,0.23605403 0 0 1 -0.236079,-0.236078 0.23605403,0.23605403 0 0 1 0.236079,-0.236087 z m 6.5996155,0.226792 a 0.23605403,0.23605403 0 0 1 0.063,0.0081 0.23605403,0.23605403 0 0 1 0.167121,0.289119 0.23605403,0.23605403 0 0 1 -0.289139,0.166452 0.23605403,0.23605403 0 0 1 -0.167106,-0.289124 0.23605403,0.23605403 0 0 1 0.226133,-0.174407 z m -7.2620999,0.828939 a 0.23605403,0.23605403 0 0 1 0.2360864,0.236086 0.23605403,0.23605403 0 0 1 -0.2360864,0.236073 0.23605403,0.23605403 0 0 1 -0.2360792,-0.236073 0.23605403,0.23605403 0 0 1 0.2360792,-0.236086 z"/></g><text x="0" y="31.933333" fill="#000000" font-size="5px" font-weight="bold" font-family="'Helvetica Neue', Helvetica, Arial-Unicode, Arial, Sans-serif">Created by Aficons</text><text x="0" y="36.933333000000005" fill="#000000" font-size="5px" font-weight="bold" font-family="'Helvetica Neue', Helvetica, Arial-Unicode, Arial, Sans-serif">from the Noun Project</text></svg>