<svg xmlns="http://www.w3.org/2000/svg" xmlns:xlink="http://www.w3.org/1999/xlink" version="1.1" x="0px" y="0px" viewBox="0 0 100 125" enable-background="new 0 0 100 100" xml:space="preserve"><g><path fill="#000000" d="M60.318,45.132l8.34,6.999c0,0,3.376,1.736,5.461,0.348c2.085-1.391,3.971-3.32,3.971-3.32   s0.781-1.984,0.515-3.626l-1.656-6.461c0,0-1.142-1.832-3.574-1.584c-2.433,0.249-7.693,0.831-7.693,0.831s-2.83,0.659-4.519,2.694   C61.162,41.011,58.433,43.294,60.318,45.132z"/><path fill="#000000" d="M56.694,41.31l2.961-1.936c1.071-1.143-0.627-2.901-0.627-2.901l-4.866-5.091   c-1.905-1.48-2.481,2.333-2.481,2.333s0.199,1.539,1.837,4.964C55.156,42.103,56.694,41.31,56.694,41.31z"/><path fill="#000000" d="M73.723,55.357c-1.396,1.461,0.794,1.785,0.794,1.785s5.013,0.449,6.701,0.498   c1.688,0.051,1.191-2.383,1.191-2.383l-0.397-3.971c-0.545-1.241-2.333-0.508-2.333-0.508l-3.425,2.236   C76.254,53.016,74.476,54.566,73.723,55.357z"/><path fill="#000000" d="M85.099,64.074c0.626-0.146,1.192-0.32,1.679-0.527l-0.001-0.002c1.195-0.447,1.756-1.83,1.332-3.328   c-0.331-1.174-1.143-1.969-2.145-2.203c0.333-8.458-0.072-16.64-4.42-20.458L70.075,26.367c-4.129-4.07-7.334-5.777-20.684-5.032   c-3.646,0.2-5.631,0.472-7.065,1.939c-1.121-2.35-2.964-4.659-6.427-5.09c-4.231-0.922-14.507,0.068-17.224,0.516   c-6.479,1.16-8.078,5.487-8.84,9.99l-0.011,0.092c-0.075,0.959-0.017,1.928,0.041,2.863c0.175,2.869,0.166,4.428-1.986,5.258   c-0.945,0.387-1.802,1.046-1.802,2.168v0.586l0.501,0.302c1.419,0.857,3.465,1.167,6.092,1.227c0.602,2.842,1.971,4.545,4.267,5.32   c1.215,0.411,2.624,0.543,4.248,0.543c1.318,0,2.778-0.087,4.39-0.184c1.17-0.069,2.403-0.143,3.704-0.191   c-1.532,2.452-2.833,6.239-1.023,10.922c-1.509,2.059-2.564,3.895-2.197,5.535c0.123,0.551,0.395,1.029,0.81,1.43   c-2.652,4.072-4.7,8.646-3.989,15.014l0.063,0.57l0.521,0.25c1.191,0.568,4.223,0.836,7.479,0.836   c4.141,0,8.645-0.434,10.178-1.223l0.332-0.172l0.146-0.342c0.668-1.57,0.529-2.889,0.38-4.285c-0.1-0.945-0.209-1.988-0.108-3.324   c0.808,0.281,1.663,0.516,2.562,0.711c-0.339,1.412-0.435,3.26-0.216,4.873l0.027,0.203l0.102,0.176   c0.346,0.6,1.055,1.021,2.233,1.328c1.349,0.354,3.318,0.545,5.459,0.545c0.499,0,1.009-0.01,1.521-0.033   c1.183-0.049,3.037-0.188,4.548-0.57c0.034,0.426,0.088,0.848,0.165,1.26l0.09,0.471l0.418,0.238   c1.35,0.766,4.946,1.109,8.896,1.109c4.03,0,8.426-0.359,11.166-1.002l1.029-0.242l-0.261-1.023   c-0.057-0.223-0.114-0.438-0.176-0.648c1.639,0.229,3.442,0.34,5.182,0.34c3.124,0,6.039-0.357,7.407-1.033l0.539-0.266   l0.037-0.602C92.876,73.127,89.927,66.957,85.099,64.074z M85.117,60.039c0.664-0.156,0.917,0.467,0.995,0.742   c0.129,0.457,0.016,0.799-0.069,0.826l-0.075,0.031c-2.886,1.221-9.333,1.199-14.678-0.055   c-14.484-3.547-17.021-9.65-19.706-16.112c-1.339-3.223-2.723-6.551-5.639-9.485c-0.11-0.916-0.266-1.877-0.474-2.884   c2.952,1.177,4.624,4.673,6.664,8.947c3.364,7.046,7.551,15.815,20.009,17.999l0,0c2.159,0.385,4.266,0.578,6.394,0.578   c2.126,0,4.274-0.193,6.52-0.576L85.117,60.039z M45.516,23.845l-0.556,3.047c0,0-0.208,0.766,0.402,1.063   c0.61,0.297,6.318,1.34,6.318,1.34s1.639,0.348,2.283-0.397c0.479-0.552,3.237-3.852,4.632-5.522   c1.096,0.089,2.052,0.22,2.898,0.393l-4.154,4.732c0,0-1.439,1.192-0.928,1.976c0.444,0.68,4.701,4.975,4.701,4.975   s1.488,1.296,2.879,1.021c1.103-0.219,8.346-1.572,11.295-2.122l4.812,4.693c-0.447,0.516-0.92,1.244-0.866,1.968   c0.1,1.34,0.694,5.46,1.142,6.254c0.446,0.794,1.978,2.101,2.553,2.267c0.218,0.063,0.557,0.124,0.892,0.176   c0.16,2.278,0.195,5.046,0.063,8.431c-3.93,0.59-7.565,0.547-11.374-0.133h-0.002c-11.408-1.998-15.175-9.889-18.498-16.85   c-2.412-5.054-4.515-9.449-9.088-10.378c-0.361-1.343-0.809-2.753-1.357-4.226c-0.105-0.328-0.22-0.681-0.345-1.049   C43.726,24.635,44.253,24.148,45.516,23.845z M31.279,57.047c0.565-0.734,1.139-1.477,1.674-2.223   c-0.091,0.439-0.17,0.871-0.235,1.297c-1.001,1.631-2.136,3.197-3.236,4.711c-0.461,0.635-0.924,1.271-1.379,1.918   c-0.009-0.029-0.014-0.051-0.019-0.07C27.824,61.518,29.66,59.141,31.279,57.047z M32.671,51.424   c-0.712,1.328-1.806,2.762-2.884,4.16c-0.897-3.496,0.245-6.305,1.457-8.125c0.263,0.29,0.562,0.581,0.882,0.873   C32.077,49.554,32.372,50.541,32.671,51.424z M39.833,78.303c-1.253,0.428-4.253,0.762-7.626,0.83   c-3.484,0.072-6.123-0.15-7.327-0.441c-0.583-7.191,2.753-11.785,6.28-16.639c0.447-0.617,0.901-1.242,1.35-1.877   c0.17,2.715,1.017,5.074,2.54,7.047c1.221,1.58,2.84,2.859,4.819,3.83c-0.218,1.855-0.071,3.238,0.049,4.375   C40.04,76.584,40.126,77.395,39.833,78.303z M58.148,75.053c-0.035,0.637-0.07,1.281-0.087,1.922c-1.249,0.4-3.571,0.67-6.004,0.67   c-0.026,0-0.053,0-0.078,0c-3.436-0.008-5.231-0.486-5.745-0.787c-0.131-1.314-0.027-2.848,0.247-3.902   c1.417,0.193,2.926,0.291,4.523,0.291c0.335,0.004,0.663,0.016,1.01,0.031c0.431,0.016,0.877,0.033,1.361,0.033   c1.239,0,2.729-0.117,4.864-0.648C58.236,73.428,58.193,74.232,58.148,75.053z M60.227,79.459   c-0.169-1.326-0.086-2.832-0.007-4.293c0.151-2.768,0.309-5.629-1.153-7.779l-1.056,0.717c0.388,0.57,0.647,2.092,0.173,2.953   c-2.902,0.766-4.426,0.705-5.949,0.646c-0.347-0.014-0.704-0.027-1.08-0.031c-6.638,0-11.725-1.854-14.323-5.217   c-2.25-2.914-2.866-7.436-1.555-12.451l0.034-0.127v-0.133c0-1.027-0.297-1.891-0.584-2.725c-0.081-0.234-0.16-0.467-0.233-0.7   c1.188,0.243,2.003,1.013,2.136,1.296c0-0.002,0.518,1.594,1.725,1.4l-0.207-1.348c0-1.002-0.997-1.862-2.907-3.419   c-0.598-0.488-1.862-1.346-2.448-1.893c1.983,0,3.601-0.632,4.506-0.978l0.386-0.665c-3.98-0.249-9.22-0.099-12.233,0.081   c-6.875,0.411-9.659,0.353-10.656-3.606c1.501-0.025,3.152-0.097,4.949-0.175c2.613-0.112,5.576-0.242,8.69-0.242   c2.539,0,5.825-0.652,7.549-3.619l-0.545-0.2c-0.956,1.645-3.975,2.249-7,2.249c-3.16,0-6.031,0.057-8.665,0.171   c-4.591,0.2-8.633,0.657-11.737-0.593c3.331-1.482,4.056-4.708,3.9-7.261c-0.052-0.848-0.105-1.725-0.047-2.528   c0.896-5.238,2.837-7.475,7.137-8.246c2.53-0.415,12.61-1.391,16.472-0.523l0.105,0.018c3.6,0.425,4.888,3.541,5.991,6.972   l0.015,0.045c3.545,9.502,3.662,16.237,2.523,18.374l0.734,0.392c0.731-1.373,1.258-3.543,1.288-6.388   c2.029,3.111,2.002,7.568,1.991,9.244c0,0.106-0.001,0.201-0.001,0.283h2.075c0-0.079,0-0.168,0.001-0.27   c0.002-0.344,0.004-0.793-0.008-1.316c2.646,6.234,6.091,12.48,20.589,16.027l0.01,0.002c2.865,0.674,5.983,1.008,8.807,1.008   c0.225,0,0.445-0.002,0.666-0.006c-2.114,1.338-5.729,2.787-8.047,3.307c-0.991-0.562-1.647-2.082-1.983-3.752l-1.286,0.076   c1.088,5.41,3.137,7.717,4.945,9.752c1.36,1.531,2.558,2.879,3.384,5.41C71.829,80.4,62.811,80.318,60.227,79.459z M78.596,77.045   c-0.901-1.926-2.029-3.197-3.131-4.438c-0.778-0.875-1.538-1.732-2.228-2.814c1.521-0.406,3.469-1.1,5.155-1.855   c2.021-0.908,3.504-1.807,4.44-2.689c4.512,1.92,7.632,7.438,7.708,11.688C88.371,77.574,82.866,77.846,78.596,77.045z"/><path fill="#000000" d="M17.582,29.694c-0.476,0-0.862,0.71-0.862,1.588c0,1.366,0.386,1.587,0.862,1.587s0.862,0,0.862-1.587   C18.444,30.404,18.058,29.694,17.582,29.694z"/><path fill="#000000" d="M28.364,29.694c-0.476,0-0.862,0.71-0.862,1.588c0,1.366,0.386,1.587,0.862,1.587s0.862,0,0.862-1.587   C29.227,30.404,28.84,29.694,28.364,29.694z"/></g><text x="0" y="115" fill="#000000" font-size="5px" font-weight="bold" font-family="'Helvetica Neue', Helvetica, Arial-Unicode, Arial, Sans-serif">Created by Alejandro Capellan</text><text x="0" y="120" fill="#000000" font-size="5px" font-weight="bold" font-family="'Helvetica Neue', Helvetica, Arial-Unicode, Arial, Sans-serif">from the Noun Project</text></svg>