<svg xmlns="http://www.w3.org/2000/svg" xmlns:xlink="http://www.w3.org/1999/xlink" version="1.1" x="0px" y="0px" viewBox="0 0 100 125" enable-background="new 0 0 100 100" xml:space="preserve"><path fill="#000000" d="M75.725,43.394c0,0.371,0.301,0.672,0.672,0.672c0.369,0,0.67-0.301,0.67-0.672s-0.301-0.67-0.67-0.67  C76.025,42.724,75.725,43.022,75.725,43.394z M63.799,59.059c-0.027,0.104-0.062,0.203-0.109,0.303  c1.643-0.217,3.41-0.613,5.326-1.25c0.59-0.197,1.146-0.42,1.664-0.656c-0.195-0.008-0.393-0.014-0.596-0.018  c-0.326,0.133-0.67,0.262-1.023,0.377C67.17,58.439,65.426,58.839,63.799,59.059z M63.607,59.514  c-0.061,0.106-0.135,0.213-0.219,0.312c1.727-0.203,3.594-0.609,5.627-1.283c0.902-0.304,1.725-0.66,2.443-1.041l-0.479-0.028  c-0.588,0.28-1.23,0.545-1.92,0.772C67.098,58.896,65.287,59.3,63.607,59.514z M63.248,59.984c-0.105,0.113-0.223,0.222-0.348,0.326  c1.863-0.182,3.889-0.602,6.115-1.34c1.207-0.4,2.268-0.906,3.137-1.43l-0.422-0.025c-0.775,0.426-1.676,0.828-2.67,1.16  C66.955,59.376,65.029,59.788,63.248,59.984z M62.693,60.475c-0.154,0.114-0.318,0.223-0.486,0.323  c2.053-0.139,4.305-0.562,6.809-1.396c1.521-0.506,2.811-1.18,3.777-1.842c-0.127-0.002-0.256-0.004-0.385-0.01  c-0.914,0.568-2.047,1.121-3.348,1.555C66.734,59.88,64.627,60.303,62.693,60.475z M61.934,60.958  c-0.203,0.112-0.41,0.217-0.615,0.313c2.287-0.067,4.824-0.483,7.697-1.438c1.859-0.621,3.373-1.49,4.381-2.283  c-0.117,0.006-0.236,0.008-0.355,0.01c-0.998,0.707-2.359,1.437-3.98,1.978C66.428,60.413,64.074,60.839,61.934,60.958z   M60.988,61.421c-0.262,0.113-0.508,0.209-0.725,0.289c2.555,0.043,5.432-0.344,8.752-1.446c2.246-0.744,3.984-1.857,4.938-2.759  c-0.104,0.013-0.207,0.021-0.311,0.029c-1.02,0.84-2.607,1.776-4.584,2.437C66.033,60.975,63.375,61.389,60.988,61.421z   M59.881,61.841c-0.135,0.041-0.488,0.164-0.871,0.24c2.863,0.213,6.131-0.099,10.006-1.388c2.699-0.895,4.66-2.317,5.412-3.268  c-0.078,0.016-0.156,0.029-0.232,0.043c-0.938,0.941-2.758,2.139-5.135,2.93C65.557,61.562,62.547,61.934,59.881,61.841z   M62.816,58.309c-0.008,0.065-0.057,0.125-0.145,0.123c0,0-0.076,0-0.219,0.02c-1.021,0.143-2.061,0.824-2.803,1.488  c-0.896,0.801-1.457,1.453-1.504,1.772c-0.01,0.067-0.012,0.146,0.236,0.156c0.26,0.012,0.701-0.072,1.375-0.287  c1.018-0.328,3.514-1.269,3.781-2.716c0.014-0.073,0.025-0.165,0.014-0.241c-0.029-0.147,0.145-0.213,0.232-0.14  c1.492-0.196,2.971-0.526,4.42-0.975c-0.297,0.016-0.693,0.031-1.121,0.031C65.57,57.938,64.152,58.184,62.816,58.309z   M63.84,58.624l0.002,0.047c0.004,0.08-0.002,0.16-0.016,0.238c1.605-0.218,3.326-0.609,5.189-1.229  c0.234-0.078,0.463-0.162,0.688-0.246c-0.289,0.002-0.584,0.012-0.895,0.035C67.184,58.005,65.521,58.396,63.84,58.624z   M52.576,53.46c0.053-0.131,0.135-0.229,0.238-0.304c-1.619-0.319-3.187-0.7-4.709-1.118c-0.221-0.062-0.312,0.271-0.092,0.334  C49.491,52.775,51.01,53.145,52.576,53.46z M50.48,54.044c0.276-0.056,0.553-0.108,0.831-0.162  c-1.643-0.364-3.231-0.788-4.776-1.245c-0.221-0.066-0.316,0.264-0.098,0.329C47.75,53.354,49.097,53.721,50.48,54.044z   M48.259,54.523l0.729-0.162c-1.357-0.354-2.682-0.741-3.975-1.151c-0.22-0.067-0.324,0.263-0.104,0.33  C46.002,53.887,47.117,54.219,48.259,54.523z M46.196,54.98l0.7-0.151c-1.146-0.334-2.268-0.688-3.367-1.058  c-0.219-0.071-0.327,0.256-0.109,0.33C44.33,54.402,45.255,54.7,46.196,54.98z M40.343,53.896c0.633,1.025,1.336,1.867,3.067,1.604  c0.364-0.056,0.729-0.117,1.093-0.185C43.084,54.861,41.701,54.384,40.343,53.896z M74.596,55.616  c2.971-0.562,6.1-1.371,9.414-2.474c5.76-1.914,10.168-4.815,12.438-7.098c0.189-0.031,0.379-0.066,0.568-0.105  c-1.822,2.299-6.578,5.746-13.117,7.917c-3.002,1-5.854,1.756-8.57,2.308l0.062,0.069c0,0,0.086,0.08,0.178,0.23  c2.68-0.547,5.488-1.297,8.439-2.277c6.881-2.287,11.844-5.99,13.523-8.36c0.172-0.041,0.346-0.086,0.52-0.133  c-0.443,2.041-5.604,6.551-14.098,9.373c-2.857,0.951-5.582,1.685-8.182,2.226c-0.002,0.09-0.012,0.185-0.031,0.28  c-0.355,1.396-2.98,3.355-6.414,4.494c-9.373,3.115-13.891,1.035-22.123-1.764c-0.468-0.178-5.629-1.959-6.793,0.59  c-0.858,1.885-3.336,2.701-5.243,2.732c-1.466,0.012-1.039-1.41-0.591-2.082c1.592-2.383-0.177-2.484,0.608-4.18  c-0.771-1.658,0.953-1.801-0.575-4.111c-0.289-0.434-0.607-1.102-0.382-1.586c-0.812-0.291-1.616-0.576-2.418-0.848  c0,0-15.359-5.935-19.252,2.6c-2.346,5.145-10.703,5.316-10.703,5.316c-1.121,0.008,1.533-2.547,2.4-5.019  C5.224,50.95,2.152,46.986,5,45.784c-2.848-1.199,0.225-5.088-0.744-7.854c-0.867-2.471-3.303-4.75-2.4-5.016  c0,0,7.484-2.1,10.703,5.314c3.16,7.271,8.275,5.514,13.508,4.506c5.232-1.006,14.718-3.375,20.722-4.023  c0.47-0.025-0.871-0.973-0.747-1.242c0.202-0.436,2.532,0.299,4.778,0.854c3.555-0.307,23.305-2.24,30.213,0.797  c5.654,2.486,4.42,1.58,9.43,2.623c4.34,0.904,6.598,1.785,7.352,2.926c-4.771,1.348-8.979-0.145-14.953,0.379  c-2.113,0.182-6.664,0.424-8.914-0.564c-0.211-0.092-0.299-0.152-0.299-0.152C73.109,43.9,72.461,44.707,73,45.139  c0.824,0.705,2.873,0.975,4.922,1.053c-3.24,0.789-6.295,1.285-9.186,1.551c-0.051-0.035-0.113-0.057-0.189-0.059  c-0.467-0.012-0.965,0.055-1.479,0.184c-2.736,0.17-5.326,0.129-7.789-0.07c-0.229-0.02-0.256,0.324-0.027,0.344  c2.102,0.17,4.293,0.227,6.59,0.135c-0.514,0.207-1.027,0.459-1.529,0.732c-2.395,0.029-4.799-0.096-7.205-0.387  c-0.227-0.027-0.27,0.314-0.041,0.344c2.215,0.266,4.432,0.395,6.641,0.395c-0.375,0.223-0.734,0.455-1.078,0.691  c-2.645-0.049-5.148-0.289-7.531-0.666c-0.229-0.037-0.281,0.305-0.055,0.34c2.26,0.357,4.625,0.594,7.115,0.662  c-0.312,0.225-0.604,0.451-0.867,0.668c-2.848-0.125-5.529-0.468-8.078-0.958c-0.227-0.041-0.291,0.299-0.064,0.34  c2.453,0.471,5.029,0.805,7.754,0.943l-0.15,0.134c-0.195,0.178-0.389,0.35-0.572,0.522c-3.1-0.199-5.998-0.649-8.748-1.261  c-0.225-0.053-0.297,0.285-0.074,0.334c2.67,0.595,5.482,1.037,8.477,1.248c-0.23,0.22-0.451,0.437-0.666,0.648  c-3.354-0.279-6.479-0.852-9.433-1.588c-0.224-0.057-0.306,0.279-0.083,0.334c2.473,0.617,5.067,1.121,7.813,1.432  c0.518-0.037,1.062-0.072,1.631-0.104c-0.322,0.328-0.627,0.656-0.902,0.979c-1.332,0.084-2.385,0.185-2.826,0.221  c-0.928-0.229-1.889-0.528-1.973-0.352c-0.053,0.111,0.502,0.502,0.309,0.514c-2.479,0.269-6.393,1.246-8.552,1.66  c-2.159,0.416-4.271,1.144-5.574-1.858c-1.329-3.06-4.418-2.192-4.418-2.192c-0.371,0.11,0.633,1.049,0.989,2.069  c0.4,1.144-0.866,2.746,0.31,3.239c-1.176,0.496,0.093,2.134-0.31,3.275c-0.356,1.02-1.452,2.072-0.989,2.068  c0,0,3.448-0.07,4.418-2.191c1.606-3.523,7.944-1.074,7.944-1.074c5.489,1.865,11.454,5.101,21.52,1.754  c3.506-1.168,5.635-3.028,5.818-3.868l-0.215,0.057c-0.695,0.976-2.744,2.505-5.582,3.449c-7.258,2.412-12.4,1.409-16.75-0.037  c-0.092-0.028-0.047-0.164,0.045-0.135c1.709,0.567,3.539,1.065,5.572,1.315c-0.057-0.07-0.078-0.166-0.062-0.295  c-1.787-0.221-3.414-0.635-4.941-1.119c-0.09-0.026-0.049-0.162,0.043-0.133c1.523,0.48,3.15,0.893,4.932,1.113  c0.031-0.084,0.074-0.176,0.133-0.271c-1.604-0.188-3.084-0.533-4.475-0.944c-0.092-0.027-0.053-0.162,0.039-0.136  c1.404,0.416,2.898,0.763,4.523,0.947c0.061-0.086,0.127-0.174,0.203-0.266c-1.469-0.152-2.832-0.438-4.117-0.791  c-0.092-0.025-0.053-0.162,0.037-0.139c1.309,0.358,2.695,0.647,4.193,0.797c0.074-0.086,0.156-0.174,0.244-0.264  c-1.35-0.119-2.609-0.353-3.799-0.65c-0.094-0.021-0.059-0.16,0.033-0.137c1.219,0.305,2.51,0.541,3.893,0.653  c0.088-0.088,0.18-0.176,0.273-0.266c-1.232-0.091-2.395-0.271-3.498-0.517c-0.092-0.021-0.061-0.16,0.031-0.139  c1.135,0.252,2.332,0.438,3.609,0.52l0.236-0.215l0.062-0.057c-1.125-0.057-2.188-0.193-3.199-0.387  c-0.094-0.02-0.066-0.158,0.025-0.141c1.053,0.2,2.158,0.342,3.334,0.393c0.107-0.088,0.229-0.182,0.357-0.275  c-1.025-0.027-2.004-0.125-2.938-0.271c-0.092-0.016-0.07-0.155,0.021-0.141c0.984,0.156,2.018,0.254,3.109,0.277  c0.143-0.1,0.291-0.195,0.445-0.291c-0.912,0.002-1.826-0.049-2.74-0.162c-0.094-0.01-0.078-0.152,0.016-0.139  c0.994,0.119,1.984,0.17,2.975,0.16c0.207-0.115,0.42-0.219,0.633-0.305c-0.949,0.038-1.855,0.016-2.721-0.054  c-0.096-0.011-0.082-0.151,0.012-0.146c1.016,0.082,2.084,0.103,3.215,0.031c0.213-0.055,0.416-0.082,0.609-0.076  c0.031,0,0.057,0.008,0.078,0.021c1.191-0.107,2.453-0.312,3.791-0.641c-0.846-0.031-1.691-0.142-2.031-0.435  c-0.223-0.176,0.045-0.512,0.268-0.332c0,0,0.035,0.027,0.123,0.063c0.928,0.406,2.809,0.308,3.678,0.23  c2.467-0.213,4.201,0.402,6.174-0.156c-0.314-0.469-1.244-0.834-3.033-1.207c-2.068-0.43-1.561-0.057-3.895-1.084  c-0.232-0.102-0.504-0.188-0.803-0.266c0.346-0.201,0.686-0.418,1.012-0.641c0.188-0.127,0.365-0.254,0.541-0.383  c4.688-0.414,9.795-1.437,15.428-3.31c3.152-1.047,5.9-2.393,8.113-3.768c0.312,0.012,0.623,0.02,0.936,0.021  c-2.352,1.607-5.475,3.236-9.158,4.463c-5.514,1.832-10.52,2.848-15.119,3.271c0.279,0.102,0.555,0.188,0.83,0.266  c4.404-0.467,9.176-1.473,14.398-3.209c3.932-1.307,7.232-3.074,9.652-4.787c0.285-0.006,0.57-0.012,0.855-0.025  c-2.439,1.922-6.107,4.029-10.617,5.529c-4.402,1.463-8.482,2.404-12.285,2.939c0.314,0.066,0.631,0.131,0.949,0.207  c3.564-0.555,7.367-1.467,11.445-2.82c4.785-1.592,8.639-3.867,11.104-5.895c0.252-0.021,0.502-0.045,0.754-0.078  c-2.311,2.182-6.521,4.879-11.969,6.688c-3.482,1.158-6.76,1.988-9.861,2.553l0.096,0.039  C74.307,55.475,74.459,55.544,74.596,55.616z M65.641,56.376c0-0.153,0.123-0.276,0.277-0.276c0.152,0,0.275,0.123,0.275,0.276  c0,0.151-0.123,0.274-0.275,0.274S65.641,56.527,65.641,56.376z M71.26,49.892c3.939-0.527,8.172-1.49,12.75-3.012  c0.857-0.285,1.686-0.592,2.48-0.916c0.49,0.008,0.969,0.025,1.439,0.047c-1.25,0.572-2.598,1.109-4.029,1.586  c-4.641,1.543-8.924,2.508-12.904,3.027C71.105,50.386,71.195,50.142,71.26,49.892z M70.801,50.995  c4.068-0.514,8.451-1.49,13.209-3.072c1.67-0.555,3.227-1.193,4.65-1.875c0.395,0.023,0.785,0.047,1.168,0.072  c-1.75,0.922-3.738,1.793-5.93,2.523c-4.926,1.637-9.445,2.621-13.633,3.113C70.469,51.512,70.646,51.259,70.801,50.995z   M69.926,52.143c4.314-0.479,8.984-1.479,14.084-3.172c2.414-0.803,4.592-1.779,6.471-2.811c0.346,0.021,0.688,0.041,1.025,0.059  c-2.111,1.266-4.682,2.494-7.605,3.467c-5.395,1.793-10.303,2.805-14.818,3.245C69.385,52.678,69.668,52.415,69.926,52.143z   M68.881,48.075c3.236-0.301,6.674-0.895,10.346-1.857c1.033,0.002,1.994-0.033,2.715-0.072c-3.514,1.082-7.092,1.885-10.709,2.363  c-0.213-0.184-0.635-0.029-0.564,0.334c0.029,0.184,0,0.408-0.031,0.59c-0.295,1.6-1.719,2.945-3.414,4.01  c-2.014,1.266-4.41,2.133-5.75,2.563c-1.631,0.522-2.701,0.724-3.33,0.693c-0.602-0.025-0.6-0.209-0.572-0.378  c0.092-0.637,1.023-1.812,2.559-3.288c0.332-0.324,0.693-0.656,1.082-1.005c1.764-1.577,4.219-3.198,6.652-3.589l0.143-0.021  c0.342-0.047,0.525-0.045,0.525-0.045C68.744,48.38,68.861,48.233,68.881,48.075z M71.359,48.837  c4.074-0.541,8.104-1.494,12.043-2.795c0.748-0.055,1.467-0.078,2.164-0.082c-0.543,0.205-1.098,0.404-1.668,0.594  c-4.512,1.5-8.684,2.453-12.568,2.98c0.025-0.189,0.039-0.381,0.033-0.574L71.359,48.837z"/><text x="0" y="115" fill="#000000" font-size="5px" font-weight="bold" font-family="'Helvetica Neue', Helvetica, Arial-Unicode, Arial, Sans-serif">Created by Simon Child</text><text x="0" y="120" fill="#000000" font-size="5px" font-weight="bold" font-family="'Helvetica Neue', Helvetica, Arial-Unicode, Arial, Sans-serif">from the Noun Project</text></svg>